<svg width="261" height="352" viewBox="0 0 261 352" fill="none" xmlns="http://www.w3.org/2000/svg">
<path d="M177.666 245.641L180.934 271.366L220.143 237.913L241.584 243.182C241.584 243.182 219.468 289.551 201.997 308.033C184.525 326.516 174.993 329.056 168.512 329.353C159.465 329.732 155.307 318.707 155.307 318.707L151.364 254.666L177.666 245.641Z" fill="#B78876"/>
<path d="M180.772 270.663C179.452 272.605 178.534 274.792 178.072 277.094C177.293 279.312 176.981 281.667 177.154 284.012C177.89 281.825 178.494 279.596 178.963 277.337C179.702 275.152 180.307 272.923 180.772 270.663Z" fill="#995037"/>
<path d="M223.925 172.711H253.44C254.554 172.765 255.641 173.068 256.622 173.598C257.603 174.129 258.452 174.872 259.108 175.775C259.763 176.677 260.208 177.715 260.41 178.812C260.611 179.909 260.564 181.038 260.272 182.114L230.568 239.967C230.005 241.066 229.151 241.988 228.097 242.632C227.044 243.276 225.834 243.616 224.6 243.615H188.604C187.763 243.516 186.96 243.212 186.265 242.73C185.57 242.248 185.004 241.602 184.617 240.849C184.23 240.096 184.034 239.259 184.046 238.413C184.059 237.566 184.279 236.736 184.688 235.995L213.339 179.25C214.315 177.278 215.825 175.619 217.696 174.463C219.567 173.307 221.726 172.7 223.925 172.711Z" fill="#455A64"/>
<path d="M225.923 176.197H255.438C256.295 176.174 257.143 176.374 257.899 176.777C258.654 177.181 259.292 177.774 259.75 178.499C260.207 179.224 260.469 180.056 260.508 180.912C260.548 181.768 260.364 182.62 259.975 183.384L230.865 239.967C230.298 241.068 229.438 241.992 228.381 242.635C227.323 243.279 226.108 243.618 224.87 243.615H189.306C188.802 243.63 188.303 243.514 187.857 243.279C187.411 243.044 187.034 242.697 186.762 242.273C186.49 241.848 186.333 241.36 186.305 240.857C186.278 240.353 186.381 239.851 186.605 239.399L215.23 182.655C216.23 180.685 217.762 179.036 219.652 177.894C221.543 176.752 223.715 176.164 225.923 176.197Z" fill="#263238"/>
<path d="M228.406 199.948L246.472 207.055L250.225 221.565L241.584 243.182L209.827 247.722L219.144 238.21L217.929 229.942C217.929 229.942 209.071 227.24 208.855 225.808C208.639 224.376 209.962 219.89 211.313 219.674C214.942 220.46 218.501 221.545 221.952 222.916C221.952 222.916 210.962 214.216 211.151 212.811C211.34 211.405 212.636 207.839 214.823 207.406C217.011 206.974 234.752 215.513 234.752 215.513L237.642 222.079L240.153 211.568C240.153 211.568 224.518 207.055 228.406 199.948Z" fill="#B78876"/>
<path d="M226.165 233.833C226.165 233.833 226.597 233.212 226.759 232.05C226.954 230.515 226.769 228.956 226.219 227.51C225.694 226.053 224.823 224.746 223.681 223.7C222.79 222.944 222.115 222.646 222.061 222.754C223.405 224.274 224.516 225.987 225.355 227.834C225.929 229.781 226.203 231.804 226.165 233.833Z" fill="#995037"/>
<path d="M234.7 230.699C234.363 229.147 234.12 227.577 233.971 225.997C233.868 224.222 233.532 222.469 232.971 220.782C232.614 219.777 232.053 218.857 231.324 218.08C230.526 217.245 229.56 216.591 228.489 216.161C224.195 214.621 220.388 213.459 217.498 212.432C215.997 211.853 214.441 211.427 212.854 211.162C214.269 211.927 215.751 212.561 217.282 213.054C219.983 214.108 223.925 215.513 228.084 217.026C229.086 217.374 230.006 217.926 230.784 218.647C231.444 219.355 231.95 220.192 232.269 221.106C232.809 222.718 233.163 224.386 233.323 226.078C233.371 227.712 233.846 229.305 234.7 230.699Z" fill="#995037"/>
<path d="M238.804 227.456C239.074 227.456 239.02 225.808 238.804 223.916C238.588 222.025 238.02 220.458 237.777 220.512C237.536 222.886 237.927 225.282 238.912 227.456H238.804Z" fill="#995037"/>
<path d="M235.537 190.869C237.61 190.869 239.29 189.188 239.29 187.113C239.29 185.039 237.61 183.357 235.537 183.357C233.464 183.357 231.783 185.039 231.783 187.113C231.783 189.188 233.464 190.869 235.537 190.869Z" fill="#FAFAFA"/>
<path d="M129.059 34.8486C138.996 61.8699 150.014 90.5395 173.156 107.806C170.132 108.52 166.95 108.067 164.245 106.536C169.692 114.514 173.992 123.219 177.018 132.395C179.718 141.61 179.367 152.067 174.317 160.146C173.696 159.119 173.075 158.093 172.481 157.066C175.15 167.012 174.569 177.552 170.823 187.144C167.077 196.737 160.362 204.878 151.661 210.379C144.073 214.972 133.92 217.188 126.466 212.351C120.796 208.649 118.122 201.921 115.8 195.598L70.1362 72.2731C65.8966 60.8161 61.6029 48.7105 63.7092 36.6861C64.9223 29.8441 68.1361 23.5158 72.944 18.5018C77.7519 13.4878 83.938 10.0133 90.7196 8.51783C97.5013 7.02237 104.574 7.57314 111.043 10.1005C117.511 12.6278 123.086 17.0181 127.061 22.7161" fill="#263238"/>
<path d="M155.552 186.195C155.833 185.963 156.086 185.7 156.308 185.411C157.003 184.665 157.643 183.87 158.225 183.033C160.314 179.896 161.848 176.422 162.762 172.765C164.101 167.322 164.403 161.675 163.653 156.12C162.661 149.353 160.725 142.758 157.901 136.53C155.011 129.882 151.771 123.776 148.99 118.182C146.474 113.241 144.238 108.162 142.293 102.969C141.004 99.4507 139.993 95.8369 139.268 92.1606C138.782 89.4585 138.62 88.1075 138.539 88.1345C138.509 88.4851 138.509 88.8377 138.539 89.1883C138.539 89.8909 138.701 90.9177 138.917 92.2147C139.493 95.891 140.397 99.5083 141.618 103.023C143.493 108.267 145.684 113.393 148.179 118.371C150.88 124.019 154.147 130.098 157.01 136.719C159.811 142.882 161.755 149.401 162.789 156.093C163.544 161.559 163.297 167.117 162.06 172.495C161.193 176.115 159.733 179.566 157.739 182.709C156.524 185.06 155.471 186.114 155.552 186.195Z" fill="#455A64"/>
<path d="M98.7344 19.5815C108.6 20.0398 117.91 24.2813 124.733 31.4259C131.556 38.5704 135.369 48.0694 135.379 57.9517C135.379 73.8402 135.163 91.1338 134.137 101.402C131.787 125.262 113.857 129.342 113.857 129.342C113.857 129.342 114.424 144.149 115.234 158.228C115.99 171.738 104.999 183.411 90.6872 184.573C76.5101 185.708 64.3583 175.98 63.3862 162.74L58.6065 59.7621C58.3566 54.4214 59.2232 49.0874 61.1511 44.101C63.0789 39.1147 66.0255 34.5858 69.8023 30.804C73.5792 27.0221 78.1032 24.0707 83.085 22.1382C88.0669 20.2058 93.397 19.335 98.7344 19.5815Z" fill="#B78876"/>
<path d="M126.899 67.2471C126.953 68.0286 126.701 68.8003 126.197 69.3999C125.694 69.9996 124.978 70.3805 124.199 70.4627C123.816 70.5157 123.425 70.4918 123.051 70.3923C122.677 70.2929 122.327 70.12 122.02 69.8835C121.713 69.6471 121.457 69.352 121.265 69.0153C121.074 68.6786 120.951 68.3072 120.905 67.9227C120.851 67.1382 121.102 66.3633 121.605 65.7593C122.108 65.1553 122.824 64.7687 123.605 64.6801C123.99 64.6272 124.383 64.6521 124.758 64.7532C125.134 64.8543 125.486 65.0296 125.793 65.2688C126.1 65.508 126.356 65.8063 126.546 66.146C126.736 66.4858 126.856 66.8602 126.899 67.2471Z" fill="#263238"/>
<path d="M129.87 63.6803C129.519 64.0856 127.169 62.5183 123.848 62.7345C120.526 62.9507 118.312 64.7071 117.934 64.3288C117.556 63.9505 118.096 63.4371 119.068 62.5994C120.428 61.5466 122.077 60.9339 123.794 60.843C125.486 60.7438 127.168 61.1785 128.6 62.086C129.654 62.7886 130.032 63.4911 129.87 63.6803Z" fill="#263238"/>
<path d="M92.9551 70.2463C93.0157 71.0322 92.7674 71.8108 92.2631 72.4164C91.7588 73.022 91.0382 73.4067 90.2547 73.4889C89.8713 73.5419 89.4811 73.518 89.1069 73.4185C88.7328 73.3191 88.3822 73.1462 88.0755 72.9097C87.7689 72.6733 87.5123 72.3782 87.3209 72.0415C87.1294 71.7048 87.0068 71.3334 86.9603 70.9489C86.9066 70.1644 87.1574 69.3895 87.6604 68.7855C88.1634 68.1815 88.8799 67.7949 89.6607 67.7063C90.0441 67.6533 90.4343 67.6772 90.8085 67.7766C91.1826 67.876 91.5332 68.049 91.8399 68.2854C92.1465 68.5219 92.4031 68.817 92.5945 69.1537C92.786 69.4903 92.9086 69.8618 92.9551 70.2463Z" fill="#263238"/>
<path d="M95.9254 66.8686C95.5744 67.301 93.225 65.7337 89.9036 65.9229C86.5821 66.112 84.3678 67.8954 83.9897 67.5171C83.6116 67.1388 84.1247 66.6254 85.1239 65.8148C86.4745 64.7414 88.1269 64.1178 89.8496 64.0314C91.5423 63.9322 93.2235 64.3669 94.6562 65.2744C95.7094 66.0039 96.0875 66.6795 95.9254 66.8686Z" fill="#263238"/>
<path d="M109.184 90.3771C110.868 89.739 112.63 89.33 114.423 89.1612C115.26 89.1612 116.016 88.8099 116.124 88.2154C116.141 87.3524 115.897 86.5045 115.422 85.7835C114.531 83.811 113.586 81.7573 112.722 79.5956C110.131 74.3706 107.955 68.9496 106.214 63.3829C109.237 68.3954 111.847 73.6458 114.018 79.0822L116.718 85.3241C117.313 86.2935 117.543 87.4431 117.366 88.5667C117.266 88.8686 117.096 89.143 116.871 89.3681C116.646 89.5932 116.372 89.7628 116.07 89.8637C115.615 90.0139 115.144 90.1135 114.666 90.1609C112.853 90.4398 111.014 90.5123 109.184 90.3771Z" fill="#263238"/>
<path d="M113.964 129.369C102.73 129.853 91.5621 127.404 81.5596 122.262C81.5596 122.262 90.3899 139.259 114.153 136.178L113.964 129.369Z" fill="#995037"/>
<path d="M85.1512 57.8165C85.5562 58.384 87.8516 57.3842 90.876 56.7357C93.9005 56.0872 96.2768 55.9251 96.5198 55.2495C96.7629 54.574 93.8194 53.5742 90.3359 54.3578C86.8524 55.1414 84.7461 57.2761 85.1512 57.8165Z" fill="#263238"/>
<path d="M117.448 51.9259C117.61 52.6014 120.284 52.4933 123.497 52.5474C126.711 52.6014 129.357 52.7365 129.546 52.088C129.735 51.4395 127.089 50.1425 123.524 50.1155C119.96 50.0884 117.286 51.3314 117.448 51.9259Z" fill="#263238"/>
<path d="M25.0391 164.578C25.0391 164.578 33.4373 147.906 28.1985 132.936C22.9598 117.966 24.9581 106.725 32.5192 100.834C37.92 96.7002 38.46 89.8638 37.92 84.4866C36.9807 75.4904 37.1803 66.4115 38.514 57.4654C40.6473 44.5222 44.4009 30.7684 52.178 20.5813C62.2235 7.23284 80.5052 -4.81864 95.6814 1.93667C102.756 5.07114 106.483 4.85497 113.693 11.5022C113.693 11.5022 120.471 11.9345 124.036 12.475C136.376 14.4205 144.37 27.5798 145.801 37.2264C149.257 59.4379 136.835 65.923 135.566 81.0549C135.566 81.0549 133.352 49.413 130.571 41.2796C128.287 35.3604 123.995 30.434 118.446 27.3637C109.318 28.2284 105.862 33.6056 102.918 42.2794C99.975 50.9532 98.3548 57.8166 91.1178 63.41C83.8807 69.0034 79.371 77.5962 66.8142 73.1107C64.5239 77.7738 63.6508 83.0068 64.3028 88.1615C65.653 95.8626 74.2133 97.9702 72.026 111.049C69.8386 124.127 61.8995 134.8 62.1155 139.691" fill="#263238"/>
<path d="M105.268 98.1594C104.691 97.5354 103.963 97.0708 103.154 96.8104C102.345 96.5501 101.483 96.5029 100.651 96.6733C100.057 96.772 99.4903 96.9907 98.9842 97.3159C98.4782 97.6411 98.0436 98.066 97.7071 98.5648C97.3565 99.0325 97.167 99.6014 97.167 100.186C97.167 100.771 97.3565 101.34 97.7071 101.807C98.1805 102.259 98.7774 102.559 99.4218 102.669C100.066 102.78 100.729 102.696 101.326 102.429C102.562 101.872 103.68 101.083 104.62 100.105C104.912 99.8687 105.151 99.5742 105.322 99.2403C105.422 99.0927 105.475 98.9186 105.475 98.7404C105.475 98.5622 105.422 98.3881 105.322 98.2405" fill="#995037"/>
<path d="M98.1125 94.0252C98.5446 94.0252 98.7606 96.9165 101.434 98.8079C104.107 100.699 107.186 100.132 107.24 100.537C107.294 100.943 106.592 101.159 105.269 101.294C103.552 101.438 101.839 100.969 100.435 99.9699C99.0442 99.0318 98.0752 97.5869 97.7345 95.9437C97.6265 94.7818 97.9505 94.0252 98.1125 94.0252Z" fill="#263238"/>
<path d="M50.4235 22.8242C45.9398 30.1467 40.8737 37.0956 35.2742 43.6036C29.2794 50.2238 23.3115 57.7897 22.8794 66.7067C22.5824 73.1648 25.2558 80.0012 22.6904 85.9459C20.4761 91.0529 15.1293 93.8361 11.1327 97.6731C7.63529 101.093 5.11888 105.389 3.84594 110.113C2.573 114.837 2.59017 119.817 3.89564 124.532C5.6239 130.504 9.45846 136.368 8.10826 142.447C6.92008 147.852 2.00537 151.553 0.520148 156.769C-0.965069 161.984 0.979216 167.037 3.22054 171.738C6.62304 178.872 11.6728 186.222 19.4229 187.951C22.0716 188.437 24.7934 188.35 27.4061 187.698C30.0188 187.046 32.462 185.842 34.5721 184.168C38.7891 180.807 42.2336 176.577 44.6716 171.765C49.6989 162.687 52.8058 152.671 53.799 142.339C54.9601 130.018 53.0969 117.642 51.8817 105.32C49.6808 82.7298 49.6808 59.9789 51.8817 37.3887C52.3947 31.9844 54.5821 26.5802 50.4775 22.8242" fill="#263238"/>
<path d="M72.1075 76.7316C72.1075 75.1644 67.9489 72.2731 66.3827 72.3001C62.7641 72.3001 56.9043 74.0835 56.8233 84.1084C56.6882 98.4297 70.3252 94.2144 70.3252 93.8091C71.3788 88.174 71.9748 82.4629 72.1075 76.7316Z" fill="#B78876"/>
<path d="M66.8682 88.3507C66.8682 88.3507 66.6252 88.5128 66.1931 88.702C65.8981 88.8261 65.5814 88.89 65.2614 88.89C64.9415 88.89 64.6247 88.8261 64.3298 88.702C63.4291 88.0949 62.7049 87.2602 62.2306 86.2826C61.7563 85.305 61.5489 84.2193 61.6294 83.1356C61.6091 81.9076 61.8579 80.6901 62.3585 79.5688C62.504 79.1276 62.7507 78.7267 63.079 78.3982C63.4073 78.0698 63.8079 77.8228 64.2488 77.6773C64.5073 77.6501 64.768 77.6996 64.9986 77.8198C65.2291 77.9399 65.4191 78.1253 65.545 78.3528C65.734 78.7582 65.545 79.0284 65.707 79.0554C65.869 79.0824 66.0041 78.8122 65.896 78.2177C65.821 77.8683 65.6308 77.5543 65.356 77.326C64.9603 77.0321 64.4689 76.8971 63.9788 76.9477C63.3766 77.0441 62.8102 77.297 62.3363 77.6811C61.8624 78.0652 61.4976 78.567 61.2784 79.1365C60.6468 80.3731 60.3313 81.7471 60.3602 83.1356C60.2808 84.4103 60.5792 85.6801 61.2182 86.7857C61.8571 87.8913 62.808 88.7836 63.9518 89.3505C64.3324 89.4623 64.733 89.4887 65.1251 89.428C65.5171 89.3673 65.891 89.2209 66.2201 88.9992C66.8412 88.702 66.9222 88.3777 66.8682 88.3507Z" fill="#995037"/>
<path d="M140.076 71.1921C139.897 70.3783 139.643 69.5825 139.32 68.8143C138.763 66.6328 138.473 64.3916 138.456 62.14C138.518 58.7524 138.834 55.3742 139.401 52.0341C140.116 47.9034 140.441 43.7148 140.374 39.5232C140.248 37.3271 139.84 35.1565 139.158 33.0651C138.473 31.1064 137.46 29.2789 136.161 27.6609C133.954 24.9617 131.09 22.8771 127.844 21.6081C125.682 20.7674 123.385 20.3279 121.066 20.3111C120.432 20.3062 119.799 20.3604 119.175 20.4732C118.96 20.4449 118.742 20.4449 118.527 20.4732C118.527 20.4732 119.445 20.4732 121.039 20.4732C123.849 20.628 126.595 21.3776 129.095 22.6725C131.594 23.9674 133.791 25.7781 135.54 27.9852C136.709 29.5409 137.62 31.2743 138.24 33.1192C138.896 35.1408 139.286 37.239 139.401 39.3611C139.453 43.5051 139.146 47.6458 138.483 51.7368C137.987 55.1812 137.78 58.661 137.862 62.14C137.917 64.4542 138.308 66.7481 139.023 68.9494C139.32 69.706 139.59 70.3004 139.779 70.6787L140.076 71.1921Z" fill="#455A64"/>
<path d="M58.5253 92.8361C58.5253 92.8361 58.0932 93.2144 57.6072 94.0521C56.8926 95.2814 56.5283 96.6833 56.554 98.1053C56.6086 99.1874 56.9184 100.241 57.4582 101.181C57.9979 102.12 58.7523 102.918 59.6595 103.51C60.7302 104.266 61.9736 104.742 63.2758 104.893C64.578 105.044 65.8972 104.866 67.1126 104.374C68.3138 103.823 69.3498 102.967 70.1173 101.891C70.8849 100.815 71.3572 99.5561 71.4872 98.2404C71.6346 97.0772 71.4472 95.896 70.9471 94.8357C70.4981 93.945 69.8626 93.1617 69.0838 92.5389C67.9822 91.636 66.6179 91.1146 65.1953 91.0527C64.6791 91.0138 64.161 91.0971 63.6831 91.2959C63.6831 91.2959 64.2231 91.2959 65.1683 91.2959C66.4861 91.469 67.7249 92.0231 68.7328 92.8901C69.4698 93.5127 70.0443 94.3055 70.4066 95.2C70.7689 96.0945 70.908 97.0638 70.8121 98.0242C70.6654 99.1851 70.2268 100.29 69.5372 101.235C68.8477 102.18 67.9298 102.935 66.8695 103.428C65.7837 103.884 64.6025 104.066 63.43 103.958C62.2575 103.849 61.1295 103.454 60.1455 102.807C59.3287 102.287 58.6397 101.59 58.13 100.766C57.6203 99.9426 57.3031 99.0145 57.2021 98.0512C57.1414 96.7183 57.4104 95.3911 57.9852 94.1872C58.1894 93.7468 58.3697 93.2958 58.5253 92.8361Z" fill="#E8505B"/>
<path d="M23.1504 84.7298C23.1543 84.3064 23.2273 83.8866 23.3664 83.4868C23.7393 82.3455 24.2185 81.2418 24.7976 80.1902C27.0494 76.358 30.1315 73.08 33.817 70.5976C36.3751 68.8354 39.2876 67.6549 42.3502 67.1389C45.8054 66.5949 49.3089 66.4228 52.8007 66.6255C56.5887 66.8677 60.3898 66.8135 64.1694 66.4634C68.1532 65.9712 71.9698 64.5656 75.322 62.3562C78.6112 59.9562 81.7579 57.3668 84.7464 54.6011C87.7762 52.25 90.498 49.5264 92.8476 46.4947C97.3573 40.7121 101.651 35.6862 104.945 31.3087C107.621 27.9009 110.022 24.2868 112.128 20.5002C113.479 17.8522 114.154 16.2039 114.154 16.2039C114.104 16.6197 114.004 17.028 113.857 17.4198C113.614 18.2034 113.155 19.3113 112.533 20.7434C110.58 24.6727 108.276 28.4169 105.647 31.9302C102.407 36.4428 98.1674 41.5228 93.7657 47.3053C91.4236 50.3914 88.7017 53.1695 85.6646 55.5738C82.6532 58.401 79.4599 61.0277 76.1051 63.437C72.5792 65.7734 68.5569 67.2538 64.3584 67.7604C60.5121 68.0699 56.6471 68.0699 52.8007 67.7604C49.3854 67.5255 45.9549 67.6523 42.5662 68.1387C39.67 68.5808 36.9051 69.6506 34.465 71.2732C30.8316 73.6083 27.7308 76.6835 25.3647 80.2983C24.5147 81.7168 23.7745 83.1983 23.1504 84.7298Z" fill="#455A64"/>
<path d="M100.11 183.33C105.241 167.55 117.852 151.445 131.705 157.255C147.097 163.713 151.391 171.9 159.843 184.6C168.295 197.3 173.345 211.811 178.557 226.159C180.555 231.779 190.979 257.531 187.927 262.665C185.227 267.069 159.087 300.062 154.118 301.386C141.291 304.818 140.616 257.233 127.519 259.665C122.281 260.638 116.529 261.449 111.911 258.828C106.024 255.477 104.242 248.019 103 241.372C98.7151 218.062 94.4124 194.751 90.0918 171.441" fill="#ED5243"/>
<path d="M114.152 150.932L134.405 159.66C144.667 167.766 147.556 181.574 147.205 194.598L154.955 302.683L155.631 340.054C155.631 340.054 95.9518 372.479 29.279 330.488L40.3776 301.008L20.1787 230.753C18.7205 220.485 17.8293 199.246 20.5027 189.167C27.3617 163.281 45.7244 155.526 64.5462 150.364C64.5462 150.364 83.4489 166.172 101.785 162.848C101.893 162.848 113.099 161.794 114.152 150.932Z" fill="#ED5243"/>
<g opacity="0.2">
<path opacity="0.2" d="M142.129 268.555L107.024 319.409C102.46 326.057 97.7074 332.92 90.8214 337.189C85.8242 340.279 80.0544 341.888 74.1806 341.831C68.3068 341.773 62.5695 340.052 57.6335 336.865C47.9121 330.353 39.2709 312.897 41.4312 301.359C41.6742 300.008 46.2919 302.521 46.2919 302.521C47.094 301.805 48.0744 301.319 49.1296 301.115C50.1848 300.91 51.2756 300.995 52.2868 301.359C54.2943 302.132 56.2208 303.1 58.0386 304.25C69.0292 310.087 83.0173 306.952 93.3598 299.954C103.702 292.955 111.29 282.741 119.203 273.095C121.841 269.281 125.449 266.24 129.653 264.286C133.974 262.692 139.726 263.989 141.562 268.231" fill="black"/>
</g>
<path d="M81.7491 257.855L84.8276 269.744L146.316 224.862L165.218 198.084C167.741 194.492 171.553 192.013 175.858 191.167C178.11 190.715 180.431 190.721 182.681 191.185C184.931 191.649 187.065 192.562 188.955 193.869L206.48 206.326C206.48 206.326 205.967 215.891 201.701 214C197.434 212.108 188.901 207.406 188.901 207.406L186.551 230.077L176.263 237.778L165.839 245.885L96.2232 314.681C92.7437 318.129 88.4977 320.705 83.8327 322.196C79.1677 323.688 74.216 324.053 69.3828 323.262C64.5495 322.472 59.972 320.548 56.0245 317.647C52.0771 314.747 48.8718 310.952 46.671 306.574L36.3555 277.31L81.7491 257.855Z" fill="#B78876"/>
<path d="M86.3114 268.069C86.3114 268.069 85.1232 268.339 83.746 269.663C81.9754 271.414 80.7231 273.621 80.1275 276.04C79.5622 278.41 79.3439 280.849 79.4794 283.282C79.4257 284.294 79.5444 285.309 79.8305 286.281C80.076 285.301 80.1761 284.291 80.1275 283.282C80.1939 280.915 80.5016 278.561 81.0457 276.256C81.6233 274.024 82.704 271.953 84.2051 270.204C85.3933 268.771 86.3924 268.204 86.3114 268.069Z" fill="#995037"/>
<path d="M189.009 208.568C189.009 208.568 188.82 207.784 188.09 206.731C187.15 205.302 185.792 204.198 184.202 203.569C183.363 203.284 182.464 203.221 181.593 203.387C180.722 203.553 179.909 203.941 179.233 204.515C178.207 205.488 178.261 206.46 178.342 206.433C178.423 206.406 178.72 205.704 179.638 205.028C180.256 204.62 180.959 204.357 181.693 204.259C182.427 204.161 183.174 204.23 183.878 204.461C185.315 205.041 186.587 205.97 187.577 207.163C188.414 208.055 188.901 208.649 189.009 208.568Z" fill="#995037"/>
<path d="M177.99 214.621C177.99 214.621 178.584 214.297 179.422 213.837C180.498 213.215 181.716 212.879 182.959 212.865C184.203 212.899 185.418 213.243 186.497 213.864C187.334 214.324 187.793 214.756 187.901 214.675C188.009 214.594 187.685 214 186.848 213.324C185.745 212.437 184.374 211.951 182.959 211.946C181.545 211.954 180.172 212.418 179.044 213.27C178.206 213.946 177.909 214.567 177.99 214.621Z" fill="#995037"/>
<path d="M57.7418 151.77C43.9157 157.579 29.4956 163.767 19.9362 175.332C10.3768 186.897 6.81232 203.029 7.51442 218.242C8.21653 233.455 8.13552 247.695 12.5372 262.259C14.2384 267.988 17.9379 281.904 20.9624 288.173C24.5269 295.306 41.2424 302.926 49.3435 302.629C62.6025 302.305 68.9484 277.283 80.9112 271.555C85.7179 269.231 93.171 259.179 95.3313 254.315C98.0317 248.154 89.9305 236.481 86.987 230.401L55.9595 166.496" fill="#ED5243"/>
<path d="M83.3677 270.014C83.3677 270.014 83.3677 269.609 83.7457 268.853C84.1846 267.799 84.4755 266.69 84.6098 265.556C84.6314 264.69 84.4721 263.83 84.1419 263.029C83.8117 262.229 83.3181 261.507 82.6926 260.908C81.8148 260.198 80.7892 259.693 79.6911 259.432C78.593 259.17 77.4502 259.157 76.3466 259.395H75.8336V258.882C75.0753 253.91 73.3898 249.125 70.8648 244.777C67.874 239.556 63.726 235.091 58.7401 231.725C53.1805 228.146 47.0113 225.618 40.5394 224.267C35.2876 223.076 29.9522 222.29 24.5801 221.917C19.9894 221.592 16.2628 221.619 13.7785 221.673C12.4389 221.767 11.0945 221.767 9.75488 221.673C11.0582 221.318 12.4008 221.128 13.7515 221.106C17.398 220.807 21.0596 220.735 24.7151 220.89C30.164 221.134 35.5834 221.83 40.9174 222.97C47.515 224.296 53.8069 226.844 59.4692 230.482C64.6257 233.949 68.8985 238.576 71.945 243.993C74.5135 248.497 76.1655 253.465 76.8057 258.611L76.2116 258.152C77.482 257.912 78.7906 257.967 80.0362 258.314C81.2818 258.66 82.431 259.289 83.3947 260.152C84.0876 260.858 84.6162 261.708 84.943 262.643C85.2697 263.577 85.3865 264.571 85.2849 265.556C85.0992 266.741 84.7061 267.885 84.1238 268.934C83.6377 269.69 83.4217 270.041 83.3677 270.014Z" fill="#263238"/>
<path d="M53.7725 280.769C56.5549 276.233 60.0363 272.166 64.088 268.717C67.8259 264.965 72.1263 261.82 76.8338 259.395C77.0769 259.746 71.4331 263.908 65.0331 269.852C58.6332 275.797 54.0965 281.012 53.7725 280.769Z" fill="#263238"/>
<g opacity="0.3">
<path opacity="0.3" d="M76.1863 258.395C70.6038 260.415 65.3317 263.207 60.524 266.691C55.6686 270.201 52.3284 275.427 51.1807 281.309L56.2844 276.635C62.9273 270.255 70.0404 264.383 77.5635 259.071" fill="black"/>
</g>
<path d="M147.638 222.727C147.635 220.946 147.955 219.179 148.583 217.512C149.864 213.441 151.518 209.497 153.525 205.731C158.115 196.868 163.3 190.518 163.678 190.869C162.899 192.443 161.996 193.952 160.978 195.382C159.276 198.084 157.035 202.029 154.74 206.379C152.79 210.102 151.042 213.927 149.501 217.837C149.025 219.518 148.401 221.155 147.638 222.727Z" fill="#263238"/>
<path d="M155.74 331.461C155.473 330.511 155.336 329.529 155.335 328.542C155.146 326.678 154.957 323.976 154.795 320.625C154.444 313.897 154.174 304.629 154.12 294.388C154.066 284.147 154.12 274.851 154.444 268.123C154.444 264.772 154.66 262.07 154.795 260.179C154.769 259.205 154.878 258.232 155.119 257.287C155.316 258.247 155.389 259.228 155.335 260.206C155.335 262.394 155.335 265.043 155.335 268.15C155.335 275.203 155.335 284.363 155.335 294.361C155.335 304.358 155.524 313.519 155.578 320.571C155.578 323.679 155.578 326.354 155.578 328.515C155.756 329.486 155.81 330.476 155.74 331.461Z" fill="#263238"/>
<path d="M131.031 215.269C130.347 212.957 129.824 210.601 129.465 208.217C128.943 205.856 128.574 203.464 128.357 201.056C129.056 203.348 129.588 205.687 129.951 208.055C130.474 210.432 130.835 212.843 131.031 215.269Z" fill="#EBEBEB"/>
<path d="M135.407 205.704C133.694 206.641 131.883 207.385 130.006 207.92C128.204 208.623 126.329 209.121 124.416 209.406C126.178 208.656 127.981 208.007 129.817 207.46C131.64 206.755 133.507 206.168 135.407 205.704Z" fill="#EBEBEB"/>
<path d="M127.33 213.459C127.872 211.607 128.558 209.8 129.382 208.055C130.051 206.184 130.882 204.376 131.867 202.65C131.35 204.56 130.673 206.422 129.841 208.217C129.15 210.03 128.31 211.784 127.33 213.459Z" fill="#EBEBEB"/>
<path d="M135.351 212.216C133.459 211.171 131.653 209.979 129.95 208.649C128.19 207.459 126.52 206.14 124.954 204.704C126.853 205.736 128.66 206.93 130.355 208.271C132.115 209.461 133.785 210.78 135.351 212.216Z" fill="#EBEBEB"/>
<path d="M147.07 298.441C146.383 296.119 145.85 293.754 145.477 291.361C144.955 289.011 144.594 286.627 144.396 284.228C145.08 286.54 145.603 288.896 145.963 291.28C146.502 293.638 146.872 296.031 147.07 298.441Z" fill="#EBEBEB"/>
<path d="M151.419 288.875C149.703 289.806 147.892 290.548 146.018 291.091C144.224 291.789 142.358 292.287 140.455 292.577C142.21 291.801 144.014 291.142 145.856 290.605C147.672 289.913 149.53 289.335 151.419 288.875Z" fill="#EBEBEB"/>
<path d="M143.371 296.712C143.897 294.858 144.574 293.05 145.396 291.307C146.078 289.442 146.909 287.635 147.881 285.903C147.364 287.813 146.687 289.675 145.855 291.469C145.164 293.279 144.333 295.031 143.371 296.712Z" fill="#EBEBEB"/>
<path d="M151.364 295.388C149.474 294.34 147.669 293.147 145.963 291.821C144.258 290.627 142.65 289.298 141.156 287.849C143.046 288.896 144.851 290.089 146.557 291.415C148.256 292.617 149.863 293.945 151.364 295.388Z" fill="#EBEBEB"/>
<path d="M170.079 265.556C169.378 263.247 168.846 260.89 168.485 258.503C167.963 256.144 167.602 253.752 167.405 251.343C168.075 253.667 168.598 256.032 168.972 258.422C169.478 260.777 169.847 263.159 170.079 265.556Z" fill="#EBEBEB"/>
<path d="M174.425 255.99C172.713 256.928 170.901 257.671 169.024 258.206C167.221 258.91 165.347 259.417 163.435 259.719C165.193 258.954 166.997 258.295 168.835 257.747C170.664 257.056 172.53 256.47 174.425 255.99Z" fill="#EBEBEB"/>
<path d="M166.352 263.854C166.9 261.951 167.586 260.09 168.404 258.287C169.086 256.422 169.916 254.615 170.888 252.883C170.372 254.792 169.694 256.655 168.863 258.449C168.179 260.318 167.339 262.126 166.352 263.854Z" fill="#EBEBEB"/>
<path d="M174.372 262.53C172.481 261.485 170.675 260.292 168.971 258.963C167.207 257.769 165.537 256.441 163.976 254.991C165.867 256.035 167.673 257.228 169.376 258.557C171.141 259.752 172.811 261.08 174.372 262.53Z" fill="#EBEBEB"/>
<path d="M138.455 184.114C137.77 181.793 137.247 179.428 136.889 177.034C136.357 174.674 135.978 172.283 135.755 169.874C136.45 172.194 136.982 174.559 137.348 176.953C137.88 179.312 138.25 181.705 138.455 184.114Z" fill="#EBEBEB"/>
<path d="M142.696 174.548C140.977 175.472 139.167 176.215 137.295 176.764C135.492 177.464 133.617 177.962 131.705 178.25C133.464 177.484 135.268 176.826 137.106 176.278C138.927 175.572 140.795 174.995 142.696 174.548Z" fill="#EBEBEB"/>
<path d="M134.621 182.385C135.155 180.477 135.841 178.616 136.673 176.818C137.343 174.948 138.175 173.14 139.158 171.414C138.639 173.314 137.962 175.167 137.132 176.953C136.45 178.832 135.61 180.649 134.621 182.385Z" fill="#EBEBEB"/>
<path d="M142.642 181.033C140.75 179.989 138.944 178.796 137.241 177.467C135.477 176.272 133.806 174.944 132.245 173.494C134.137 174.539 135.942 175.732 137.646 177.061C139.41 178.256 141.08 179.583 142.642 181.033Z" fill="#EBEBEB"/>
<path d="M107.563 242.426C106.903 240.102 106.398 237.737 106.051 235.346C105.512 232.989 105.142 230.596 104.943 228.185C105.631 230.507 106.163 232.873 106.537 235.265C107.041 237.626 107.384 240.018 107.563 242.426Z" fill="#EBEBEB"/>
<path d="M111.939 232.86C110.217 233.778 108.408 234.52 106.538 235.076C104.735 235.776 102.86 236.274 100.948 236.562C102.705 235.791 104.509 235.132 106.349 234.59C108.169 233.88 110.037 233.302 111.939 232.86Z" fill="#EBEBEB"/>
<path d="M103.864 240.696C104.378 238.769 105.055 236.888 105.89 235.076C106.587 233.213 107.426 231.406 108.401 229.672C107.872 231.581 107.186 233.443 106.349 235.238C105.683 237.127 104.852 238.954 103.864 240.696Z" fill="#EBEBEB"/>
<path d="M111.885 239.372C109.993 238.328 108.187 237.135 106.484 235.806C104.72 234.611 103.05 233.284 101.488 231.834C103.38 232.878 105.186 234.071 106.889 235.4C108.653 236.595 110.324 237.923 111.885 239.372Z" fill="#EBEBEB"/>
<path d="M112.559 319.436C111.876 317.124 111.352 314.768 110.993 312.384C110.454 310.026 110.084 307.633 109.886 305.223C110.571 307.536 111.103 309.892 111.479 312.276C112 314.635 112.361 317.028 112.559 319.436Z" fill="#EBEBEB"/>
<path d="M116.854 309.871C115.142 310.808 113.33 311.552 111.453 312.087C109.644 312.772 107.771 313.279 105.863 313.6C107.62 312.829 109.424 312.17 111.264 311.627C113.087 310.922 114.955 310.335 116.854 309.871Z" fill="#EBEBEB"/>
<path d="M108.752 317.734C109.978 314.017 111.495 310.403 113.289 306.925C112.832 308.785 112.218 310.602 111.452 312.357C110.713 314.226 109.81 316.025 108.752 317.734Z" fill="#EBEBEB"/>
<path d="M116.854 316.41C114.962 315.366 113.156 314.173 111.453 312.843C109.688 311.649 108.018 310.321 106.457 308.871C108.348 309.916 110.154 311.108 111.858 312.438C113.622 313.632 115.292 314.96 116.854 316.41Z" fill="#EBEBEB"/>
<path d="M139.05 338.459C138.365 336.146 137.833 333.79 137.457 331.407C136.936 329.047 136.575 326.655 136.377 324.246C137.06 326.558 137.584 328.915 137.943 331.299C138.464 333.66 138.834 336.051 139.05 338.459Z" fill="#EBEBEB"/>
<path d="M143.4 328.894C141.688 329.831 139.876 330.574 137.999 331.109C136.19 331.798 134.318 332.305 132.409 332.623C134.168 331.857 135.972 331.198 137.81 330.65C139.633 329.944 141.501 329.358 143.4 328.894Z" fill="#EBEBEB"/>
<path d="M135.323 336.757C135.872 334.854 136.558 332.994 137.376 331.191C138.057 329.326 138.888 327.518 139.86 325.786C139.343 327.696 138.666 329.558 137.835 331.353C137.151 333.222 136.311 335.03 135.323 336.757Z" fill="#EBEBEB"/>
<path d="M143.344 335.406C141.45 334.366 139.644 333.173 137.943 331.839C136.221 330.644 134.587 329.326 133.056 327.894C134.947 328.939 136.753 330.131 138.456 331.461C140.179 332.655 141.813 333.974 143.344 335.406Z" fill="#EBEBEB"/>
<path d="M88.3111 348.565C87.6104 346.256 87.0779 343.899 86.7179 341.513C86.1951 339.153 85.8342 336.761 85.6377 334.352C86.3229 336.673 86.8463 339.038 87.2039 341.432C87.7239 343.784 88.0937 346.166 88.3111 348.565Z" fill="#EBEBEB"/>
<path d="M92.5502 338.865C90.8379 339.802 89.0265 340.545 87.1494 341.08C85.3507 341.799 83.4749 342.307 81.5596 342.594C83.3185 341.828 85.122 341.169 86.9604 340.621C88.789 339.931 90.6553 339.344 92.5502 338.865Z" fill="#EBEBEB"/>
<path d="M84.584 346.728C85.1325 344.825 85.8184 342.965 86.6363 341.161C87.3181 339.296 88.1489 337.489 89.1207 335.757C88.6041 337.667 87.9266 339.529 87.0954 341.324C86.4118 343.193 85.5717 345 84.584 346.728Z" fill="#EBEBEB"/>
<path d="M92.549 345.404C90.6575 344.359 88.8516 343.167 87.1482 341.837C85.4359 340.601 83.82 339.237 82.3145 337.757C84.2059 338.801 86.0118 339.994 87.7152 341.324C89.4275 342.559 91.0434 343.923 92.549 345.404Z" fill="#EBEBEB"/>
<path d="M44.9146 332.812C44.2311 330.5 43.7078 328.143 43.3484 325.759C42.8095 323.402 42.4396 321.009 42.2412 318.599C42.9284 320.921 43.4607 323.286 43.8344 325.678C44.3542 328.029 44.715 330.412 44.9146 332.812Z" fill="#EBEBEB"/>
<path d="M49.3441 323.246C47.6319 324.184 45.8204 324.927 43.9433 325.462C42.1435 326.177 40.2682 326.685 38.3535 326.975C40.1102 326.204 41.9141 325.545 43.7543 325.003C45.583 324.312 47.4492 323.726 49.3441 323.246Z" fill="#EBEBEB"/>
<path d="M41.2422 331.11C41.7613 329.197 42.448 327.335 43.2945 325.543C43.9627 323.672 44.794 321.864 45.7789 320.139C45.2598 322.051 44.573 323.914 43.7266 325.705C43.0584 327.576 42.227 329.384 41.2422 331.11Z" fill="#EBEBEB"/>
<path d="M49.3438 329.786C47.4523 328.741 45.6465 327.548 43.943 326.219C42.1787 325.024 40.5085 323.697 38.9473 322.247C40.8387 323.291 42.6446 324.484 44.3481 325.813C46.1124 327.008 47.7825 328.336 49.3438 329.786Z" fill="#EBEBEB"/>
<path d="M104.54 189.734C103.856 187.422 103.333 185.066 102.973 182.682C102.44 180.36 102.07 178.003 101.866 175.629C102.519 177.917 103.015 180.246 103.351 182.601C103.916 184.947 104.313 187.331 104.54 189.734Z" fill="#EBEBEB"/>
<path d="M108.888 180.169C107.178 181.112 105.366 181.855 103.487 182.385C101.678 183.07 99.8055 183.577 97.8975 183.898C99.652 183.121 101.456 182.462 103.298 181.925C105.127 181.236 106.994 180.65 108.888 180.169Z" fill="#EBEBEB"/>
<path d="M100.84 188.032C101.356 186.123 102.034 184.26 102.865 182.466C103.549 180.597 104.389 178.789 105.377 177.061C104.853 178.977 104.176 180.848 103.351 182.655C102.673 184.517 101.833 186.317 100.84 188.032Z" fill="#EBEBEB"/>
<path d="M108.752 186.708C106.861 185.663 105.055 184.471 103.351 183.141C101.587 181.947 99.9167 180.619 98.3555 179.169C100.242 180.221 102.048 181.414 103.756 182.736C105.521 183.93 107.191 185.258 108.752 186.708Z" fill="#EBEBEB"/>
<path d="M28.063 211.622C27.3624 209.312 26.8299 206.955 26.4698 204.569C25.949 202.209 25.5881 199.817 25.3896 197.408C26.0731 199.721 26.5964 202.077 26.9559 204.461C27.477 206.822 27.8468 209.214 28.063 211.622Z" fill="#EBEBEB"/>
<path d="M32.4115 202.056C30.6993 202.994 28.8878 203.737 27.0107 204.272C25.2021 204.96 23.3296 205.467 21.4209 205.785C23.1798 205.019 24.9833 204.36 26.8217 203.812C28.6451 203.107 30.5123 202.52 32.4115 202.056Z" fill="#EBEBEB"/>
<path d="M24.3379 209.919C24.8864 208.016 25.5723 206.156 26.3902 204.353C27.072 202.488 27.9028 200.68 28.8746 198.949C28.358 200.858 27.6805 202.72 26.8493 204.515C26.1657 206.384 25.3256 208.192 24.3379 209.919Z" fill="#EBEBEB"/>
<path d="M32.3584 208.568C30.4716 207.516 28.6663 206.324 26.9576 205.001C25.1977 203.811 23.528 202.492 21.9619 201.056C23.8534 202.101 25.6593 203.294 27.3627 204.623C29.1226 205.813 30.7924 207.132 32.3584 208.568Z" fill="#EBEBEB"/>
<path d="M75.0777 230.347C74.4398 228.032 73.9616 225.676 73.6465 223.295C73.0635 220.949 72.6483 218.566 72.4043 216.161C73.0915 218.483 73.6238 220.848 73.9975 223.241C74.518 225.582 74.8789 227.957 75.0777 230.347Z" fill="#EBEBEB"/>
<path d="M79.4525 220.782C77.7403 221.719 75.9288 222.462 74.0517 222.997C72.2422 223.683 70.37 224.19 68.4619 224.511C70.2186 223.739 72.0225 223.08 73.8627 222.538C75.6914 221.848 77.5576 221.261 79.4525 220.782Z" fill="#EBEBEB"/>
<path d="M71.3789 228.645C71.898 226.733 72.5847 224.87 73.4312 223.079C74.0994 221.208 74.9307 219.399 75.9156 217.674C75.3965 219.587 74.7097 221.449 73.8633 223.241C73.1951 225.112 72.3638 226.92 71.3789 228.645Z" fill="#EBEBEB"/>
<path d="M79.3995 227.321C77.508 226.276 75.7021 225.084 73.9987 223.754C72.2343 222.56 70.5642 221.232 69.0029 219.782C70.8944 220.826 72.7003 222.019 74.4037 223.349C76.168 224.543 77.8382 225.871 79.3995 227.321Z" fill="#EBEBEB"/>
<path d="M29.6587 252.288C28.9715 249.967 28.4393 247.601 28.0655 245.209C27.5438 242.858 27.1829 240.475 26.9854 238.075C27.6688 240.387 28.1921 242.744 28.5516 245.128C29.0745 247.488 29.4444 249.88 29.6587 252.288Z" fill="#EBEBEB"/>
<path d="M34.0043 242.723C32.2857 243.647 30.4757 244.39 28.6035 244.939C26.8016 245.642 24.9266 246.14 23.0137 246.425C24.7726 245.659 26.5761 245.001 28.4145 244.453C30.2407 243.763 32.1075 243.185 34.0043 242.723Z" fill="#EBEBEB"/>
<path d="M25.9307 250.559C26.4879 248.712 27.1737 246.906 27.983 245.155C28.6648 243.29 29.4956 241.482 30.4673 239.751C29.9508 241.66 29.2733 243.522 28.442 245.317C27.7484 247.13 26.9085 248.883 25.9307 250.559Z" fill="#EBEBEB"/>
<path d="M33.9512 249.235C32.0644 248.183 30.259 246.991 28.5504 245.668C26.7861 244.474 25.1159 243.146 23.5547 241.696C25.4461 242.741 27.252 243.933 28.9555 245.263C30.7198 246.457 32.3899 247.785 33.9512 249.235Z" fill="#EBEBEB"/>
<path d="M57.9839 261.584C57.3005 259.272 56.7772 256.915 56.4177 254.531C55.8789 252.174 55.5089 249.781 55.3105 247.371C55.9977 249.693 56.53 252.058 56.9038 254.45C57.4255 256.801 57.7864 259.184 57.9839 261.584Z" fill="#EBEBEB"/>
<path d="M62.3588 252.018C60.6438 252.95 58.833 253.693 56.958 254.234C55.1531 254.934 53.2795 255.441 51.3682 255.747C53.1227 254.971 54.9269 254.312 56.769 253.775C58.5961 253.08 60.4626 252.493 62.3588 252.018Z" fill="#EBEBEB"/>
<path d="M54.2852 259.881C54.8017 257.972 55.4792 256.11 56.3105 254.315C56.994 252.446 57.8341 250.638 58.8218 248.911C58.288 250.818 57.6017 252.68 56.7695 254.477C56.1013 256.348 55.27 258.156 54.2852 259.881Z" fill="#EBEBEB"/>
<path d="M62.3045 258.557C60.413 257.513 58.6071 256.32 56.9037 254.991C55.1859 253.791 53.561 252.463 52.043 251.019C53.9298 252.071 55.7351 253.263 57.4438 254.585C59.1615 255.785 60.7864 257.113 62.3045 258.557Z" fill="#EBEBEB"/>
<path d="M39.8648 288.335C39.1795 286.014 38.6562 283.649 38.2986 281.255C37.7767 278.904 37.4069 276.521 37.1914 274.122C37.8768 276.435 38.4091 278.791 38.7846 281.174C39.3074 283.534 39.6683 285.926 39.8648 288.335Z" fill="#EBEBEB"/>
<path d="M44.2396 278.769C42.521 279.693 40.711 280.436 38.8388 280.985C37.0358 281.685 35.1612 282.183 33.249 282.471C35.0059 281.708 36.8098 281.058 38.6498 280.526C40.4732 279.82 42.3404 279.233 44.2396 278.769Z" fill="#EBEBEB"/>
<path d="M36.165 286.633C36.6793 284.719 37.3662 282.856 38.2173 281.066C38.8855 279.195 39.7168 277.387 40.7017 275.662C40.1826 277.574 39.4959 279.437 38.6494 281.228C37.9676 283.094 37.1368 284.901 36.165 286.633Z" fill="#EBEBEB"/>
<path d="M44.1856 285.282C42.2941 284.237 40.4883 283.044 38.7848 281.715C37.0205 280.521 35.3503 279.193 33.7891 277.743C35.6805 278.787 37.4864 279.98 39.1899 281.309C40.9542 282.504 42.6243 283.832 44.1856 285.282Z" fill="#EBEBEB"/>
<path d="M71.8915 110.427C69.8088 114.22 68.753 118.492 68.8288 122.82C68.9045 127.147 70.1093 131.379 72.3236 135.097C75.321 139.934 79.9927 143.717 82.2881 148.932C84.9884 155.309 83.8273 162.605 82.9901 169.495C82.153 176.386 82.045 184.114 86.4467 189.491C88.2829 191.734 90.7673 193.355 92.6576 195.598C93.6949 196.639 94.4039 197.963 94.6968 199.404C94.9896 200.845 94.8533 202.34 94.3048 203.704C93.1563 205.396 91.4423 206.622 89.4711 207.163C82.3523 209.701 74.6369 210.045 67.3205 208.152C60.0041 206.26 53.4225 202.216 48.4251 196.544L47.3179 203.92C37.9982 195.842 31.7214 184.817 29.5305 172.675C27.3395 160.534 29.3663 148.007 35.2742 137.178" fill="#263238"/>
</svg>
