<?xml version="1.0" encoding="UTF-8"?>
<svg xmlns="http://www.w3.org/2000/svg" xmlns:xlink="http://www.w3.org/1999/xlink" viewBox="0 0 96 96" width="96px" height="96px">
<g id="surface30080018">
<path style=" stroke:none;fill-rule:nonzero;fill:rgb(20.392157%,59.607846%,85.882354%);fill-opacity:1;" d="M 48 0.398438 C 21.710938 0.398438 0.398438 21.710938 0.398438 48 C 0.398438 71.863281 17.980469 91.566406 40.882812 95.007812 L 40.882812 60.613281 L 29.109375 60.613281 L 29.109375 48.101562 L 40.882812 48.101562 L 40.882812 39.773438 C 40.882812 25.988281 47.601562 19.941406 59.058594 19.941406 C 64.546875 19.941406 67.445312 20.34375 68.820312 20.53125 L 68.820312 31.449219 L 61.003906 31.449219 C 56.140625 31.449219 54.441406 36.0625 54.441406 41.261719 L 54.441406 48.101562 L 68.695312 48.101562 L 66.765625 60.613281 L 54.445312 60.613281 L 54.445312 95.109375 C 77.679688 91.964844 95.601562 72.09375 95.601562 48 C 95.601562 21.710938 74.289062 0.398438 48 0.398438 Z M 48 0.398438 "/>
</g>
</svg>
