<svg width="714" height="324" viewBox="0 0 714 324" fill="none" xmlns="http://www.w3.org/2000/svg">
<g clip-path="url(#clip0)">
<path d="M149.97 45.82H30.05V390.5H149.97V45.82Z" fill="#D4D6F9"/>
<path d="M503.53 0H383.61V390.5H503.53V0Z" fill="#D4D6F9"/>
<path d="M336.37 91.7H216.45V390.51H336.37V91.7Z" fill="#D4D6F9"/>
<path d="M683.01 146.56H563.09V390.5H683.01V146.56Z" fill="#D4D6F9"/>
<path d="M63 111C63 111 101.44 106.85 98.71 156C95.98 205.15 101.18 210.53 101.18 210.53C101.18 210.53 24.25 214.25 14.43 183.13C4.61 152.01 23.2 106.82 63 111Z" fill="#222221"/>
<path d="M187.9 108.81C187.9 108.81 227.22 104.34 234.9 141.26C242.58 178.18 268.63 197.26 242.31 220.89C215.99 244.52 170.11 242.6 170.11 242.6C160.446 235.447 153.173 225.537 149.246 214.173C145.319 202.809 144.923 190.523 148.11 178.93C150.172 171.611 151.788 164.174 152.95 156.66C154.42 146.09 140.7 111.56 187.9 108.81Z" fill="#271E6D"/>
<path d="M149.49 272L167 263.78L173.14 283.13C173.14 283.13 167.14 286.95 155.29 285.51L149.49 272Z" fill="#BC6F63"/>
<path d="M40.94 157.59C40.94 157.59 29.53 143.43 24.2 153.48C18.87 163.53 29.68 177.07 43.84 170.22L40.94 157.59Z" fill="#E8AF8E"/>
<path d="M24.6 164C25.0761 165.06 25.8012 165.988 26.7136 166.708C27.6259 167.427 28.6985 167.915 29.84 168.13C35.84 169.04 39.16 161.28 37.99 154.45C39.038 155.423 40.0233 156.462 40.94 157.56L43.84 170.19C31.77 176.03 22.14 167.05 22.84 158.05C23.1468 160.106 23.7392 162.108 24.6 164Z" fill="#CF866B"/>
<path d="M33 164.2C32.9866 162.75 32.5341 161.339 31.7022 160.152C30.8702 158.965 29.698 158.057 28.34 157.55C28.1716 157.504 27.9919 157.526 27.84 157.613C27.6882 157.699 27.5768 157.842 27.53 158.01C27.4892 158.178 27.5141 158.356 27.5996 158.506C27.685 158.657 27.8247 158.769 27.99 158.82C28.6363 159.066 29.2301 159.433 29.74 159.9C30.1875 160.297 30.5601 160.771 30.84 161.3C30.9093 161.413 30.9727 161.53 31.03 161.65C31.0608 161.708 31.0876 161.768 31.11 161.83C31.11 161.83 31.21 162.06 31.16 161.94C31.2582 162.168 31.3417 162.402 31.41 162.64C31.5167 163.022 31.6035 163.409 31.67 163.8C31.67 163.61 31.67 163.8 31.67 163.88C31.67 163.96 31.67 163.99 31.67 164.05C31.6651 164.1 31.6651 164.15 31.67 164.2C31.67 164.372 31.7385 164.538 31.8604 164.66C31.9823 164.782 32.1476 164.85 32.32 164.85C32.4924 164.85 32.6578 164.782 32.7797 164.66C32.9016 164.538 32.97 164.372 32.97 164.2H33Z" fill="#222221"/>
<path d="M31.24 160.32C30.8855 160.418 30.5482 160.569 30.24 160.77C29.5136 161.225 28.9527 161.902 28.64 162.7C28.4218 163.295 28.3265 163.927 28.36 164.56C28.3798 164.72 28.4573 164.867 28.5779 164.973C28.6986 165.08 28.854 165.139 29.015 165.139C29.176 165.139 29.3315 165.08 29.4521 164.973C29.5727 164.867 29.6502 164.72 29.67 164.56C29.67 164.43 29.67 164.29 29.67 164.16C29.67 164.03 29.67 164.03 29.67 163.96V163.89C29.67 163.83 29.67 163.73 29.67 163.89C29.6705 163.784 29.6908 163.679 29.73 163.58C29.73 163.47 29.79 163.35 29.82 163.24L29.87 163.1C29.94 162.94 29.87 163.18 29.87 163.1L30.01 162.83L30.15 162.61C30.15 162.61 30.27 162.45 30.15 162.55C30.03 162.65 30.15 162.55 30.2 162.49C30.3066 162.367 30.4237 162.253 30.55 162.15C30.5718 162.122 30.599 162.098 30.63 162.08C30.69 162.02 30.49 162.18 30.63 162.08C30.6858 162.031 30.7461 161.988 30.81 161.95C30.9165 161.881 31.0267 161.817 31.14 161.76L31.27 161.7H31.17H31.24C31.3368 161.658 31.4372 161.624 31.54 161.6C31.7068 161.551 31.848 161.439 31.9338 161.288C32.0196 161.137 32.0434 160.958 32 160.79C31.949 160.625 31.8362 160.486 31.6853 160.402C31.5344 160.319 31.357 160.296 31.19 160.34L31.24 160.32Z" fill="#222221"/>
<path d="M45.79 177.46L45 194.52C44.9506 195.688 44.6584 196.833 44.1418 197.881C43.6253 198.93 42.8958 199.859 42 200.61L34.39 207C34.39 207 48.91 227.11 63 227.24C69.91 227.31 77.17 215.59 81.54 207.76L74.15 200.92C73.2361 200.08 72.5199 199.048 72.053 197.898C71.5861 196.748 71.3802 195.509 71.45 194.27L72 183.55L45.79 177.46Z" fill="#E8AF8E"/>
<path d="M45.5 183.92L45.79 177.46L72 183.55L71.47 193.45C68.79 195.57 52.25 204.48 45.5 183.92Z" fill="#A8624B"/>
<path d="M69.72 116.51C69.72 116.51 97.11 124.1 87.93 156.18C87.5716 157.487 87.551 158.863 87.87 160.18C89.16 165.62 92.47 182.24 66.43 188.98C65.4325 189.23 64.3941 189.27 63.38 189.1C56.79 188.03 32.66 182.1 31.77 151.96C30.75 117.1 69.72 116.51 69.72 116.51Z" fill="#E8AF8E"/>
<path d="M69.59 165.6C70.5684 165.152 71.418 164.464 72.06 163.6C72.4137 163.079 72.5805 162.453 72.5333 161.825C72.4861 161.196 72.2277 160.603 71.8 160.14C71.065 159.163 70.3968 158.137 69.8 157.07C69.0171 155.404 68.6729 153.566 68.8 151.73C68.8 150.73 67.22 150.73 67.18 151.73C67.0863 153.535 67.383 155.34 68.05 157.02C68.5538 158.18 69.2022 159.272 69.98 160.27C70.44 160.89 71.35 161.77 70.87 162.58C70.3645 163.286 69.6718 163.837 68.87 164.17C67.93 164.61 68.75 166 69.69 165.56L69.59 165.6Z" fill="#222221"/>
<path d="M57.85 167.26C57.85 169.94 54.85 172.11 51.27 172.11C47.69 172.11 44.69 169.94 44.69 167.26C44.69 164.58 47.69 162.41 51.27 162.41C54.85 162.41 57.85 164.58 57.85 167.26Z" fill="#D46A55"/>
<path d="M86.81 167C86.81 169.67 83.81 171.85 80.23 171.85C76.65 171.85 73.65 169.67 73.65 167C73.65 164.33 76.6 162.15 80.23 162.15C83.86 162.15 86.81 164.3 86.81 167Z" fill="#D46A55"/>
<path d="M57.53 171.16C58.3618 172.556 59.5065 173.74 60.874 174.618C62.2415 175.496 63.7944 176.045 65.41 176.22C67.088 176.352 68.7754 176.145 70.3716 175.611C71.9677 175.076 73.4398 174.226 74.7 173.11C75.48 172.42 74.33 171.28 73.56 171.97C72.4698 172.922 71.2007 173.646 69.827 174.101C68.4534 174.556 67.0027 174.732 65.56 174.62C64.1879 174.484 62.8673 174.026 61.705 173.284C60.5427 172.542 59.5715 171.537 58.87 170.35C58.3 169.49 56.87 170.35 57.48 171.16H57.53Z" fill="#222221"/>
<path d="M62.17 145.3C62.35 146.85 60.39 146.21 57.5 146.56C54.61 146.91 51.87 148.1 51.69 146.56C51.51 145.02 53.69 143.48 56.59 143.14C59.49 142.8 62 143.76 62.17 145.3Z" fill="#222221"/>
<path d="M74.14 145.63C73.96 147.18 75.92 146.54 78.81 146.89C81.7 147.24 84.4401 148.43 84.6201 146.89C84.8001 145.35 82.6201 143.81 79.72 143.47C76.82 143.13 74.33 144.09 74.14 145.63Z" fill="#222221"/>
<path d="M67.92 181.56C67.92 182.25 66.82 182.81 65.46 182.81C64.1 182.81 63 182.25 63 181.56C63 180.87 64.1 181.18 65.45 181.18C66.8 181.18 67.92 180.87 67.92 181.56Z" fill="#CF866B"/>
<path d="M34.39 207C34.39 207 55.39 217.94 65.46 217.68C75.53 217.42 81.55 207.79 81.55 207.79C81.55 207.79 102.41 227.05 103.55 244.44C104.69 261.83 97.55 292.44 97.55 292.44C97.55 292.44 110.47 362.67 107.95 392.26H11.71C11.71 392.26 -5.28995 334.65 28.21 295.63L11.71 221L34.39 207Z" fill="#69BA9F"/>
<path d="M26.13 336.57C20.32 331.92 16.88 325.92 14.03 319.57C0.599998 354.57 11.71 392.23 11.71 392.23H108C109 380.11 107.47 361.16 105.27 343.01C79.79 353.87 50.29 354.87 26.13 336.57Z" fill="#417164"/>
<path d="M169.84 291.33V303.78C169.84 303.78 210.84 314.35 239.34 297.56L236.28 287.32L169.84 291.33Z" fill="#583C80"/>
<path d="M167.76 301.75C167.76 301.75 145.06 344.45 153.27 392.22H198.72L192.63 333.73H197.93L201.69 392.22H247C247 392.22 259.08 335.12 238 298.61C237.93 298.61 203.57 307.09 167.76 301.75Z" fill="#7A5FA0"/>
<path d="M25.59 254L47.07 285.09L95.49 272.75L90.57 285.09C90.57 285.09 56 311.75 41.3 309.56C26.6 307.37 5.17004 262.4 5.17004 262.4C5.17004 262.4 13 251.41 25.59 254Z" fill="#E8AF8E"/>
<path d="M210.76 170.82L211.57 188.7C211.625 189.926 211.934 191.127 212.478 192.227C213.022 193.327 213.789 194.302 214.73 195.09L222.73 201.76C222.73 201.76 210.5 233.76 195.73 233.86C188.48 233.93 171.52 237.64 173.3 202.58L181.06 195.42C182.018 194.534 182.769 193.447 183.258 192.237C183.747 191.026 183.963 189.723 183.89 188.42L183.29 177.18L210.76 170.82Z" fill="#BC6F63"/>
<path d="M211.07 177.59L210.76 170.82L183.26 177.21L183.81 187.58C186.65 189.81 204 199.14 211.07 177.59Z" fill="#863B39"/>
<path d="M187.09 113.79C187.09 113.79 161 121 169.72 151.63C170.062 152.875 170.079 154.187 169.77 155.44C168.55 160.63 165.39 176.49 190.23 182.92C191.181 183.16 192.172 183.2 193.14 183.04C199.43 182.04 222.45 176.31 223.29 147.61C224.27 114.34 187.09 113.79 187.09 113.79Z" fill="#BC6F63"/>
<path d="M198.58 149.68C198.58 151.38 199.58 152.76 200.91 152.76C202.24 152.76 203.25 151.38 203.25 149.68C203.25 147.98 202.2 146.59 200.91 146.59C199.62 146.59 198.58 148 198.58 149.68Z" fill="#222221"/>
<path d="M178.37 150.36C178.37 152.07 179.37 153.45 180.71 153.45C182.05 153.45 183.04 152.07 183.04 150.36C183.04 148.65 182.04 147.27 180.71 147.27C179.38 147.27 178.37 148.66 178.37 150.36Z" fill="#222221"/>
<path d="M189.35 159.32C188.683 159.052 188.104 158.601 187.68 158.02C187.29 157.36 188.04 156.64 188.41 156.14C189.045 155.322 189.575 154.429 189.99 153.48C190.531 152.107 190.769 150.634 190.69 149.16C190.67 149 190.593 148.853 190.472 148.747C190.351 148.64 190.196 148.581 190.035 148.581C189.874 148.581 189.719 148.64 189.598 148.747C189.477 148.853 189.4 149 189.38 149.16C189.471 150.662 189.179 152.162 188.53 153.52C188.041 154.394 187.486 155.23 186.87 156.02C186.524 156.403 186.316 156.89 186.278 157.404C186.24 157.918 186.374 158.431 186.66 158.86C187.183 159.549 187.871 160.096 188.66 160.45C189.43 160.81 190.09 159.68 189.33 159.32H189.35Z" fill="#222221"/>
<path d="M199 161.93C199 164.48 201.81 166.55 205.28 166.55C208.75 166.55 211.55 164.48 211.55 161.93C211.55 159.38 208.74 157.3 205.28 157.3C201.82 157.3 199 159.37 199 161.93Z" fill="#D46A55"/>
<path d="M171.37 162.79C171.37 165.34 174.18 167.42 177.65 167.42C181.12 167.42 183.92 165.34 183.92 162.79C183.92 160.24 181.12 158.16 177.65 158.16C174.18 158.16 171.37 160.23 171.37 162.79Z" fill="#D46A55"/>
<path d="M197.17 139.53C197 141 198.87 140.4 201.63 140.73C204.39 141.06 207 142.2 207.17 140.73C207.34 139.26 205.25 137.8 202.49 137.47C199.73 137.14 197.35 138.06 197.17 139.53Z" fill="#222221"/>
<path d="M182.79 140.06C183.32 141.44 181.36 141.31 178.79 142.3C176.22 143.29 173.94 145.03 173.41 143.64C172.88 142.25 174.56 140.33 177.16 139.34C179.76 138.35 182.26 138.67 182.79 140.06Z" fill="#222221"/>
<path d="M190.05 175.84C190.05 176.5 191.05 177.04 192.39 177.04C193.73 177.04 194.73 176.5 194.73 175.84C194.73 175.18 193.73 175.48 192.39 175.48C191.05 175.48 190.05 175.18 190.05 175.84Z" fill="#863B39"/>
<path d="M189.63 165.09C189.83 165.264 190.063 165.396 190.314 165.479C190.566 165.562 190.832 165.595 191.096 165.574C191.36 165.554 191.618 165.481 191.854 165.36C192.09 165.239 192.299 165.073 192.47 164.87C193.63 163.45 195.39 161.98 197.05 163.31C199.7 165.43 196.05 170.78 191.05 171.09C186.05 171.4 183.38 165.82 184.7 164.3C186.15 162.62 188.22 163.81 189.63 165.09Z" fill="white"/>
<path d="M231.06 202.41C231.06 202.41 220.63 230.62 224.2 245.53L242.7 349.08H255.22C255.22 349.08 247.22 264.36 246.71 235.36C246.2 206.36 231.06 202.41 231.06 202.41Z" fill="#BC6F63"/>
<path d="M173.27 202.58C171.09 202.314 168.881 202.379 166.72 202.77C165.29 203.11 161.19 204.57 161.19 204.57C161.19 204.57 152.97 244.29 156.47 260.74C159.97 277.19 164.38 290.92 164.38 290.92C164.38 290.92 183.38 303 232.73 290.92L223.46 237.64C223.46 237.64 227.82 209.32 232.73 203.11C232.73 203.11 228.44 199.25 219.52 199.11C219.52 199.11 207.42 222.16 189.32 221.61C171.22 221.06 173.27 202.58 173.27 202.58Z" fill="#E79E9E"/>
<path d="M86.35 282.43C93.83 264.67 111.24 273.92 113.35 278.86C116.71 286.71 114.13 296.11 110.43 295.21C106.73 294.31 109.56 288.32 108.16 286.02C108.994 288.51 109.032 291.197 108.27 293.71C108.183 294.052 108.014 294.368 107.777 294.629C107.54 294.891 107.242 295.09 106.91 295.21C105.91 295.56 104.41 295.89 103.6 295.13C102.31 293.9 104.66 288.65 102.49 286C102.49 286 104.49 288.53 103.03 293.29C102.799 294.001 102.311 294.599 101.662 294.969C101.013 295.339 100.249 295.454 99.52 295.29C98.73 295.1 98.09 294.72 98.11 293.95C98.17 292.03 97.79 285.74 95.5 285.75C93.21 285.76 86.4 288.32 86.34 282.56C86.3381 282.516 86.3415 282.473 86.35 282.43Z" fill="#E8AF8E"/>
<path d="M109.16 292.16C109.25 290.978 109.25 289.792 109.16 288.61C109.04 286.92 108.8 284.76 107.5 283.53C106.97 283.03 106.18 283.82 106.7 284.32C107.217 284.878 107.564 285.572 107.7 286.32C107.908 287.172 108.032 288.043 108.07 288.92C108.145 290.012 108.145 291.108 108.07 292.2C108.01 292.92 109.13 292.91 109.19 292.2L109.16 292.16Z" fill="#222221"/>
<path d="M103.75 292.76C104.318 290.714 104.263 288.544 103.59 286.53C103.283 285.76 102.767 285.092 102.1 284.6C101.51 284.17 100.95 285.14 101.53 285.6C102.78 286.51 102.99 288.31 102.98 289.73C102.983 290.662 102.879 291.592 102.67 292.5C102.5 293.21 103.58 293.5 103.75 292.8V292.76Z" fill="#222221"/>
<path d="M148.69 286C148.69 286 164.3 299.26 164 319.42C163.7 339.58 164 351.11 164 351.11C164 351.11 170.45 355.82 168.87 359.23C167.29 362.64 124.95 375.23 90.61 359.23C90.61 359.23 89.88 353.47 94.94 353.07C94.94 353.07 95.51 327.8 94.94 316.28C94.37 304.76 101.44 290.47 101.44 290.47L148.69 286Z" fill="#DD4D61"/>
<path d="M138 263.38L139.06 276.38L148.68 286C148.68 286 131.89 299.16 109.45 288.55L114.45 279.7V262.4L138 263.38Z" fill="#E9A585"/>
<path d="M138.88 274.1L138 263.38L114.44 262.38V273.15C122.35 281.24 132.13 280.46 138.88 274.1Z" fill="#A8624B"/>
<path d="M86.76 290.47C86.76 290.47 86.67 290.8 86.52 291.4C85.18 296.93 78.86 325.52 90.44 331.61C103.27 338.37 153.44 327.66 153.44 327.66V319.66L102.44 314.66L100.19 296.5" fill="#CF866B"/>
<path d="M88 303.77C85.9944 304.214 84.1592 305.226 82.7138 306.686C81.2685 308.145 80.2742 309.99 79.85 312C79.23 314.76 79.3 318 81.75 320.69C86.99 326.32 91.31 319.97 89.54 316.43C87.77 312.89 95.83 307.23 95.83 307.23C95.83 307.23 93.83 302.55 88 303.77Z" fill="#E3E3E3"/>
<path d="M146.72 237.8C146.72 237.8 158.13 223.65 163.46 233.69C168.79 243.73 157.98 257.29 143.83 250.44L146.72 237.8Z" fill="#E9A585"/>
<path d="M163.06 244.25C162.58 245.307 161.854 246.234 160.943 246.953C160.031 247.671 158.96 248.161 157.82 248.38C151.82 249.29 148.51 241.52 149.67 234.7C148.624 235.672 147.639 236.707 146.72 237.8L143.83 250.44C155.89 256.28 165.52 247.3 164.83 238.29C164.52 240.349 163.924 242.355 163.06 244.25Z" fill="#CF866B"/>
<path d="M156 244.41C156 244.27 156 244.13 156 243.99C156 243.85 156 243.99 156 243.99C156 243.99 156 243.91 156 243.88C156 243.85 156 243.71 156 243.62C156 243.53 156.09 243.21 156.15 243C156.208 242.769 156.282 242.542 156.37 242.32L156.44 242.14C156.44 242.07 156.44 242.14 156.44 242.14C156.44 242.14 156.44 242.07 156.44 242.03L156.62 241.66C156.876 241.136 157.213 240.657 157.62 240.24C158.188 239.676 158.87 239.24 159.62 238.96C159.785 238.911 159.924 238.801 160.01 238.652C160.095 238.503 160.12 238.327 160.08 238.16C160.033 237.992 159.922 237.849 159.77 237.763C159.618 237.677 159.438 237.654 159.27 237.7C157.776 238.27 156.518 239.327 155.7 240.7C155.18 241.599 154.841 242.591 154.7 243.62C154.661 243.865 154.638 244.112 154.63 244.36C154.65 244.52 154.727 244.667 154.848 244.773C154.969 244.88 155.124 244.939 155.285 244.939C155.446 244.939 155.601 244.88 155.722 244.773C155.843 244.667 155.92 244.52 155.94 244.36L156 244.41Z" fill="#222221"/>
<path d="M156.07 241.79L156.31 241.87H156.43H156.36H156.43L156.76 242.04L156.91 242.14L157 242.2H157.05C157.13 242.26 156.94 242.11 156.99 242.2C157.114 242.299 157.231 242.406 157.34 242.52L157.5 242.7C157.55 242.76 157.42 242.58 157.5 242.65V242.71L157.59 242.84C157.639 242.91 157.683 242.983 157.72 243.06L157.78 243.19C157.78 243.19 157.78 243.25 157.78 243.26C157.78 243.27 157.72 243.13 157.78 243.26C157.871 243.493 157.938 243.734 157.98 243.98C157.98 243.98 157.98 244.05 157.98 244.07C157.98 244.09 157.98 243.96 157.98 244.07C157.98 244.18 157.98 244.22 157.98 244.29C157.99 244.446 157.99 244.603 157.98 244.76C157.969 244.853 157.977 244.947 158.005 245.036C158.032 245.126 158.079 245.208 158.141 245.278C158.202 245.348 158.279 245.404 158.364 245.443C158.449 245.481 158.542 245.501 158.635 245.501C158.729 245.501 158.821 245.481 158.906 245.443C158.992 245.404 159.068 245.348 159.13 245.278C159.192 245.208 159.238 245.126 159.266 245.036C159.293 244.947 159.302 244.853 159.29 244.76C159.359 243.678 159.024 242.609 158.35 241.76C157.91 241.244 157.345 240.848 156.71 240.61L156.37 240.5C156.287 240.477 156.201 240.471 156.116 240.481C156.03 240.491 155.948 240.519 155.873 240.561C155.799 240.603 155.733 240.66 155.68 240.727C155.627 240.795 155.588 240.872 155.565 240.955C155.542 241.038 155.536 241.124 155.546 241.209C155.556 241.295 155.584 241.377 155.626 241.452C155.668 241.526 155.725 241.592 155.792 241.645C155.86 241.698 155.937 241.737 156.02 241.76L156.07 241.79Z" fill="#222221"/>
<path d="M108.25 237.8C108.25 237.8 96.83 223.65 91.51 233.69C86.19 243.73 96.99 257.29 111.14 250.44L108.25 237.8Z" fill="#E9A585"/>
<path d="M91.9 244.25C92.3826 245.307 93.1109 246.233 94.0242 246.952C94.9374 247.67 96.0091 248.16 97.15 248.38C103.15 249.29 106.46 241.52 105.3 234.7C106.363 235.67 107.365 236.705 108.3 237.8L111.19 250.44C99.12 256.28 89.5 247.3 90.19 238.29C90.4807 240.346 91.0562 242.352 91.9 244.25Z" fill="#CF866B"/>
<path d="M100.33 244.41C100.263 242.48 99.4616 240.649 98.09 239.29C97.3923 238.623 96.5653 238.105 95.6601 237.77C95.493 237.727 95.3158 237.751 95.1663 237.837C95.0168 237.923 94.9069 238.064 94.86 238.23C94.8196 238.397 94.8448 238.573 94.9304 238.722C95.016 238.871 95.1555 238.981 95.32 239.03C95.9619 239.284 96.5516 239.653 97.06 240.12C97.508 240.519 97.8836 240.993 98.17 241.52L98.35 241.86L98.44 242.05C98.44 242.05 98.54 242.27 98.44 242.15C98.53 242.38 98.62 242.62 98.69 242.85C98.8 243.24 98.86 243.62 98.94 244.01C98.94 243.82 98.94 244.01 98.94 244.1C98.94 244.19 98.94 244.21 98.94 244.27C98.9454 244.316 98.9454 244.363 98.94 244.41C98.9598 244.57 99.0373 244.717 99.158 244.823C99.2786 244.93 99.434 244.989 99.595 244.989C99.756 244.989 99.9115 244.93 100.032 244.823C100.153 244.717 100.23 244.57 100.25 244.41H100.33Z" fill="#222221"/>
<path d="M98.55 240.53C98.1939 240.628 97.8561 240.783 97.55 240.99C96.8274 241.447 96.2701 242.123 95.96 242.92C95.7378 243.51 95.6424 244.141 95.68 244.77C95.68 244.943 95.7482 245.11 95.8698 245.233C95.9914 245.357 96.1567 245.427 96.33 245.43C96.5043 245.427 96.6706 245.357 96.7939 245.234C96.9171 245.111 96.9874 244.944 96.99 244.77C96.98 244.64 96.98 244.51 96.99 244.38C96.9848 244.313 96.9848 244.247 96.99 244.18V244.1C96.99 244.04 96.99 243.95 96.99 244.1C96.9954 243.994 97.0156 243.89 97.05 243.79C97.05 243.67 97.11 243.56 97.15 243.44C97.1459 243.397 97.1459 243.353 97.15 243.31C97.21 243.15 97.15 243.38 97.15 243.31C97.15 243.24 97.23 243.13 97.28 243.04L97.43 242.82V242.76C97.35 242.85 97.43 242.76 97.48 242.69L97.82 242.35L97.9 242.29C97.97 242.23 97.76 242.39 97.9 242.29L98.08 242.17C98.1877 242.097 98.3015 242.033 98.42 241.98L98.55 241.91C98.62 241.91 98.43 241.96 98.44 241.91H98.51L98.81 241.81C98.8929 241.788 98.9707 241.75 99.0387 241.698C99.1068 241.645 99.1639 241.58 99.2066 241.506C99.2494 241.431 99.277 241.349 99.2879 241.264C99.2988 241.179 99.2927 241.093 99.27 241.01C99.221 240.845 99.1107 240.706 98.9618 240.62C98.813 240.535 98.6369 240.51 98.47 240.55L98.55 240.53Z" fill="#222221"/>
<path d="M101.19 210.53C101.19 210.53 98.19 252.13 106.19 261.32C116.09 272.63 142.73 270.05 149.73 261.32C154.52 255.32 156.58 230.13 151.25 210.53C151.27 210.53 128.44 188.21 101.19 210.53Z" fill="#E9A585"/>
<path d="M137.25 240.16C138.603 240.16 139.7 238.709 139.7 236.92C139.7 235.131 138.603 233.68 137.25 233.68C135.897 233.68 134.8 235.131 134.8 236.92C134.8 238.709 135.897 240.16 137.25 240.16Z" fill="#222221"/>
<path d="M116.07 240.16C117.423 240.16 118.52 238.709 118.52 236.92C118.52 235.131 117.423 233.68 116.07 233.68C114.717 233.68 113.62 235.131 113.62 236.92C113.62 238.709 114.717 240.16 116.07 240.16Z" fill="#222221"/>
<path d="M125.53 243.93C124.917 243.687 124.387 243.274 124 242.74C123.64 242.13 124.33 241.47 124.67 241.01C125.252 240.259 125.739 239.44 126.12 238.57C126.618 237.298 126.839 235.934 126.77 234.57C126.77 233.8 125.53 233.8 125.56 234.57C125.644 235.948 125.376 237.325 124.78 238.57C124.334 239.375 123.826 240.144 123.26 240.87C122.94 241.218 122.747 241.664 122.71 242.135C122.674 242.607 122.797 243.077 123.06 243.47C123.547 244.108 124.186 244.614 124.92 244.94C125.62 245.27 126.24 244.23 125.53 243.94V243.93Z" fill="#222221"/>
<path d="M136.34 247.45C136.34 250.13 139.28 252.3 142.91 252.3C146.54 252.3 149.49 250.13 149.49 247.45C149.49 244.77 146.55 242.6 142.91 242.6C139.27 242.6 136.34 244.77 136.34 247.45Z" fill="#D46A55"/>
<path d="M104.72 247.45C104.72 250.13 107.66 252.3 111.3 252.3C114.94 252.3 117.87 250.13 117.87 247.45C117.87 244.77 114.93 242.6 111.3 242.6C107.67 242.6 104.72 244.77 104.72 247.45Z" fill="#D46A55"/>
<path d="M132 226.89C131.82 228.43 133.77 227.8 136.67 228.14C139.57 228.48 142.3 229.69 142.48 228.14C142.66 226.59 140.48 225.07 137.57 224.72C134.66 224.37 132.2 225.35 132 226.89Z" fill="#222221"/>
<path d="M119.87 226.1C120.05 227.65 118.09 227.01 115.2 227.36C112.31 227.71 109.57 228.9 109.39 227.36C109.21 225.82 111.39 224.28 114.29 223.94C117.19 223.6 119.68 224.56 119.87 226.1Z" fill="#222221"/>
<path d="M119.75 248.33C119.823 249.463 120.168 250.562 120.757 251.534C121.345 252.505 122.159 253.32 123.13 253.91C123.977 254.343 124.906 254.591 125.856 254.637C126.806 254.684 127.755 254.528 128.64 254.18C130.075 253.577 131.224 252.445 131.85 251.02C132.249 250.172 132.503 249.262 132.6 248.33C132.67 247.5 131.38 247.5 131.31 248.33C131.31 248.33 131.31 248.41 131.31 248.45C131.31 248.19 131.31 248.65 131.25 248.73C131.172 249.149 131.058 249.56 130.91 249.96C130.532 251.084 129.785 252.046 128.79 252.69C128.08 253.082 127.291 253.31 126.481 253.357C125.671 253.404 124.861 253.268 124.11 252.96C122.965 252.417 122.066 251.464 121.59 250.29C121.389 249.824 121.238 249.338 121.14 248.84L121.05 248.38C121.05 248.38 121.05 248.48 121.05 248.38C120.98 247.56 119.68 247.55 119.76 248.38L119.75 248.33Z" fill="#222221"/>
<path d="M108.93 299.91C108.93 299.91 114.24 279.39 138.69 284.59C163.14 289.79 166.18 313.66 150.27 317.39C134.36 321.12 100.09 309 100.09 309L108.93 299.91Z" fill="white"/>
<path d="M83 290.64C83 290.64 75 284.64 78.41 275.84C78.41 275.84 88.41 273.84 92.59 281.84L83 290.64Z" fill="white"/>
<path d="M111.45 290.68C111.45 290.68 119.21 284.41 115.55 275.73C115.55 275.73 105.55 274.09 101.55 282.17L111.45 290.68Z" fill="white"/>
<path d="M98 278.7C98 278.7 112.27 278.47 114.32 293.03C116.77 310.44 102.98 309.92 96.32 309.37C89.66 308.82 79.82 308.44 81.45 293.48C83.08 278.52 96.58 278.22 98 278.7Z" fill="white"/>
<path d="M90.57 297.26C91.6083 297.26 92.45 296.36 92.45 295.25C92.45 294.14 91.6083 293.24 90.57 293.24C89.5317 293.24 88.69 294.14 88.69 295.25C88.69 296.36 89.5317 297.26 90.57 297.26Z" fill="#222221"/>
<path d="M104.8 297.26C105.838 297.26 106.68 296.36 106.68 295.25C106.68 294.14 105.838 293.24 104.8 293.24C103.762 293.24 102.92 294.14 102.92 295.25C102.92 296.36 103.762 297.26 104.8 297.26Z" fill="#222221"/>
<path d="M95.93 296.59C96.0419 296.969 96.2733 297.301 96.5896 297.537C96.9059 297.774 97.2902 297.901 97.685 297.901C98.0799 297.901 98.4642 297.774 98.7805 297.537C99.0968 297.301 99.3281 296.969 99.44 296.59C99.44 296.25 98.65 295.99 97.69 295.99C96.73 295.99 95.93 296.25 95.93 296.59Z" fill="#D46A55"/>
<path d="M159 299.58L152.53 316.69L101.77 309.53L99.86 317.33C99.86 317.33 146.08 339.59 160.15 336.05C172.83 332.86 172.91 306.74 172.91 301.05" fill="#E9A585"/>
<path d="M102.45 308.75C102.45 308.75 96.82 317.39 102.06 323.02C107.3 328.65 111.62 322.3 109.85 318.77C108.08 315.24 116.13 309.56 116.13 309.56C116.13 309.56 112.86 301.94 102.45 308.75Z" fill="white"/>
<path d="M149.49 221.55C149.49 221.55 147.03 239.34 151.55 238.4C156.07 237.46 160.12 230.4 160.12 230.4C160.12 230.4 164.32 231.27 163.92 226.2C163.499 225.61 162.958 225.115 162.332 224.748C161.707 224.381 161.011 224.15 160.29 224.07C160.29 224.07 171.49 201.2 149.49 195.8C149.49 195.8 150.57 188.6 143.49 194.88C143.49 194.88 140.61 186.72 137.73 192.31C137.73 192.31 112.21 184.31 99.67 199.53C87.13 214.75 99.14 225.75 99.14 225.75C99.14 225.75 95.31 227.85 96.61 230.07L100.87 231.55C100.87 231.55 102.57 238.16 103.62 237.9C104.67 237.64 105.78 220.42 105.78 220.42C105.78 220.42 122.08 224.57 130.53 205.23C130.53 205.23 128.66 214.07 138.38 208.23C138.39 208.29 150.18 204.27 149.49 221.55Z" fill="#7A5FA0"/>
<path d="M146.56 287.2C146.56 287.2 151.91 282.96 162.56 285.38C173.21 287.8 174.51 311.76 174.51 311.76L155.17 309.56C155.17 309.56 161.67 295.27 146.98 287.41L146.56 287.2Z" fill="#DD4D61"/>
<path d="M135.08 314.23C135.08 314.23 130.49 308.74 139.16 301.23C139.16 301.23 132.95 309.56 136.87 314.48L135.08 314.23Z" fill="#E3E3E3"/>
<path d="M139.16 301.23C145.85 302.41 153.8 302.04 159.73 298.47C164.63 295.47 167.13 290.42 167.4 284.8C167.68 278.88 168.16 272.21 172.73 267.8C173.395 267.083 174.217 266.53 175.131 266.183C176.045 265.836 177.027 265.705 178 265.8C178.833 265.96 179.632 266.265 180.36 266.7C181.373 267.347 182.252 268.182 182.95 269.16C184.95 271.82 189.4 269.16 187.4 266.47C184.33 262.31 179.52 259.42 174.24 261.04C168.69 262.74 165.34 268.17 163.71 273.43C162.718 277.012 162.217 280.713 162.22 284.43C162.227 286.953 161.452 289.416 160 291.48C157.38 294.85 152.87 296.1 148.91 296.48C146.843 296.645 144.767 296.645 142.7 296.48L141.54 296.38C140.92 296.32 140.88 296.3 141.2 296.38C140.95 296.38 140.71 296.32 140.47 296.27C137.19 295.7 135.86 300.73 139.16 301.27V301.23Z" fill="white"/>
<path d="M160.81 283.53C161.007 282.992 161.105 282.423 161.1 281.85C161.11 281.79 161.11 281.73 161.1 281.67C153.62 263.91 136.21 273.16 134.1 278.1C130.74 285.95 133.33 295.35 137.02 294.45C137.594 294.32 138.105 293.996 138.469 293.534C138.833 293.072 139.028 292.498 139.02 291.91C139.09 292.26 139.14 292.59 139.24 292.91C139.327 293.25 139.495 293.563 139.73 293.823C139.965 294.082 140.261 294.28 140.59 294.4C141.59 294.75 143.09 295.08 143.9 294.32C144.37 293.87 144.36 292.89 144.26 291.69C144.32 291.94 144.38 292.19 144.47 292.46C144.687 293.184 145.169 293.799 145.82 294.182C146.47 294.566 147.242 294.69 147.98 294.53C148.77 294.35 149.41 293.96 149.39 293.19C149.33 291.28 149.71 284.98 152 284.99C152.631 285.011 153.24 285.223 153.747 285.598C154.254 285.973 154.636 286.493 154.84 287.09C155.56 289.09 156.95 291.95 158.93 291.82C160.91 291.69 161.55 287.25 160.81 283.53ZM138.89 286.68C138.908 286.183 139.041 285.697 139.28 285.26C139.105 285.72 138.974 286.195 138.89 286.68ZM144.13 287.08C144.243 286.494 144.478 285.939 144.82 285.45C144.506 285.954 144.273 286.504 144.13 287.08Z" fill="#BC6F63"/>
<path d="M139.35 292.11C139.265 291.018 139.265 289.922 139.35 288.83C139.389 287.954 139.51 287.084 139.71 286.23C139.849 285.483 140.196 284.79 140.71 284.23C141.24 283.74 140.45 282.94 139.92 283.44C138.61 284.67 138.38 286.83 138.26 288.52C138.17 289.702 138.17 290.888 138.26 292.07C138.32 292.78 139.45 292.79 139.39 292.07L139.35 292.11Z" fill="#222221"/>
<path d="M144.72 292.41C144.501 291.503 144.397 290.573 144.41 289.64C144.41 288.22 144.61 286.42 145.86 285.51C146.44 285.1 145.86 284.12 145.29 284.51C143.03 286.14 143.09 289.41 143.49 291.88C143.525 292.146 143.575 292.41 143.64 292.67C143.81 293.37 144.89 293.08 144.72 292.37V292.41Z" fill="#222221"/>
<path d="M2.29003 266.81C2.29003 266.81 -8.57997 227.7 17.08 217.65L33.51 255.53C33.51 255.53 26.05 274.16 2.29003 266.81Z" fill="#69BA9F"/>
<path d="M32.89 161.19C32.89 161.19 47.2 154.19 54.29 129.63C54.29 129.63 58.63 138.86 75.72 138.27L65.46 125.7C65.46 125.7 75.92 139.7 91.46 141.26C91.46 141.26 88.39 109.6 63.04 112.74C37.69 115.88 24.86 146.11 32.89 161.19Z" fill="#222221"/>
<path d="M55.41 128.19C55.41 128.19 57.97 143.4 33.51 159.89" stroke="#222221" stroke-width="1.39" stroke-miterlimit="10"/>
<path d="M164.75 134.6C164.75 134.6 176.98 141.15 190.05 122.3C190.05 122.3 183.84 132.3 175.88 135.7C175.88 135.7 194.98 136.17 199.88 119.7C199.88 119.7 218.62 126.07 220.45 143.63C222.28 161.19 220.19 170.84 220.19 170.84L228.19 143.84C229.051 140.933 229.141 137.853 228.452 134.9C227.763 131.948 226.318 129.226 224.26 127C217.32 119.49 204.64 109.88 185.97 111.34C155.85 113.65 164.75 134.6 164.75 134.6Z" fill="#271E6D"/>
<path d="M52.15 157.55C52.0623 157.635 51.9474 157.687 51.8255 157.695C51.7035 157.704 51.5824 157.67 51.4834 157.598C51.3843 157.527 51.3136 157.422 51.2838 157.304C51.2539 157.185 51.2667 157.06 51.32 156.95C52.32 154.95 53.84 152.73 56.03 153.19C58.22 153.65 59.03 155.91 59.54 157.9C59.5789 158.023 59.5708 158.156 59.5172 158.273C59.4637 158.39 59.3686 158.483 59.2503 158.534C59.132 158.585 58.999 158.591 58.877 158.549C58.755 158.508 58.6528 158.423 58.59 158.31C57.33 156.42 55.17 154.72 52.15 157.55Z" fill="#222221"/>
<path d="M81.9 157.55C81.9889 157.629 82.102 157.674 82.2205 157.68C82.339 157.685 82.4559 157.65 82.5516 157.58C82.6474 157.51 82.7163 157.409 82.7469 157.295C82.7775 157.18 82.7681 157.058 82.72 156.95C81.78 154.95 80.2 152.73 78.01 153.19C75.82 153.65 74.96 155.91 74.51 157.9C74.4803 158.019 74.4938 158.145 74.5481 158.255C74.6024 158.366 74.694 158.453 74.8067 158.502C74.9194 158.552 75.0458 158.559 75.1636 158.524C75.2814 158.489 75.3828 158.413 75.45 158.31C76.72 156.42 78.88 154.72 81.9 157.55Z" fill="#222221"/>
<path d="M318 392.22V368.22H322.94L322.48 392.22H356.2L359.68 326.15L266.68 322.28C263.61 338.93 265.75 372.42 268.95 392.22H318Z" fill="#274256"/>
<path d="M360.52 316.05V212.65L350.17 209.42H350.02C320.02 230.42 295.91 210.18 295.02 209.42L288.9 210.7L272.81 253.9L263.08 320.9C263.08 320.9 271.96 340.66 308.54 342.67C345.12 344.68 362.47 329.78 362.47 329.78L360.52 316.05Z" fill="#487FD2"/>
<path d="M360.52 289.48C354.85 292.99 348.92 296.06 342.13 297.57C315.94 303.49 289.74 295.12 268.98 280.32L263.08 320.92C263.08 320.92 271.96 340.68 308.54 342.69C345.12 344.7 362.47 329.8 362.47 329.8L360.47 316.05L360.52 289.48Z" fill="#3B699F"/>
<path d="M467.14 85.77L461.72 70.57C450.38 53.25 471.37 44.97 475.72 53.2C481.02 63.14 476.92 66.3 476.92 66.3L483.52 80.48L467.14 85.77Z" fill="#E9A585"/>
<path d="M393.94 24.65C393.94 24.65 417.36 23.37 422.3 48.93C422.3 48.93 434.76 63.43 429.92 69.87C425.08 76.31 420.83 76.11 420.83 76.11L421.37 70.48L418.46 76.11C418.46 76.11 391.26 84.59 371.92 73.95V68.95L370.53 73.35C370.53 73.35 364.94 73.99 363.87 66.58C362.8 59.17 370.53 56.2 371.81 43.18C373.09 30.16 382.88 23.37 393.94 24.65Z" fill="#271E6D"/>
<path d="M382.35 80.48C382.35 80.48 392.65 87.55 413.49 80.48L415.74 85.26C415.74 85.26 400.1 106.61 379.89 84.91L382.35 80.48Z" fill="#BB334C"/>
<path d="M412.6 54.56C412.6 54.56 418.9 46.76 421.84 52.3C424.78 57.84 418.84 65.3 411.01 61.53L412.6 54.56Z" fill="#E8AF8E"/>
<path d="M421.62 58.12C421.355 58.7018 420.954 59.2116 420.451 59.6065C419.948 60.0015 419.358 60.2702 418.73 60.39C415.44 60.9 413.59 56.61 414.23 52.85C413.651 53.3852 413.107 53.9563 412.6 54.56L411.01 61.56C417.66 64.78 423.01 59.83 422.58 54.86C422.411 55.9855 422.088 57.0824 421.62 58.12Z" fill="#CF866B"/>
<path d="M417.69 58.21C417.69 58.13 417.69 58.05 417.69 57.98C417.69 57.91 417.69 57.98 417.69 57.98V57.91C417.69 57.91 417.69 57.82 417.69 57.77C417.69 57.72 417.74 57.55 417.77 57.43L417.89 57.06V56.96V56.9C417.89 56.83 417.96 56.77 417.99 56.7C418.137 56.4136 418.326 56.1507 418.55 55.92C418.854 55.6077 419.223 55.3654 419.63 55.21C419.723 55.1848 419.802 55.1238 419.85 55.0403C419.898 54.9569 419.91 54.8578 419.885 54.765C419.86 54.6722 419.799 54.5932 419.715 54.5453C419.632 54.4975 419.533 54.4848 419.44 54.51C418.605 54.8158 417.899 55.398 417.44 56.16C417.188 56.6726 417.038 57.2298 417 57.8C416.99 57.9365 416.99 58.0735 417 58.21C417 58.3055 417.038 58.397 417.105 58.4646C417.173 58.5321 417.265 58.57 417.36 58.57C417.456 58.57 417.547 58.5321 417.615 58.4646C417.682 58.397 417.72 58.3055 417.72 58.21H417.69Z" fill="#222221"/>
<path d="M417.76 56.76L417.9 56.81H417.96L418.14 56.91H418.23C418.28 56.91 418.17 56.91 418.23 56.91L418.42 57.09L418.51 57.19L418.56 57.26C418.587 57.2977 418.61 57.3379 418.63 57.38V57.45C418.63 57.45 418.63 57.38 418.63 57.45C418.677 57.5802 418.714 57.714 418.74 57.85C418.74 57.85 418.74 57.85 418.74 57.9C418.74 57.95 418.74 57.84 418.74 57.9C418.745 57.9398 418.745 57.9801 418.74 58.02C418.75 58.1064 418.75 58.1936 418.74 58.28C418.754 58.3664 418.799 58.445 418.866 58.5016C418.933 58.5583 419.017 58.5894 419.105 58.5894C419.193 58.5894 419.277 58.5583 419.344 58.5016C419.411 58.445 419.456 58.3664 419.47 58.28C419.503 57.6851 419.318 57.0985 418.95 56.63C418.704 56.3469 418.392 56.1302 418.04 56C417.982 55.9755 417.921 55.9555 417.86 55.94C417.814 55.9231 417.764 55.916 417.715 55.919C417.666 55.922 417.618 55.935 417.574 55.9573C417.53 55.9797 417.491 56.0108 417.46 56.0488C417.428 56.0867 417.405 56.1308 417.391 56.1781C417.378 56.2254 417.374 56.2751 417.38 56.324C417.386 56.3729 417.402 56.42 417.428 56.4624C417.453 56.5047 417.486 56.5415 417.526 56.5703C417.566 56.5991 417.612 56.6195 417.66 56.63L417.76 56.76Z" fill="#222221"/>
<path d="M406.92 67.94L407.45 79.81C407.52 81.46 412.45 79.99 413.7 81.04L418.06 81.67C418.06 81.67 404.74 102.49 394.93 102.58C390.13 102.58 386.93 92.84 382.03 89.02L382.35 80.48C384.35 80.33 389.15 81.38 389.06 79.64L388.66 72.18L406.92 67.94Z" fill="#E8AF8E"/>
<path d="M407.12 72.43L406.92 67.94L388.66 72.18L389.03 79.06C390.91 80.54 402.42 86.74 407.12 72.43Z" fill="#A8624B"/>
<path d="M390.27 25.53C390.27 25.53 371.21 30.81 377.59 53.13C377.83 54.0411 377.83 54.9989 377.59 55.91C376.7 59.7 374.4 71.26 392.51 75.91C393.206 76.0897 393.932 76.1204 394.64 76C399.23 75.26 416.01 71.1 416.64 50.16C417.38 25.94 390.27 25.53 390.27 25.53Z" fill="#E8AF8E"/>
<path d="M399.18 52.56C399.18 53.81 399.94 54.81 400.88 54.81C401.82 54.81 402.59 53.81 402.59 52.56C402.663 52.297 402.675 52.0207 402.624 51.7525C402.572 51.4844 402.46 51.2317 402.295 51.0143C402.13 50.7969 401.916 50.6206 401.672 50.4992C401.427 50.3779 401.158 50.3147 400.885 50.3147C400.612 50.3147 400.343 50.3779 400.098 50.4992C399.854 50.6206 399.64 50.7969 399.475 51.0143C399.31 51.2317 399.198 51.4844 399.146 51.7525C399.095 52.0207 399.107 52.297 399.18 52.56Z" fill="#222221"/>
<path d="M384.92 52.85C385.009 53.1668 385.185 53.4524 385.428 53.6748C385.67 53.8972 385.97 54.0475 386.294 54.1089C386.617 54.1703 386.951 54.1403 387.258 54.0223C387.565 53.9044 387.834 53.703 388.033 53.441C388.232 53.1789 388.354 52.8666 388.386 52.5389C388.417 52.2113 388.356 51.8814 388.211 51.5863C388.065 51.2912 387.84 51.0426 387.561 50.8683C387.281 50.6941 386.959 50.6012 386.63 50.6C386.105 50.672 385.63 50.9494 385.31 51.3713C384.989 51.7931 384.849 52.3249 384.92 52.85Z" fill="#222221"/>
<path d="M393.22 58.53C392.849 58.3816 392.527 58.1321 392.29 57.81C392.07 57.44 392.49 57.04 392.7 56.75C393.058 56.2979 393.354 55.8002 393.58 55.27C393.881 54.5003 394.018 53.6758 393.98 52.85C393.98 52.38 393.22 52.38 393.24 52.85C393.291 53.6899 393.129 54.5292 392.77 55.29C392.493 55.7776 392.182 56.2454 391.84 56.69C391.646 56.9016 391.528 57.1726 391.506 57.4592C391.484 57.7458 391.56 58.0314 391.72 58.27C392.018 58.6576 392.406 58.9665 392.85 59.17C393.28 59.37 393.65 58.73 393.22 58.53Z" fill="#222221"/>
<path d="M398.92 60.64C398.92 62.51 400.97 64.02 403.5 64.02C406.03 64.02 408.08 62.51 408.08 60.64C408.08 58.77 406.03 57.27 403.5 57.27C400.97 57.27 398.92 58.78 398.92 60.64Z" fill="#D46A55"/>
<path d="M379.42 60.79C379.42 62.65 381.47 64.16 384 64.16C386.53 64.16 388.58 62.65 388.58 60.79C388.58 58.93 386.53 57.41 384 57.41C381.47 57.41 379.42 58.92 379.42 60.79Z" fill="#D46A55"/>
<path d="M399.16 62.1C398.676 62.9312 398.003 63.6363 397.195 64.1576C396.387 64.679 395.467 65.0019 394.51 65.1C393.514 65.1688 392.513 65.039 391.567 64.7179C390.621 64.3969 389.749 63.8911 389 63.23C388.46 62.75 387.66 63.54 388.2 64.02C389.076 64.7964 390.1 65.3886 391.21 65.7614C392.319 66.1342 393.493 66.2799 394.66 66.19C395.785 66.0683 396.867 65.687 397.819 65.0762C398.772 64.4653 399.57 63.6417 400.15 62.67C400.55 62.07 399.58 61.5 399.15 62.1H399.16Z" fill="#222221"/>
<path d="M397.93 45.44C397.8 46.51 399.16 46.07 401.18 46.31C403.2 46.55 405.09 47.38 405.18 46.31C405.27 45.24 403.78 44.17 401.77 43.93C399.76 43.69 398.06 44.36 397.93 45.44Z" fill="#222221"/>
<path d="M388.57 46.18C388.7 47.26 387.34 46.81 385.32 47.05C383.3 47.29 381.41 48.13 381.32 47.05C381.23 45.97 382.72 44.92 384.73 44.67C386.74 44.42 388.44 45.11 388.57 46.18Z" fill="#222221"/>
<path d="M391.52 70.79C391.52 71.28 392.28 71.67 393.23 71.67C394.18 71.67 394.93 71.28 394.93 70.79C394.93 70.3 394.17 70.53 393.23 70.53C392.29 70.53 391.52 70.31 391.52 70.79Z" fill="#CF866B"/>
<path d="M454.44 62.44C440.44 81.92 413.49 80.44 413.49 80.44C413.244 82.3198 412.613 84.1289 411.638 85.7546C410.662 87.3804 409.363 88.788 407.82 89.89C404.978 91.9518 401.561 93.0695 398.05 93.0857C394.538 93.1018 391.111 92.0156 388.25 89.98C386.651 88.8943 385.299 87.4834 384.282 85.8395C383.266 84.1956 382.607 82.3557 382.35 80.44C382.35 80.44 362.3 84.36 348.3 64.89L339 70.16C339 70.16 348.65 118.81 399.25 107.56V107.24C449.36 117.97 463.08 68.74 463.08 68.74L454.44 62.44Z" fill="#DD4D61"/>
<path d="M428.39 96.94L442.39 167.36C442.39 167.36 420.63 189.06 364.99 166.97L372.08 98.09C372.08 98.09 404.29 101.31 428.39 96.94Z" fill="#DD4D61"/>
<path d="M409.52 392.22H451.1C453.71 369.62 454.31 331.17 446.82 308.29H397.51V362.29H407.05L409.52 392.22Z" fill="#211E1D"/>
<path d="M401 392.22L403.48 362.34H413V308.34H363.7C356.2 331.22 356.81 369.67 359.42 392.27L401 392.22Z" fill="#211E1D"/>
<path d="M348.6 125.85C348.602 126.872 348.907 127.871 349.476 128.72C350.045 129.568 350.854 130.23 351.798 130.619C352.743 131.009 353.783 131.11 354.785 130.909C355.787 130.709 356.707 130.216 357.429 129.492C358.151 128.769 358.643 127.848 358.841 126.845C359.04 125.842 358.937 124.803 358.546 123.859C358.154 122.915 357.491 122.108 356.641 121.541C355.791 120.973 354.792 120.67 353.77 120.67C353.09 120.67 352.417 120.804 351.789 121.064C351.161 121.325 350.591 121.707 350.111 122.188C349.631 122.669 349.25 123.24 348.991 123.868C348.731 124.497 348.599 125.17 348.6 125.85Z" fill="#271E6D"/>
<path d="M352.13 155.36C352.13 156.383 352.433 157.382 353.001 158.232C353.569 159.083 354.377 159.745 355.322 160.136C356.266 160.528 357.306 160.63 358.309 160.431C359.312 160.231 360.233 159.739 360.956 159.016C361.679 158.293 362.171 157.372 362.371 156.369C362.57 155.366 362.468 154.326 362.076 153.382C361.685 152.437 361.023 151.629 360.172 151.061C359.322 150.493 358.323 150.19 357.3 150.19C355.929 150.19 354.614 150.735 353.644 151.704C352.675 152.674 352.13 153.989 352.13 155.36Z" fill="#271E6D"/>
<path d="M420.9 140C420.9 140 432.13 126.07 437.37 136C442.61 145.93 432 159.14 418.06 152.4L420.9 140Z" fill="#E9A585"/>
<path d="M437 146.32C436.528 147.36 435.813 148.271 434.915 148.976C434.017 149.681 432.962 150.159 431.84 150.37C425.98 151.27 422.68 143.63 423.84 136.92C422.793 137.881 421.811 138.91 420.9 140L418.06 152.42C429.93 158.17 439.39 149.33 438.69 140.48C438.394 142.494 437.825 144.459 437 146.32Z" fill="#CF866B"/>
<path d="M430 146.48C430 146.34 430 146.2 430 146.06C430 145.92 430 146.06 430 146.06C430 146.06 430 145.99 430 145.95C430 145.91 430 145.78 430.05 145.7C430.081 145.493 430.128 145.29 430.19 145.09C430.25 144.86 430.32 144.64 430.4 144.42C430.428 144.362 430.451 144.302 430.47 144.24C430.47 144.17 430.47 144.24 430.47 144.24V144.13C430.52 144.01 430.58 143.89 430.64 143.77C430.899 143.254 431.236 142.782 431.64 142.37C432.185 141.825 432.834 141.396 433.55 141.11C433.713 141.063 433.852 140.954 433.936 140.807C434.02 140.659 434.043 140.484 434 140.32C433.978 140.238 433.94 140.162 433.888 140.095C433.837 140.028 433.772 139.972 433.699 139.93C433.625 139.889 433.544 139.862 433.46 139.851C433.377 139.841 433.291 139.847 433.21 139.87C431.745 140.426 430.509 141.458 429.7 142.8C429.182 143.682 428.842 144.657 428.7 145.67C428.659 145.915 428.632 146.162 428.62 146.41C428.64 146.567 428.716 146.712 428.835 146.817C428.954 146.922 429.107 146.98 429.265 146.98C429.424 146.98 429.576 146.922 429.695 146.817C429.814 146.712 429.89 146.567 429.91 146.41L430 146.48Z" fill="#222221"/>
<path d="M430.1 143.9L430.34 143.97L430.45 144.02C430.54 144.02 430.27 143.94 430.39 144.02H430.46L430.78 144.19L430.93 144.29L431.02 144.35C431.1 144.4 430.91 144.26 430.97 144.35L431.31 144.66L431.47 144.84V144.79V144.85L431.56 144.98L431.68 145.19C431.68 145.24 431.68 145.28 431.75 145.32C431.748 145.343 431.748 145.367 431.75 145.39C431.75 145.39 431.7 145.26 431.75 145.39C431.833 145.621 431.897 145.858 431.94 146.1C431.94 146.1 431.94 146.17 431.94 146.19C431.94 146.21 431.94 146.08 431.94 146.19C431.94 146.3 431.94 146.33 431.94 146.41C431.95 146.563 431.95 146.717 431.94 146.87C431.94 147.041 432.007 147.205 432.127 147.326C432.247 147.448 432.409 147.517 432.58 147.52C432.75 147.513 432.911 147.442 433.031 147.321C433.152 147.201 433.223 147.04 433.23 146.87C433.293 145.812 432.961 144.768 432.3 143.94C431.869 143.431 431.315 143.042 430.69 142.81C430.583 142.764 430.473 142.728 430.36 142.7C430.279 142.677 430.193 142.67 430.109 142.68C430.025 142.69 429.944 142.717 429.87 142.758C429.797 142.799 429.732 142.855 429.679 142.921C429.627 142.987 429.588 143.064 429.565 143.145C429.542 143.226 429.535 143.312 429.545 143.396C429.555 143.48 429.582 143.561 429.623 143.635C429.664 143.708 429.72 143.773 429.786 143.826C429.853 143.878 429.929 143.917 430.01 143.94L430.1 143.9Z" fill="#222221"/>
<path d="M383.07 140C383.07 140 371.84 126.07 366.6 136C361.36 145.93 371.99 159.21 385.91 152.47L383.07 140Z" fill="#E9A585"/>
<path d="M367 146.32C367.472 147.36 368.187 148.271 369.085 148.976C369.983 149.681 371.038 150.159 372.16 150.37C378.02 151.27 381.32 143.63 380.16 136.92C381.196 137.875 382.168 138.897 383.07 139.98L385.91 152.4C374.04 158.15 364.58 149.31 365.28 140.46C365.58 142.483 366.159 144.456 367 146.32Z" fill="#CF866B"/>
<path d="M375.28 146.48C375.207 144.595 374.421 142.807 373.08 141.48C372.39 140.827 371.578 140.317 370.69 139.98C370.609 139.957 370.524 139.951 370.44 139.961C370.356 139.972 370.275 139.999 370.201 140.04C370.128 140.082 370.063 140.138 370.012 140.205C369.96 140.272 369.922 140.348 369.9 140.43C369.857 140.594 369.88 140.769 369.964 140.917C370.048 141.064 370.187 141.173 370.35 141.22C370.98 141.471 371.559 141.833 372.06 142.29C372.504 142.68 372.874 143.148 373.15 143.67L373.33 144.01L373.42 144.19C373.42 144.19 373.51 144.41 373.47 144.29C373.557 144.517 373.637 144.747 373.71 144.98C373.812 145.356 373.896 145.736 373.96 146.12C373.96 145.94 373.96 146.12 373.96 146.2C373.96 146.28 373.96 146.32 373.96 146.37C373.965 146.42 373.965 146.47 373.96 146.52C373.98 146.677 374.056 146.822 374.175 146.927C374.294 147.032 374.447 147.09 374.605 147.09C374.763 147.09 374.916 147.032 375.035 146.927C375.154 146.822 375.23 146.677 375.25 146.52L375.28 146.48Z" fill="#222221"/>
<path d="M373.52 142.66C373.163 142.752 372.825 142.904 372.52 143.11C371.803 143.55 371.252 144.215 370.95 145C370.733 145.585 370.638 146.207 370.67 146.83C370.659 146.921 370.667 147.014 370.694 147.102C370.721 147.19 370.767 147.272 370.828 147.341C370.889 147.41 370.964 147.465 371.048 147.503C371.132 147.541 371.223 147.56 371.315 147.56C371.407 147.56 371.498 147.541 371.582 147.503C371.666 147.465 371.741 147.41 371.802 147.341C371.863 147.272 371.909 147.19 371.936 147.102C371.963 147.014 371.971 146.921 371.96 146.83C371.95 146.7 371.95 146.57 371.96 146.44C371.955 146.373 371.955 146.307 371.96 146.24V146.17C371.96 146.11 371.96 146.02 371.96 146.17C371.962 146.065 371.979 145.96 372.01 145.86C372.01 145.75 372.07 145.63 372.11 145.52C372.124 145.476 372.141 145.432 372.16 145.39C372.22 145.23 372.16 145.46 372.16 145.39C372.197 145.3 372.241 145.214 372.29 145.13C372.331 145.053 372.378 144.98 372.43 144.91C372.43 144.91 372.55 144.75 372.43 144.85V144.79C372.536 144.669 372.649 144.556 372.77 144.45L372.85 144.38C372.91 144.38 372.71 144.48 372.85 144.38L373.02 144.26L373.36 144.07L373.49 144.01L373.39 144.06H373.46C373.556 144.016 373.657 143.983 373.76 143.96C373.922 143.911 374.059 143.802 374.143 143.655C374.227 143.508 374.251 143.334 374.21 143.17C374.161 143.006 374.05 142.867 373.901 142.783C373.752 142.699 373.576 142.677 373.41 142.72L373.52 142.66Z" fill="#222221"/>
<path d="M419.05 169.1V178.82C419.05 180.756 419.545 182.66 420.489 184.351C421.432 186.042 422.792 187.463 424.44 188.48L436.35 195.82C436.35 195.82 436.8 232.31 404.12 232.31C371.44 232.31 371.56 196 371.56 196L382.64 188.49C384.177 187.452 385.437 186.054 386.308 184.417C387.18 182.78 387.637 180.955 387.64 179.1V168.1L419.05 169.1Z" fill="#E9A585"/>
<path d="M419.05 176V169.1L387.61 168.1V177.63C392.53 190.21 413.76 189.4 419.05 176Z" fill="#A8624B"/>
<path d="M376.12 113.78C376.12 113.78 373.12 157.3 381.06 166.93C390.79 178.75 417 176.06 423.88 166.93C428.6 160.67 430.62 134.29 425.38 113.78C425.38 113.78 402.92 90.42 376.12 113.78Z" fill="#E9A585"/>
<path d="M411.61 140.1C412.941 140.1 414.02 138.676 414.02 136.92C414.02 135.164 412.941 133.74 411.61 133.74C410.279 133.74 409.2 135.164 409.2 136.92C409.2 138.676 410.279 140.1 411.61 140.1Z" fill="#222221"/>
<path d="M388.37 136.92C388.37 138.68 389.45 140.1 390.78 140.1C392.11 140.1 393.19 138.68 393.19 136.92C393.19 135.16 392.11 133.74 390.78 133.74C389.45 133.74 388.37 135.16 388.37 136.92Z" fill="#222221"/>
<path d="M398.91 146.64C398.203 146.353 397.591 145.875 397.14 145.26C396.72 144.56 397.51 143.8 397.91 143.26C398.581 142.391 399.146 141.444 399.59 140.44C400.162 138.977 400.418 137.409 400.34 135.84C400.34 134.95 398.91 134.94 398.94 135.84C399.036 137.438 398.726 139.034 398.04 140.48C397.518 141.408 396.93 142.297 396.28 143.14C395.912 143.542 395.689 144.057 395.648 144.6C395.606 145.144 395.748 145.686 396.05 146.14C396.615 146.873 397.354 147.454 398.2 147.83C399.01 148.21 399.72 147.01 398.91 146.63V146.64Z" fill="#222221"/>
<path d="M417.16 154.23C420.733 154.23 423.63 152.094 423.63 149.46C423.63 146.826 420.733 144.69 417.16 144.69C413.587 144.69 410.69 146.826 410.69 149.46C410.69 152.094 413.587 154.23 417.16 154.23Z" fill="#D46A55"/>
<path d="M386.06 154.23C389.633 154.23 392.53 152.094 392.53 149.46C392.53 146.826 389.633 144.69 386.06 144.69C382.487 144.69 379.59 146.826 379.59 149.46C379.59 152.094 382.487 154.23 386.06 154.23Z" fill="#D46A55"/>
<path d="M407.9 125.68C407.72 127.19 409.64 126.57 412.49 126.91C415.34 127.25 418.03 128.43 418.21 126.91C418.39 125.39 416.21 123.91 413.38 123.55C410.55 123.19 408.08 124.16 407.9 125.68Z" fill="#222221"/>
<path d="M394.14 126.23C394.32 127.74 392.39 127.12 389.55 127.46C386.71 127.8 384.01 128.98 383.83 127.46C383.65 125.94 385.83 124.46 388.66 124.1C391.49 123.74 394 124.71 394.14 126.23Z" fill="#222221"/>
<path d="M400.7 166.12C400.7 166.8 401.78 167.36 403.11 167.36C404.44 167.36 405.52 166.8 405.52 166.12C405.52 165.44 404.44 165.75 403.11 165.75C401.78 165.75 400.7 165.44 400.7 166.12Z" fill="#CF866B"/>
<path d="M399.88 155.59C400.108 155.791 400.373 155.943 400.661 156.039C400.949 156.135 401.253 156.172 401.555 156.147C401.858 156.123 402.152 156.038 402.421 155.898C402.69 155.757 402.927 155.564 403.12 155.33C404.45 153.71 406.46 152.03 408.36 153.55C411.36 155.97 407.26 162.09 401.49 162.45C395.72 162.81 392.72 156.45 394.23 154.69C395.89 152.77 398.26 154.13 399.88 155.59Z" fill="white"/>
<path d="M431.39 132.47C431.39 132.47 427.63 141.62 425.05 139.62C422.47 137.62 424.27 121.5 424.27 121.5C424.27 121.5 424.62 126.83 421.4 125.85C418.18 124.87 414.85 111.08 414.85 111.08C414.85 111.08 392.85 104.81 385.91 110.69C377.91 117.43 384.25 140.1 377.36 141.51C374.36 142.12 375.58 133.74 375.58 133.74C375.58 133.74 362.95 124.36 365.25 111.12C367.55 97.88 389.68 99.73 393.19 99.66C393.19 99.66 391.4 95.66 395.05 94.08C398.7 92.5 426.64 95.15 431.39 106.39C436.14 117.63 431.39 132.47 431.39 132.47Z" fill="#7A5FA0"/>
<path d="M454.44 227.12C454.44 227.12 495.53 181.95 501.54 155.36C507.55 128.77 487.06 87.49 487.06 87.49L467.3 93.66L473.52 139.08C473.854 141.545 473.609 144.055 472.803 146.409C471.998 148.762 470.654 150.896 468.88 152.64L429.34 191.5C429.34 191.5 424.86 208.17 403.22 208.23C381.58 208.29 377.11 191.5 377.11 191.5L337.56 152.64C335.787 150.895 334.446 148.761 333.642 146.407C332.839 144.053 332.595 141.545 332.93 139.08L339.14 93.66L319.38 87.49C319.38 87.49 298.89 128.77 304.9 155.36C310.91 181.95 350.17 209.42 350.17 209.42L355 283.69C355 283.69 359.15 308.46 352 312.38C344.85 316.3 347 319.63 347 319.63C364.89 337.25 400.94 337.13 403.2 337.11C405.46 337.09 441.51 337.25 459.4 319.63C459.4 319.63 461.62 316.3 454.4 312.38C447.18 308.46 451.4 283.69 451.4 283.69L454.44 227.12Z" fill="#1D3345"/>
<path d="M374.13 271.57C366.179 268.853 359.035 264.188 353.35 258L355 283.69C355 283.69 359.15 308.46 352 312.38C344.85 316.3 347 319.63 347 319.63C364.89 337.25 400.94 337.13 403.2 337.11C405.46 337.09 441.51 337.25 459.4 319.63C459.4 319.63 461.62 316.3 454.4 312.38C447.18 308.46 451.4 283.69 451.4 283.69L452.26 267.77C429.12 281.53 397.93 280.6 374.13 271.57Z" fill="#15222C"/>
<path d="M350 209.37H350.15L343.59 205C342.077 203.973 340.839 202.591 339.983 200.975C339.127 199.359 338.68 197.559 338.68 195.73V184.83L307.68 185.83V195.42C307.68 197.33 307.191 199.209 306.259 200.877C305.328 202.545 303.986 203.947 302.36 204.95L295.07 209.45C295.91 210.13 320.06 230.34 350 209.37Z" fill="#E9A585"/>
<path d="M307.67 192.61V185.79L338.67 184.79V194.2C333.83 206.61 312.89 205.82 307.67 192.61Z" fill="#A8624B"/>
<path d="M317 132.4C325.268 132.4 331.97 125.698 331.97 117.43C331.97 109.162 325.268 102.46 317 102.46C308.732 102.46 302.03 109.162 302.03 117.43C302.03 125.698 308.732 132.4 317 132.4Z" fill="#271E6D"/>
<path d="M325.16 109.76C325.158 110.785 325.46 111.788 326.029 112.642C326.597 113.495 327.406 114.16 328.353 114.554C329.3 114.947 330.342 115.051 331.348 114.851C332.354 114.651 333.278 114.158 334.003 113.433C334.728 112.708 335.221 111.784 335.421 110.778C335.621 109.772 335.517 108.73 335.124 107.783C334.731 106.836 334.065 106.027 333.212 105.459C332.358 104.89 331.355 104.588 330.33 104.59C328.959 104.59 327.644 105.135 326.674 106.104C325.705 107.074 325.16 108.389 325.16 109.76Z" fill="#271E6D"/>
<path d="M296.86 114.38C296.858 115.405 297.16 116.407 297.728 117.261C298.296 118.114 299.104 118.779 300.051 119.173C300.997 119.566 302.039 119.67 303.044 119.472C304.05 119.273 304.974 118.78 305.699 118.056C306.425 117.332 306.919 116.409 307.12 115.404C307.32 114.399 307.218 113.357 306.827 112.41C306.435 111.463 305.771 110.653 304.919 110.084C304.067 109.514 303.065 109.21 302.04 109.21C300.668 109.21 299.352 109.754 298.381 110.724C297.41 111.693 296.863 113.008 296.86 114.38Z" fill="#271E6D"/>
<path d="M280.05 137.25C280.05 138.275 280.354 139.276 280.923 140.128C281.492 140.98 282.301 141.644 283.248 142.036C284.194 142.428 285.236 142.53 286.241 142.33C287.245 142.131 288.168 141.637 288.893 140.913C289.617 140.188 290.111 139.265 290.31 138.261C290.51 137.256 290.408 136.214 290.016 135.268C289.624 134.321 288.96 133.512 288.108 132.943C287.256 132.374 286.255 132.07 285.23 132.07C283.856 132.07 282.539 132.616 281.567 133.587C280.596 134.559 280.05 135.876 280.05 137.25Z" fill="#271E6D"/>
<path d="M283.72 169.54C286.575 169.54 288.89 167.225 288.89 164.37C288.89 161.515 286.575 159.2 283.72 159.2C280.865 159.2 278.55 161.515 278.55 164.37C278.55 167.225 280.865 169.54 283.72 169.54Z" fill="#271E6D"/>
<path d="M341.05 135.26C349.318 135.26 356.02 128.558 356.02 120.29C356.02 112.022 349.318 105.32 341.05 105.32C332.782 105.32 326.08 112.022 326.08 120.29C326.08 128.558 332.782 135.26 341.05 135.26Z" fill="#271E6D"/>
<path d="M310.608 133.433C313.744 125.783 310.085 117.039 302.435 113.903C294.785 110.767 286.041 114.427 282.905 122.077C279.769 129.727 283.429 138.47 291.079 141.606C298.729 144.742 307.472 141.083 310.608 133.433Z" fill="#271E6D"/>
<path d="M287.78 166.52C296.048 166.52 302.75 159.818 302.75 151.55C302.75 143.282 296.048 136.58 287.78 136.58C279.512 136.58 272.81 143.282 272.81 151.55C272.81 159.818 279.512 166.52 287.78 166.52Z" fill="#271E6D"/>
<path d="M295.02 187.64C303.288 187.64 309.99 180.938 309.99 172.67C309.99 164.402 303.288 157.7 295.02 157.7C286.752 157.7 280.05 164.402 280.05 172.67C280.05 180.938 286.752 187.64 295.02 187.64Z" fill="#271E6D"/>
<path d="M352.13 155.07C360.398 155.07 367.1 148.368 367.1 140.1C367.1 131.832 360.398 125.13 352.13 125.13C343.862 125.13 337.16 131.832 337.16 140.1C337.16 148.368 343.862 155.07 352.13 155.07Z" fill="#271E6D"/>
<path d="M345.56 176.74C353.828 176.74 360.53 170.038 360.53 161.77C360.53 153.502 353.828 146.8 345.56 146.8C337.292 146.8 330.59 153.502 330.59 161.77C330.59 170.038 337.292 176.74 345.56 176.74Z" fill="#271E6D"/>
<path d="M306.43 159.22C306.43 159.22 293.15 147.22 289.53 157.82C285.91 168.42 298.53 179.89 311.19 171.05L306.43 159.22Z" fill="#E9A585"/>
<path d="M291.55 168C292.18 168.952 293.029 169.74 294.026 170.296C295.023 170.853 296.139 171.163 297.28 171.2C303.21 171.2 305.28 163.1 303.08 156.65C304.249 157.432 305.368 158.287 306.43 159.21L311.19 171.04C300.37 178.57 289.63 171.34 288.94 162.48C289.544 164.434 290.423 166.293 291.55 168Z" fill="#CF866B"/>
<path d="M299.74 166.8C299.621 166.214 299.426 165.646 299.16 165.11C298.629 163.96 297.809 162.968 296.78 162.23C296.033 161.709 295.19 161.342 294.3 161.15C294.134 161.109 293.96 161.133 293.811 161.216C293.662 161.3 293.551 161.437 293.5 161.6C293.459 161.764 293.484 161.938 293.567 162.085C293.651 162.232 293.788 162.341 293.95 162.39C294.663 162.527 295.343 162.802 295.95 163.2L296.15 163.34L296.24 163.41C296.33 163.47 296.17 163.35 296.24 163.41C296.37 163.505 296.493 163.609 296.61 163.72C296.838 163.929 297.049 164.157 297.24 164.4L297.31 164.48C297.31 164.48 297.23 164.38 297.31 164.48L297.43 164.65C297.51 164.76 297.58 164.88 297.66 165C297.79 165.209 297.907 165.426 298.01 165.65C298.06 165.75 298.11 165.85 298.15 165.95C298.19 166.05 298.1 165.81 298.15 165.95L298.21 166.1C298.27 166.27 298.33 166.43 298.38 166.59C298.433 166.764 298.476 166.941 298.51 167.12C298.557 167.283 298.666 167.422 298.813 167.506C298.961 167.59 299.136 167.613 299.3 167.57C299.462 167.521 299.599 167.412 299.683 167.265C299.766 167.118 299.791 166.944 299.75 166.78L299.74 166.8Z" fill="#222221"/>
<path d="M297.52 163.34C296.953 163.574 296.45 163.94 296.053 164.408C295.656 164.876 295.378 165.432 295.24 166.03C295.102 166.69 295.102 167.37 295.24 168.03C295.287 168.193 295.396 168.332 295.543 168.416C295.691 168.5 295.866 168.523 296.03 168.48C296.192 168.431 296.329 168.322 296.413 168.175C296.497 168.028 296.521 167.854 296.48 167.69C296.48 167.62 296.48 167.55 296.48 167.48C296.48 167.41 296.48 167.43 296.48 167.4C296.48 167.37 296.48 167.5 296.48 167.4C296.48 167.3 296.48 167.13 296.48 167C296.48 166.87 296.48 166.78 296.48 166.67C296.48 166.56 296.48 166.57 296.48 166.53C296.48 166.49 296.48 166.65 296.48 166.53C296.48 166.41 296.48 166.47 296.48 166.44C296.519 166.251 296.57 166.064 296.63 165.88C296.63 165.88 296.63 165.82 296.63 165.81C296.63 165.8 296.58 165.93 296.63 165.87L296.69 165.75C296.724 165.67 296.764 165.593 296.81 165.52C296.81 165.45 296.9 165.39 296.94 165.33C296.98 165.27 297.05 165.25 296.94 165.33C296.969 165.302 296.996 165.272 297.02 165.24C297.112 165.129 297.213 165.026 297.32 164.93L297.46 164.81H297.41L297.49 164.75L297.75 164.58L297.95 164.47H297.88C298.042 164.421 298.179 164.312 298.263 164.165C298.347 164.018 298.371 163.844 298.33 163.68C298.308 163.598 298.27 163.522 298.218 163.455C298.167 163.388 298.102 163.332 298.029 163.29C297.955 163.249 297.874 163.222 297.79 163.211C297.707 163.201 297.621 163.207 297.54 163.23L297.52 163.34Z" fill="#222221"/>
<path d="M346.53 126.31C346.53 126.31 356.31 168.83 350.01 179.58C342.25 192.79 315.96 194.24 307.72 186.3C302.08 180.87 295.94 155.13 297.89 134.05C297.89 134.05 316.4 107.46 346.53 126.31Z" fill="#E9A585"/>
<path d="M319.38 156.52C319.66 158.26 318.82 159.83 317.5 160.04C316.18 160.25 314.9 159.04 314.62 157.28C314.34 155.52 315.19 153.97 316.5 153.76C317.81 153.55 319.11 154.79 319.38 156.52Z" fill="#222221"/>
<path d="M341 153.36C341.28 155.09 340.44 156.67 339.13 156.88C337.82 157.09 336.52 155.88 336.25 154.11C335.98 152.34 336.81 150.8 338.12 150.59C339.43 150.38 340.72 151.62 341 153.36Z" fill="#222221"/>
<path d="M331.06 166.18C331.983 165.594 332.741 164.782 333.26 163.82C333.9 162.5 333.36 161.41 332.42 160.44C331.578 159.65 330.793 158.801 330.07 157.9C329.039 156.417 328.399 154.697 328.21 152.9C328.202 152.691 328.115 152.493 327.967 152.346C327.818 152.199 327.619 152.115 327.41 152.11C327.306 152.11 327.204 152.13 327.108 152.17C327.012 152.21 326.925 152.268 326.851 152.341C326.778 152.415 326.72 152.502 326.68 152.598C326.64 152.694 326.62 152.796 326.62 152.9C326.799 154.685 327.35 156.412 328.24 157.97C328.902 159.014 329.692 159.971 330.59 160.82C331.13 161.35 332.15 162.04 331.95 162.82C331.596 163.623 331.007 164.299 330.26 164.76C329.42 165.33 330.21 166.7 331.06 166.13V166.18Z" fill="#222221"/>
<path d="M319.52 167C319.93 169.61 317.41 172.17 313.88 172.73C310.35 173.29 307.15 171.64 306.74 169.04C306.33 166.44 308.85 163.87 312.38 163.31C315.91 162.75 319.1 164.38 319.52 167Z" fill="#D46A55"/>
<path d="M351.44 162.81C351.85 165.41 349.33 167.98 345.8 168.54C342.27 169.1 339.07 167.44 338.66 164.84C338.25 162.24 340.77 159.68 344.3 159.11C347.83 158.54 351 160.21 351.44 162.81Z" fill="#D46A55"/>
<path d="M315.46 169.44C316.22 172.435 317.985 175.079 320.46 176.93C324.46 179.78 330.38 178.73 334.01 175.69C334.79 175.03 333.66 173.92 332.89 174.57C329.68 177.27 324.34 178.05 320.89 175.31C318.974 173.658 317.616 171.454 317 169C316.935 168.81 316.799 168.652 316.621 168.558C316.443 168.465 316.236 168.442 316.043 168.496C315.849 168.549 315.683 168.675 315.578 168.846C315.474 169.018 315.439 169.223 315.48 169.42L315.46 169.44Z" fill="#222221"/>
<path d="M318.58 146.1C319 147.57 317 147.26 314.24 148.04C311.48 148.82 309.01 150.41 308.6 148.94C308.19 147.47 310.07 145.64 312.83 144.86C315.59 144.08 318.16 144.63 318.58 146.1Z" fill="#222221"/>
<path d="M332.26 144.48C332.32 146.01 334.12 145.09 336.99 144.98C339.86 144.87 342.69 145.61 342.63 144.08C342.57 142.55 340.2 141.41 337.34 141.52C334.48 141.63 332.2 143 332.26 144.48Z" fill="#222221"/>
<path d="M330.22 182.17C330.28 182.84 329.22 183.49 327.93 183.61C326.64 183.73 325.47 183.28 325.41 182.61C325.35 181.94 326.41 182.14 327.78 182.02C329.15 181.9 330.16 181.49 330.22 182.17Z" fill="#CF866B"/>
<path d="M296.62 153.73C296.62 153.73 297.7 157.52 300.62 156.12C303.54 154.72 300 144.5 300 144.5C300 144.5 313.56 146.24 309.69 135.18C310.914 136.354 312.403 137.216 314.03 137.693C315.658 138.17 317.376 138.248 319.04 137.92C324.57 136.68 325.16 128.2 325.16 128.2C325.16 128.2 326.29 131.58 328.86 131.79C331.43 132 334.66 127.66 334.66 127.66C334.66 127.66 339.73 143.66 349.98 144.73L349.43 123.58C349.43 123.58 315.28 107.25 294.98 130.77L296.62 153.73Z" fill="#271E6D"/>
<path d="M298.45 245.81L317.79 280.39C317.79 280.39 365.05 275.45 376.86 277.81L379.44 290.7C379.44 290.7 320.22 314.76 310 312.19C299.78 309.62 274.42 268.19 274.42 268.19C274.42 268.19 281.7 248.39 298.45 245.81Z" fill="#E9A585"/>
<path d="M368.75 283.12C368.75 283.12 365.36 277.57 370.21 273.12C375.06 268.67 374.73 261.63 377.85 260.69C380.43 259.91 380.93 264.43 379.91 267.69C379.17 270.09 376.91 272.38 377.61 272.43C378.31 272.48 382.36 272.04 384.26 270.73C386.42 269.24 396.64 260.99 397.05 260.56C400.18 257.29 401.54 259.12 401.54 259.12C404.01 261.44 397.47 267.24 395.67 268.87C392.95 271.34 388.14 275.09 388.14 275.09L388.4 275.59C388.4 275.59 406.9 268.81 407.86 268.47C408.092 268.346 408.346 268.268 408.607 268.242C408.869 268.216 409.133 268.242 409.385 268.318C409.637 268.394 409.871 268.519 410.074 268.686C410.278 268.853 410.446 269.058 410.57 269.29C410.88 270.01 410.76 271.29 408.87 272.49C406 274.33 395.62 280.24 391.07 281.66C391.07 281.66 401.9 278.82 406.33 278.96C407.8 279.01 410.16 279.04 410.26 280.73C410.37 282.65 407.04 283.3 406.54 283.44C403.12 284.39 394.95 286.22 391.21 286.39L391.03 287.07C391.03 287.07 401.24 286.41 403.92 287.54C404.18 287.65 405.49 288.15 405.27 289.37C404.93 291.27 403.08 290.77 402.7 290.69C400.81 290.27 387.76 292.18 386.53 292.5C383.63 293.25 378.13 294.18 373.91 291.95C372.255 291.176 370.876 289.916 369.954 288.339C369.032 286.762 368.612 284.942 368.75 283.12Z" fill="#E9A585"/>
<path d="M273.11 270.65C273.11 270.65 256.92 240.65 266.38 223.82C274.02 210.22 288.9 210.65 288.9 210.65L304.61 248.15C293.607 254.92 283.083 262.438 273.11 270.65Z" fill="#487FD2"/>
<path d="M419.05 174.52C421.878 171.912 424.277 168.874 426.16 165.52C429.86 158.67 432.86 150.2 438.73 153.52C456.99 163.73 451.73 211.18 439.73 228.15L427.35 223.86C427.35 223.86 432.16 197.17 429.4 195.71C426.64 194.25 419.05 185.82 419.05 174.52Z" fill="#DD4D61"/>
<path d="M387.61 172.7C383.965 171.054 380.751 168.587 378.22 165.49C374.68 161.03 372.79 153.57 368.91 155.36C349.91 164.13 354.67 211.11 366.7 228.08L379.08 223.79C379.08 223.79 374.27 197.1 377.03 195.64C379.79 194.18 387.61 184 387.61 172.7Z" fill="#DD4D61"/>
<path d="M417.86 42.31C417.86 42.31 419.18 53.91 415.31 53.48C411.44 53.05 408.66 36.14 404.31 31.71C404.31 31.71 403.23 37.65 405.95 39.71L398.44 40.49C397.068 39.4954 395.978 38.1614 395.277 36.6187C394.576 35.0761 394.287 33.3777 394.44 31.69C394.44 31.69 391.16 32.55 392.76 41L375.32 43.07C375.32 43.07 376.81 23.34 393.64 25.51C410.47 27.68 417.86 42.31 417.86 42.31Z" fill="#271E6D"/>
<path d="M454.44 62.44L463.05 51.91L467.59 53.49L463.05 68.74C463.05 68.74 458.49 68 454.44 62.44Z" fill="#E8AF8E"/>
<path d="M465 52.82C466.19 56.38 467 59.94 465.13 60.57C463.26 61.2 462.13 58.36 460.96 54.8C459.79 51.24 458.91 48.32 460.82 47.68C462.73 47.04 463.8 49.26 465 52.82Z" fill="#E9A585"/>
<path d="M468.5 51.06C469.69 54.62 470.5 58.18 468.63 58.82C466.76 59.46 465.63 56.6 464.46 53.04C463.29 49.48 462.46 46.56 464.32 45.92C466.18 45.28 467.31 47.5 468.5 51.06Z" fill="#E9A585"/>
<path d="M472.57 50.3C473.63 53.46 474.34 56.62 472.43 57.3C470.52 57.98 469.57 55.41 468.51 52.3C467.45 49.19 466.71 46.55 468.62 45.91C470.53 45.27 471.52 47.15 472.57 50.3Z" fill="#E9A585"/>
<path d="M476.75 52.74C477.24 56.04 477.39 59.28 475.4 59.57C473.41 59.86 472.91 57.21 472.4 53.92C471.89 50.63 471.62 47.92 473.62 47.65C475.62 47.38 476.27 49.45 476.75 52.74Z" fill="#E9A585"/>
<path d="M467 73.27C467 73.27 473.6 68.81 461.81 60.71C458.56 58.48 462.21 51.37 459.36 52.24C456.51 53.11 454.48 67 467 73.27Z" fill="#E9A585"/>
<path d="M462.89 48.9C463.47 49.99 464 51.1 464.49 52.23C465.405 54.072 465.981 56.0638 466.19 58.11C466.19 58.85 466.13 59.7 465.36 60.03C464.94 60.21 465.31 60.84 465.73 60.65C467.43 59.92 466.93 57.43 466.59 56.04C466.013 53.9316 465.223 51.8876 464.23 49.94C464 49.47 463.76 49 463.51 48.54C463.26 48.08 462.67 48.54 462.89 48.9Z" fill="#222221"/>
<path d="M467.13 48.45C467.595 49.3336 468.013 50.2415 468.38 51.17C469.113 52.7429 469.547 54.4384 469.66 56.17C469.696 56.5385 469.647 56.9102 469.517 57.2568C469.387 57.6034 469.179 57.9158 468.91 58.17C468.54 58.44 468.91 59.07 469.27 58.79C470.66 57.79 470.47 55.79 470.17 54.34C469.758 52.5546 469.141 50.8231 468.33 49.18C468.14 48.79 467.96 48.4 467.75 48.02C467.54 47.64 466.91 47.97 467.13 48.38V48.45Z" fill="#222221"/>
<path d="M471.83 49.27C472.12 50 472.37 50.76 472.59 51.52C473.038 52.8057 473.261 54.1587 473.25 55.52C473.268 55.7654 473.222 56.0113 473.117 56.2337C473.012 56.4562 472.851 56.6478 472.65 56.79C472.23 57 472.65 57.62 473.01 57.42C474.14 56.85 474.01 55.23 473.91 54.19C473.717 52.7765 473.382 51.3861 472.91 50.04C472.8 49.73 472.69 49.42 472.56 49.11C472.43 48.8 471.7 48.87 471.87 49.31L471.83 49.27Z" fill="#222221"/>
<path d="M474.47 57.71C474.896 57.8941 475.368 57.939 475.821 57.8385C476.273 57.7379 476.683 57.497 476.99 57.15C477.464 56.2414 477.572 55.1855 477.29 54.2C477.08 52.9 476.85 51.61 476.56 50.34C476.46 49.88 476.36 49.43 476.22 48.98C476.08 48.53 475.38 48.73 475.52 49.18C475.87 50.391 476.141 51.6236 476.33 52.87C476.52 53.93 477.44 57.04 475.55 57.14C475.247 57.1648 474.943 57.1203 474.66 57.01C474.22 56.85 474.03 57.55 474.47 57.71Z" fill="#222221"/>
<path d="M458.2 54.21C458.332 53.6755 458.609 53.1877 459 52.8C459.25 52.57 459.85 52.27 460.15 52.58C460.3 52.73 460.24 53.1 460.23 53.29C460.1 55.03 459.5 56.66 459.92 58.42C460.48 60.75 462.84 61.98 464.72 63.17C466.8 64.49 469.28 65.82 470.19 68.25C470.36 68.68 471.06 68.49 470.89 68.06C470.096 66.2816 468.759 64.8006 467.07 63.83C466.07 63.14 465 62.52 463.98 61.83C462.875 61.2304 461.902 60.4141 461.12 59.43C460.12 57.85 460.54 55.9 460.83 54.18C460.98 53.28 461.22 51.96 460.02 51.77C458.82 51.58 457.82 52.89 457.52 54.01C457.506 54.0975 457.525 54.1872 457.573 54.2618C457.621 54.3363 457.694 54.3906 457.78 54.4141C457.865 54.4377 457.957 54.4288 458.036 54.3893C458.115 54.3498 458.177 54.2824 458.21 54.2L458.2 54.21Z" fill="#222221"/>
<path d="M337.93 89.34L341.85 73.69C351.45 55.35 329.75 49.15 326.18 57.77C321.87 68.18 326.26 70.92 326.26 70.92L321.08 85.68L337.93 89.34Z" fill="#E9A585"/>
<path d="M348.3 64.89L338.71 55.24L334.35 57.24L340.35 71.98C340.35 71.98 344.82 70.85 348.3 64.89Z" fill="#E8AF8E"/>
<path d="M336.87 56.34C336.03 60 335.53 63.62 337.5 64.07C339.47 64.52 340.24 61.58 341.08 57.92C341.92 54.26 342.49 51.27 340.53 50.82C338.57 50.37 337.7 52.68 336.87 56.34Z" fill="#E9A585"/>
<path d="M333.2 54.93C332.36 58.59 331.87 62.22 333.83 62.66C335.79 63.1 336.57 60.17 337.41 56.51C338.25 52.85 338.82 49.86 336.86 49.41C334.9 48.96 334 51.27 333.2 54.93Z" fill="#E9A585"/>
<path d="M329.07 54.58C328.33 57.82 327.93 61.04 329.89 61.49C331.85 61.94 332.56 59.33 333.3 56.09C334.04 52.85 334.54 50.19 332.58 49.74C330.62 49.29 329.81 51.33 329.07 54.58Z" fill="#E9A585"/>
<path d="M325.15 57.41C324.99 60.74 325.15 63.98 327.15 64.07C329.15 64.16 329.41 61.49 329.57 58.16C329.73 54.83 329.76 52.16 327.75 52.04C325.74 51.92 325.32 54.09 325.15 57.41Z" fill="#E9A585"/>
<path d="M336.88 76.88C336.88 76.88 329.88 73.09 340.82 63.88C343.82 61.35 339.51 54.63 342.44 55.22C345.37 55.81 348.7 69.39 336.88 76.88Z" fill="#E9A585"/>
<path d="M337.9 52C337.356 53.3073 336.882 54.6425 336.48 56C335.87 58 335.18 60.27 335.48 62.36C335.51 62.7793 335.66 63.181 335.912 63.5178C336.164 63.8545 336.507 64.1121 336.9 64.26C337.34 64.4 337.53 63.71 337.09 63.56C335.58 63.08 336.15 60.3 336.36 59.21C336.758 57.2595 337.32 55.346 338.04 53.49C338.21 53.06 338.37 52.64 338.55 52.21C338.73 51.78 338.03 51.6 337.85 52.02L337.9 52Z" fill="#222221"/>
<path d="M333.64 52C333.205 53.0564 332.834 54.1385 332.53 55.24C331.919 57.0118 331.704 58.8961 331.9 60.76C331.953 61.1645 332.094 61.5526 332.311 61.8979C332.529 62.2431 332.818 62.5372 333.16 62.76C333.201 62.7843 333.246 62.8003 333.293 62.8072C333.34 62.8141 333.387 62.8116 333.433 62.8C333.479 62.7884 333.523 62.7679 333.561 62.7395C333.599 62.7112 333.631 62.6757 333.655 62.635C333.679 62.5943 333.695 62.5492 333.702 62.5023C333.709 62.4554 333.707 62.4076 333.695 62.3616C333.683 62.3156 333.663 62.2724 333.635 62.2344C333.606 62.1964 333.571 62.1643 333.53 62.14C332.21 61.36 332.46 59.23 332.65 57.97C332.922 56.3425 333.351 54.7451 333.93 53.2C334.06 52.85 334.19 52.5 334.33 52.15C334.47 51.8 333.81 51.53 333.64 51.96V52Z" fill="#222221"/>
<path d="M329 53.31C328.755 54.1725 328.555 55.047 328.4 55.93C328.054 57.3481 328.006 58.8225 328.26 60.26C328.314 60.5698 328.443 60.8614 328.637 61.1092C328.831 61.3569 329.082 61.5529 329.37 61.68C329.8 61.85 329.99 61.15 329.56 60.98C329.13 60.81 329.02 60.35 328.93 59.98C328.818 59.3632 328.792 58.7341 328.85 58.11C328.949 56.834 329.16 55.5692 329.48 54.33C329.55 54.06 329.62 53.78 329.7 53.51C329.713 53.464 329.717 53.4159 329.712 53.3684C329.706 53.321 329.691 53.275 329.668 53.2332C329.645 53.1914 329.614 53.1546 329.576 53.1249C329.539 53.0952 329.496 53.0731 329.45 53.06C329.404 53.0469 329.356 53.0429 329.308 53.0484C329.261 53.0538 329.215 53.0686 329.173 53.0918C329.131 53.115 329.095 53.1462 329.065 53.1837C329.035 53.2211 329.013 53.264 329 53.31Z" fill="#222221"/>
<path d="M327.6 61.48H327.46C327.299 61.5391 327.131 61.5793 326.96 61.6C326.743 61.647 326.517 61.6284 326.31 61.5465C326.103 61.4646 325.926 61.3231 325.8 61.14C325.22 60.25 325.5 58.88 325.57 57.89C325.64 56.9 325.74 55.81 325.87 54.78C325.87 54.43 325.97 54.07 326.05 53.72C326.13 53.37 325.45 53.07 325.35 53.52C325.067 55.0322 324.893 56.5628 324.83 58.1C324.75 59.19 324.55 60.55 325.2 61.53C325.372 61.7894 325.607 62.0002 325.884 62.142C326.161 62.2839 326.469 62.3521 326.78 62.34C327.195 62.3245 327.603 62.2259 327.98 62.05C328.4 61.84 328.04 61.22 327.62 61.42L327.6 61.48Z" fill="#222221"/>
<path d="M344.44 56.84C344.1 55.93 343.38 54.84 342.33 54.77C341.01 54.65 340.77 55.66 341 56.7C341.35 58.32 342.05 59.91 341.7 61.6C341.397 62.7002 340.726 63.6635 339.8 64.33C338.86 65.17 337.86 65.94 336.86 66.71C335.03 68.15 333.13 69.71 332.5 72.05C332.486 72.1375 332.505 72.2272 332.553 72.3018C332.601 72.3763 332.674 72.4306 332.76 72.4541C332.845 72.4777 332.937 72.4688 333.016 72.4293C333.095 72.3898 333.157 72.3224 333.19 72.24C333.86 69.77 336.09 68.24 338.01 66.73C339.78 65.34 342.08 63.9 342.45 61.5C342.72 59.76 342.05 58.18 341.69 56.5C341.601 56.2466 341.58 55.974 341.63 55.71C341.82 55.33 342.42 55.46 342.72 55.64C343.187 55.9868 343.536 56.4685 343.72 57.02C343.88 57.45 344.58 57.27 344.41 56.83L344.44 56.84Z" fill="#222221"/>
<path d="M314.5 91.78C314.5 91.78 322.56 100.78 340.06 101.02L343.39 87.17C343.39 87.17 327.05 82.76 319.85 77.82L314.5 91.78Z" fill="#E1CEC1"/>
<path d="M376.71 224.61C376.903 227.209 377.852 229.694 379.44 231.76C382 234.84 374.63 244.76 368.98 243.2C363.33 241.64 371.27 233.55 371.56 232.31C371.85 231.07 368.61 227.42 368.61 227.42L376.71 224.61Z" fill="#E1CEC1"/>
<path d="M429.69 224.61C429.502 227.21 428.552 229.696 426.96 231.76C424.4 234.84 431.78 244.76 437.42 243.2C443.06 241.64 435.13 233.55 434.85 232.31C434.57 231.07 437.79 227.42 437.79 227.42L429.69 224.61Z" fill="#E1CEC1"/>
<path d="M491.94 91.78C491.94 91.78 483.88 100.78 466.38 101.02L463.05 87.17C463.05 87.17 479.39 82.76 486.59 77.82L491.94 91.78Z" fill="#E1CEC1"/>
<path d="M535.36 116.31C535.36 116.31 538.43 102.51 558.99 103.92C579.55 105.33 592.84 119.4 592.72 147.49C592.72 147.49 630.91 201.49 576.94 209.81C522.97 218.13 488.48 216.07 493.08 193.46C497.68 170.85 513.77 170.93 509.81 153.46C505.85 135.99 522 113.38 535.36 116.31Z" fill="#222221"/>
<path d="M524 257.77L520.14 295.14C520.14 295.14 499.47 322 504.07 369.23H602.22L599.81 253.5L524 257.77Z" fill="#B5A2B8"/>
<path d="M620.27 249.94C620.27 249.94 620.43 255.88 585.27 253.94V238.11C585.27 238.11 614.9 237.87 620.27 249.94Z" fill="#644B87"/>
<path d="M612.86 297.46C613.29 285.11 614.14 244 614.14 244H590.07C590.07 244 587.5 283.83 589.92 297.46H612.86Z" fill="#E8AF8E"/>
<path d="M580.58 197.87L582.87 247.64C582.87 247.64 603.02 243.04 620.27 249.94C620.27 249.94 623.14 243.09 615.48 238.18C615.48 238.18 621 195.51 580.58 197.87Z" fill="#7A5FA0"/>
<path d="M490.08 249.09C490.08 249.09 489.92 255.03 525.08 253.09V237.26C525.08 237.26 495.44 237 490.08 249.09Z" fill="#644B87"/>
<path d="M536.74 157.61C536.74 157.61 524.59 147.42 521.74 156.92C518.89 166.42 530.41 176.17 541.37 167.92L536.74 157.61Z" fill="#E8AF8E"/>
<path d="M523.85 165.88C524.44 166.702 525.218 167.371 526.119 167.83C527.02 168.289 528.018 168.526 529.03 168.52C534.28 168.3 535.84 161.09 533.69 155.45C534.736 156.104 535.738 156.826 536.69 157.61L541.3 167.93C531.96 174.93 522.21 168.93 521.3 161.08C521.921 162.791 522.78 164.407 523.85 165.88Z" fill="#CF866B"/>
<path d="M531.07 164.56C530.945 164.046 530.757 163.548 530.51 163.08C530.001 162.076 529.244 161.218 528.31 160.59C527.633 160.153 526.874 159.857 526.08 159.72C526.008 159.7 525.932 159.695 525.858 159.704C525.784 159.714 525.712 159.738 525.647 159.775C525.582 159.812 525.525 159.862 525.479 159.921C525.433 159.98 525.4 160.048 525.38 160.12C525.36 160.192 525.355 160.268 525.364 160.342C525.374 160.416 525.398 160.488 525.435 160.553C525.472 160.618 525.522 160.675 525.581 160.721C525.64 160.767 525.708 160.8 525.78 160.82C526.406 160.921 527.007 161.142 527.55 161.47L527.91 161.7L527.99 161.76C528.06 161.81 527.93 161.76 527.99 161.76L528.16 161.9C528.368 162.078 528.562 162.272 528.74 162.48L528.86 162.62L528.92 162.69C528.92 162.69 528.85 162.6 528.92 162.69L529.13 162.99C529.254 163.173 529.368 163.364 529.47 163.56C529.56 163.73 529.64 163.91 529.72 164.08C529.8 164.25 529.67 163.96 529.72 164.03C529.77 164.1 529.72 164.03 529.72 164.08C529.72 164.13 529.72 164.15 529.72 164.19L529.8 164.4C529.854 164.55 529.897 164.704 529.93 164.86C529.972 165.004 530.069 165.127 530.199 165.202C530.33 165.276 530.484 165.297 530.63 165.26C530.702 165.24 530.77 165.207 530.829 165.161C530.888 165.115 530.938 165.058 530.975 164.993C531.012 164.928 531.036 164.856 531.046 164.782C531.055 164.708 531.05 164.632 531.03 164.56H531.07Z" fill="#222221"/>
<path d="M528.87 161.59C528.574 161.736 528.304 161.928 528.07 162.16C527.546 162.645 527.195 163.287 527.07 163.99C526.973 164.572 526.997 165.168 527.14 165.74C527.18 165.886 527.276 166.01 527.407 166.085C527.538 166.16 527.694 166.18 527.84 166.14C527.986 166.1 528.11 166.004 528.185 165.873C528.26 165.742 528.28 165.586 528.24 165.44C528.24 165.32 528.24 165.21 528.17 165.1C528.1 164.99 528.17 165.1 528.17 165.1V165.03C528.165 164.963 528.165 164.897 528.17 164.83C528.165 164.733 528.165 164.637 528.17 164.54C528.165 164.497 528.165 164.453 528.17 164.41V164.32C528.17 164.24 528.17 164.32 528.17 164.32C528.175 164.144 528.216 163.97 528.29 163.81V163.71C528.29 163.59 528.29 163.78 528.29 163.71L528.4 163.5L528.5 163.33L528.57 163.24C528.64 163.14 528.5 163.32 528.57 163.24C528.649 163.14 528.736 163.046 528.83 162.96L528.95 162.84H529.01H528.95C529.026 162.795 529.1 162.744 529.17 162.69L529.4 162.56C529.465 162.523 529.522 162.473 529.568 162.413C529.614 162.354 529.647 162.286 529.667 162.214C529.687 162.141 529.692 162.066 529.682 161.991C529.672 161.917 529.648 161.845 529.61 161.78C529.531 161.652 529.407 161.56 529.262 161.521C529.117 161.482 528.962 161.499 528.83 161.57L528.87 161.59Z" fill="#222221"/>
<path d="M543.32 169.08L542.57 185.72C542.519 186.861 542.232 187.98 541.726 189.004C541.219 190.028 540.506 190.936 539.63 191.67L532.2 197.87C532.2 197.87 555.98 223.28 578.2 198.63L571 192C570.114 191.176 569.42 190.168 568.965 189.047C568.511 187.925 568.308 186.718 568.37 185.51L568.93 175.05L543.32 169.08Z" fill="#E8AF8E"/>
<path d="M543 175.38L543.28 169.08L568.88 175.02L568.36 184.67C565.76 186.75 549.63 195.43 543 175.38Z" fill="#A8624B"/>
<path d="M557.35 111.59C557.35 111.59 585 113.68 582.27 146.12C582.17 147.455 582.422 148.793 583 150C585.26 155 591.56 170.25 567.91 181.62C567.006 182.051 566.021 182.289 565.02 182.32C558.5 182.54 534.28 181.32 527.75 152.74C520.16 119.51 557.35 111.59 557.35 111.59Z" fill="#E8AF8E"/>
<path d="M552.92 149.83C553.26 151.54 552.48 153.14 551.19 153.39C549.9 153.64 548.57 152.47 548.19 150.76C547.81 149.05 548.63 147.45 549.93 147.2C551.23 146.95 552.58 148.12 552.92 149.83Z" fill="#222221"/>
<path d="M573.19 145.83C573.53 147.55 572.76 149.14 571.46 149.39C570.16 149.64 568.84 148.47 568.46 146.76C568.08 145.05 568.9 143.46 570.19 143.2C571.48 142.94 572.86 144.12 573.19 145.83Z" fill="#222221"/>
<path d="M566.37 158.69C567.265 158.077 567.99 157.248 568.48 156.28C569.08 154.92 568.48 153.84 567.48 152.9C566.583 152.128 565.751 151.286 564.99 150.38C563.931 148.928 563.245 147.239 562.99 145.46C562.83 144.46 561.32 144.89 561.48 145.88C561.722 147.605 562.336 149.256 563.28 150.72C563.965 151.71 564.768 152.613 565.67 153.41C566.23 153.92 567.25 154.57 567.1 155.33C566.931 155.879 566.609 156.369 566.17 156.74C566.01 156.91 565.83 157.06 565.66 157.21L565.46 157.38C565.63 157.23 565.56 157.3 565.51 157.38C564.71 157.97 565.51 159.38 566.31 158.74L566.37 158.69Z" fill="#222221"/>
<path d="M555 162.24C555.5 164.8 553.09 167.44 549.62 168.12C546.15 168.8 542.91 167.29 542.41 164.72C541.91 162.15 544.31 159.53 547.79 158.84C551.27 158.15 554.46 159.68 555 162.24Z" fill="#D46A55"/>
<path d="M583.23 156.66C583.74 159.23 581.33 161.86 577.85 162.55C574.37 163.24 571.15 161.71 570.64 159.15C570.13 156.59 572.55 153.95 576.02 153.26C579.49 152.57 582.73 154.1 583.23 156.66Z" fill="#D46A55"/>
<path d="M556 166.24C557.089 167.439 558.448 168.361 559.965 168.929C561.481 169.498 563.111 169.697 564.72 169.51C566.312 169.293 567.846 168.763 569.232 167.952C570.619 167.14 571.831 166.062 572.8 164.78C573.41 163.97 572.04 163.19 571.44 163.99C569.727 166.196 567.21 167.634 564.44 167.99C563.074 168.137 561.693 167.957 560.411 167.463C559.129 166.969 557.984 166.176 557.07 165.15C556.36 164.43 555.25 165.54 555.96 166.26L556 166.24Z" fill="#222221"/>
<path d="M553.29 139.23C553.76 140.67 551.76 140.43 549.06 141.31C546.36 142.19 543.96 143.85 543.49 142.41C543.02 140.97 544.84 139.09 547.49 138.21C550.14 137.33 552.82 137.79 553.29 139.23Z" fill="#222221"/>
<path d="M566.79 137.12C566.9 138.64 568.65 137.66 571.49 137.44C574.33 137.22 577.17 137.86 577.05 136.35C576.93 134.84 574.55 133.78 571.71 134C568.87 134.22 566.67 135.61 566.79 137.12Z" fill="#222221"/>
<path d="M567.91 174.19C568.04 174.85 567.09 175.6 565.8 175.85C564.51 176.1 563.34 175.78 563.21 175.12C563.08 174.46 564.21 174.55 565.49 174.29C566.77 174.03 567.78 173.53 567.91 174.19Z" fill="#CF866B"/>
<path d="M703.79 320.56C700.63 282.11 688.26 265.51 688.26 265.51L653.18 264.51V341.88H654.05V392.21H695.78C695.78 392.21 706.19 349.8 703.79 320.56Z" fill="#E79E9E"/>
<path d="M602.58 320.56C605.73 282.11 618.1 265.51 618.1 265.51L653.18 264.51V341.88H652.32V392.21H610.58C610.58 392.21 600.18 349.8 602.58 320.56Z" fill="#E79E9E"/>
<path d="M614.69 218.64L620.75 192.24C620.75 192.24 624.57 177.97 620.51 172.79C620.51 172.79 581.16 194.09 600.06 237.47C602.38 242.81 675.22 238.62 675.22 238.62V229.89C675.22 229.89 638.59 212.51 614.69 218.64Z" fill="#CF866B"/>
<path d="M671.92 117.81C671.92 117.81 683.06 104 688.26 113.81C693.46 123.62 682.91 136.81 669.1 130.15L671.92 117.81Z" fill="#E9A585"/>
<path d="M687.87 124.1C687.397 125.127 686.686 126.025 685.795 126.721C684.905 127.417 683.86 127.89 682.75 128.1C676.94 128.98 673.67 121.41 674.75 114.75C673.728 115.689 672.766 116.691 671.87 117.75L669.05 130.08C680.82 135.77 690.21 127.01 689.51 118.23C689.242 120.254 688.69 122.23 687.87 124.1Z" fill="#CF866B"/>
<path d="M680.93 124.26C680.92 124.124 680.92 123.986 680.93 123.85C680.93 123.75 680.93 123.85 680.93 123.85C680.93 123.85 680.93 123.77 680.93 123.74C680.93 123.71 680.93 123.57 680.93 123.49C680.93 123.41 681.02 123.08 681.07 122.88C681.13 122.656 681.203 122.435 681.29 122.22C681.309 122.158 681.332 122.098 681.36 122.04C681.36 121.97 681.36 122.04 681.36 122.04L681.41 121.93C681.41 121.81 681.52 121.69 681.58 121.57C682.194 120.369 683.225 119.434 684.48 118.94C684.641 118.889 684.776 118.779 684.859 118.633C684.943 118.487 684.968 118.314 684.93 118.15C684.881 117.988 684.771 117.852 684.624 117.77C684.477 117.688 684.303 117.666 684.14 117.71C682.687 118.262 681.459 119.283 680.65 120.61C680.136 121.487 679.796 122.454 679.65 123.46C679.612 123.702 679.588 123.945 679.58 124.19C679.58 124.36 679.647 124.523 679.767 124.643C679.887 124.763 680.05 124.83 680.22 124.83C680.39 124.83 680.553 124.763 680.673 124.643C680.793 124.523 680.86 124.36 680.86 124.19L680.93 124.26Z" fill="#222221"/>
<path d="M681.05 121.71C681.129 121.723 681.207 121.746 681.28 121.78H681.4H681.33H681.4C681.512 121.827 681.619 121.884 681.72 121.95L681.87 122.04L681.96 122.1C682.04 122.1 681.85 122.01 681.96 122.1L682.3 122.41L682.45 122.59C682.45 122.65 682.37 122.48 682.45 122.59L682.54 122.72L682.66 122.94C682.689 122.98 682.713 123.024 682.73 123.07V123.14C682.73 123.14 682.73 123.01 682.73 123.14C682.814 123.367 682.878 123.601 682.92 123.84C682.92 123.84 682.92 123.9 682.92 123.93C682.92 123.96 682.92 123.82 682.92 123.93C682.92 124.04 682.92 124.07 682.92 124.14C682.92 124.21 682.92 124.45 682.92 124.6C682.92 124.77 682.987 124.933 683.107 125.053C683.227 125.173 683.39 125.24 683.56 125.24C683.728 125.235 683.888 125.166 684.007 125.047C684.126 124.928 684.195 124.768 684.2 124.6C684.259 123.55 683.932 122.515 683.28 121.69C682.847 121.19 682.298 120.805 681.68 120.57L681.35 120.46C681.186 120.415 681.01 120.437 680.862 120.521C680.714 120.606 680.605 120.746 680.56 120.91C680.515 121.074 680.537 121.25 680.621 121.398C680.706 121.546 680.846 121.655 681.01 121.7L681.05 121.71Z" fill="#222221"/>
<path d="M664.1 142.27L664.85 158.91C664.9 160.051 665.188 161.169 665.696 162.192C666.204 163.215 666.921 164.121 667.8 164.85L675.22 171.06C675.22 171.06 651.44 196.47 629.22 171.82L636.44 165.15C637.328 164.33 638.024 163.324 638.479 162.204C638.933 161.084 639.135 159.877 639.07 158.67L638.52 148.21L664.1 142.27Z" fill="#E8AF8E"/>
<path d="M675.22 171.06L688.61 172.79L689.61 231.66L695.69 280.88C695.69 280.88 646.69 299.31 610.77 274.96L616.21 212L624.08 171L632.48 169.9C632.48 169.9 650.61 191 675.22 171.06Z" fill="#508D7E"/>
<path d="M612.79 251.57L610.79 274.96C646.71 299.31 695.71 280.88 695.71 280.88L690.27 236.82C666.68 248.43 638.29 256.09 612.79 251.57Z" fill="#417164"/>
<path d="M664.38 148.56L664.1 142.27L638.51 148.21L639.02 157.86C641.66 159.94 657.8 168.62 664.38 148.56Z" fill="#A8624B"/>
<path d="M640.76 82.81C640.76 82.81 614 90.21 623 121.51C623.35 122.781 623.37 124.119 623.06 125.4C621.8 130.72 618.58 146.93 643.98 153.5C644.96 153.752 645.982 153.797 646.98 153.63C653.41 152.63 676.98 146.75 677.82 117.39C678.78 83.38 640.76 82.81 640.76 82.81Z" fill="#E8AF8E"/>
<path d="M652.5 119.47C652.5 121.21 653.57 122.63 654.89 122.63C656.21 122.63 657.28 121.21 657.28 119.47C657.28 117.73 656.21 116.31 654.89 116.31C653.57 116.31 652.5 117.73 652.5 119.47Z" fill="#222221"/>
<path d="M631.84 119.47C631.84 121.21 632.91 122.63 634.23 122.63C635.55 122.63 636.62 121.21 636.62 119.47C636.62 117.73 635.55 116.31 634.23 116.31C632.91 116.31 631.84 117.73 631.84 119.47Z" fill="#222221"/>
<path d="M641.68 129.34C640.88 129.022 640.187 128.485 639.68 127.79C639.22 127 640.1 126.14 640.55 125.54C641.307 124.564 641.941 123.5 642.44 122.37C643.082 120.725 643.368 118.963 643.28 117.2C643.28 116.2 641.67 116.2 641.71 117.2C641.823 118.997 641.479 120.792 640.71 122.42C640.111 123.463 639.443 124.466 638.71 125.42C638.295 125.875 638.043 126.456 637.996 127.07C637.949 127.685 638.109 128.297 638.45 128.81C639.086 129.637 639.918 130.294 640.87 130.72C641.78 131.14 642.58 129.79 641.66 129.36L641.68 129.34Z" fill="#222221"/>
<path d="M652.9 132C652.9 134.61 655.77 136.73 659.31 136.73C662.85 136.73 665.73 134.61 665.73 132C665.73 129.39 662.86 127.27 659.31 127.27C655.76 127.27 652.9 129.42 652.9 132Z" fill="#D46A55"/>
<path d="M624.08 132C624.08 134.61 626.96 136.73 630.5 136.73C634.04 136.73 636.92 134.61 636.92 132C636.92 129.39 634.05 127.27 630.5 127.27C626.95 127.27 624.08 129.42 624.08 132Z" fill="#D46A55"/>
<path d="M651.3 135.33C650.614 136.487 649.665 137.468 648.531 138.192C647.397 138.916 646.109 139.364 644.77 139.5C643.37 139.601 641.963 139.424 640.632 138.979C639.3 138.535 638.069 137.831 637.01 136.91C636.26 136.24 635.14 137.35 635.9 138.02C637.129 139.106 638.566 139.931 640.123 140.447C641.68 140.962 643.326 141.157 644.96 141.02C646.536 140.85 648.051 140.317 649.386 139.461C650.72 138.605 651.838 137.451 652.65 136.09C653.21 135.25 651.85 134.46 651.3 135.3V135.33Z" fill="#222221"/>
<path d="M650.09 109.14C649.91 110.64 651.82 110.02 654.65 110.36C657.48 110.7 660.14 111.86 660.32 110.36C660.5 108.86 658.32 107.36 655.53 107.02C652.74 106.68 650.27 107.63 650.09 109.14Z" fill="#222221"/>
<path d="M636.44 109.68C636.62 111.19 634.71 110.57 631.89 110.91C629.07 111.25 626.4 112.41 626.22 110.91C626.04 109.41 628.22 107.91 631 107.57C633.78 107.23 636.26 108.18 636.44 109.68Z" fill="#222221"/>
<path d="M642.52 146.27C642.52 146.94 643.59 147.49 644.91 147.49C646.23 147.49 647.3 146.94 647.3 146.27C647.3 145.6 646.23 145.9 644.91 145.9C643.59 145.9 642.52 145.59 642.52 146.27Z" fill="#CF866B"/>
<path d="M627.96 130.68C633.787 130.68 638.51 125.957 638.51 120.13C638.51 114.303 633.787 109.58 627.96 109.58C622.133 109.58 617.41 114.303 617.41 120.13C617.41 125.957 622.133 130.68 627.96 130.68Z" stroke="white" stroke-width="1.35" stroke-miterlimit="10"/>
<path d="M657.28 130.68C663.107 130.68 667.83 125.957 667.83 120.13C667.83 114.303 663.107 109.58 657.28 109.58C651.453 109.58 646.73 114.303 646.73 120.13C646.73 125.957 651.453 130.68 657.28 130.68Z" stroke="white" stroke-width="1.35" stroke-miterlimit="10"/>
<path d="M638.74 120.59C640.005 119.865 641.437 119.483 642.895 119.483C644.353 119.483 645.785 119.865 647.05 120.59" stroke="white" stroke-width="1.35" stroke-miterlimit="10"/>
<path d="M618 202.46C618 202.46 607 225.91 628.09 234.98C649.18 244.05 691.58 223.98 691.58 223.98C691.58 223.98 704.09 217.08 696.18 196.26C696.18 196.26 684.31 177.74 652.18 187.32C652.18 187.32 643.74 190.26 639.87 181.25L618 202.46Z" fill="#984B3C"/>
<path d="M618.74 206.49C618.74 206.49 595.27 233.15 607.86 238.69C620.45 244.23 618.55 225.84 631.13 215.76C631.13 215.76 631.16 206.72 618.74 206.49Z" fill="#984B3C"/>
<path d="M607.33 163.33C607.33 163.33 597.92 155.82 596 149.12C596 149.12 591.34 153.46 593.55 157.8C593.55 157.8 590.7 162.02 592.95 166.04C592.95 166.04 593.29 176.77 600.25 175.65C607.21 174.53 607.33 163.33 607.33 163.33Z" fill="#823026"/>
<path d="M629.74 163.33C629.74 163.33 639.15 155.82 641.06 149.12C641.06 149.12 645.73 153.46 643.52 157.8C643.52 157.8 646.37 162.02 644.11 166.04C644.11 166.04 643.78 176.77 636.82 175.65C629.86 174.53 629.74 163.33 629.74 163.33Z" fill="#984B3C"/>
<path d="M599.15 177.27C599.02 178.523 598.612 179.731 597.954 180.806C597.297 181.88 596.407 182.794 595.35 183.48C592.26 185.53 589.96 186.64 589.91 191.13C589.81 198.8 600.73 209.13 623.05 200.81C623.05 200.81 635.6 194.87 639.91 181.26C639.91 181.26 636.27 160.09 619.32 159.9C605.39 159.74 599.8 170.19 599.15 177.27Z" fill="#984B3C"/>
<path d="M618 202.46C618 202.46 632 198.4 640 181.62L642.88 185.56C640.291 190.775 636.59 195.358 632.037 198.986C627.484 202.614 622.191 205.2 616.53 206.56L618 202.46Z" fill="#D46A55"/>
<path d="M694.43 218.64L688.37 192.24C688.37 192.24 684.55 177.97 688.61 172.79C688.61 172.79 698.35 172.21 706.93 186.92C713.2 197.67 717.13 234.06 706.15 240.18C701.06 243.02 633.9 238.62 633.9 238.62V229.89C633.9 229.89 670.54 212.51 694.43 218.64Z" fill="#E8AF8E"/>
<path d="M680.5 189.11C680.5 189.11 686.38 188.86 687.08 182.11C687.78 175.36 688.42 170.93 693.53 173.61C698.64 176.29 702.35 192.96 685.87 194.11L680.5 189.11Z" fill="#984B3C"/>
<path d="M635.94 239C636.62 238.046 637.105 236.966 637.366 235.824C637.627 234.682 637.658 233.499 637.459 232.344C637.26 231.189 636.835 230.085 636.207 229.096C635.578 228.106 634.76 227.251 633.8 226.58C629.44 223.44 622.8 219.65 618.63 222.03C612.04 225.82 608.86 233.89 611.97 235.23C615.08 236.57 616.27 230.79 618.5 229.9C616.573 231.227 615.109 233.121 614.31 235.32C614.188 235.609 614.14 235.924 614.17 236.236C614.2 236.549 614.306 236.849 614.48 237.11C615.01 237.9 615.9 238.93 616.88 238.82C618.45 238.64 619.58 233.64 622.54 232.92C622.54 232.92 619.76 233.64 618.27 237.81C618.039 238.441 618.054 239.136 618.314 239.755C618.574 240.375 619.058 240.873 619.67 241.15C620.33 241.44 620.99 241.51 621.39 240.95C622.39 239.55 624.31 236.63 625.93 237.86C627.55 239.09 632.73 243.2 635.85 239.13L635.94 239Z" fill="#E8AF8E"/>
<path d="M615.34 234.31C615.68 233.77 616.06 233.25 616.44 232.74C617.141 231.789 617.965 230.935 618.89 230.2C619.148 230.009 619.422 229.841 619.71 229.7C619.809 229.648 619.913 229.604 620.02 229.57L620.24 229.51H620.37C620.5 229.505 620.623 229.45 620.714 229.357C620.805 229.264 620.858 229.14 620.86 229.01C620.86 228.879 620.809 228.753 620.717 228.66C620.626 228.566 620.501 228.513 620.37 228.51C619.115 228.765 617.983 229.438 617.16 230.42C616.326 231.274 615.57 232.201 614.9 233.19C614.76 233.4 614.61 233.61 614.48 233.82C614.14 234.37 615 234.82 615.34 234.33V234.31Z" fill="#222221"/>
<path d="M618.94 237.52C619.171 236.992 619.446 236.483 619.76 236C620.293 235.069 621.023 234.267 621.9 233.65C622.376 233.313 622.947 233.138 623.53 233.15C623.663 233.15 623.79 233.097 623.884 233.004C623.977 232.91 624.03 232.783 624.03 232.65C624.03 232.517 623.977 232.39 623.884 232.296C623.79 232.203 623.663 232.15 623.53 232.15C621.11 232.1 619.38 234.48 618.38 236.39C618.27 236.6 618.17 236.8 618.08 237.01C618.045 237.067 618.022 237.129 618.012 237.195C618.001 237.261 618.004 237.328 618.02 237.392C618.036 237.456 618.064 237.517 618.104 237.57C618.144 237.624 618.193 237.669 618.251 237.703C618.308 237.736 618.371 237.759 618.437 237.768C618.502 237.777 618.569 237.773 618.634 237.756C618.698 237.739 618.758 237.709 618.81 237.669C618.863 237.628 618.907 237.578 618.94 237.52Z" fill="#222221"/>
<path d="M625.35 214.6C625.35 214.6 619.7 249.67 633.3 247.65C646.9 245.63 635.51 231.08 640.78 215.85C640.78 215.85 636 208.18 625.35 214.6Z" fill="#984B3C"/>
<path d="M671.24 101.65C671.24 101.65 672.68 124.2 676.24 123.65C679.8 123.1 677.68 111.21 682.95 110.33C682.95 110.33 686.62 109.39 689.15 115.96C689.15 115.96 696.49 102.96 693.04 92.08C689.59 81.2 681.8 80.97 681.8 80.97C681.8 80.97 664.8 65.38 642.92 73.3C621.04 81.22 615.25 66.66 614.23 74.2C613.21 81.74 618.68 120.77 664.8 92.2C664.8 92.2 659.53 96.7 660.1 100.72C660.5 103.59 661.66 105.48 671.24 101.65Z" fill="#222221"/>
<path d="M578.21 198.63C578.21 198.63 557.27 222.72 532.21 197.87L523.29 206.49L521.46 261.88H588.32C588.32 261.88 594.9 210.96 589.91 202.53L578.21 198.63Z" fill="#7A5FA0"/>
<path d="M577.65 198L578.08 273.78H590.84L586 197.71C586 197.71 580.91 196.61 577.65 198Z" fill="#B5A2B8"/>
<path d="M523.28 243.15C523.28 243.15 525.96 284.67 523.28 297.44C523.28 297.44 533.38 303.19 551.28 329.76L541.82 334.23C541.82 334.23 500.94 306.38 500.58 299.23C500.22 292.08 499.2 243.15 499.2 243.15H523.28Z" fill="#E8AF8E"/>
<path d="M532.2 197.87L527.48 246.79C527.48 246.79 507.32 242.19 490.08 249.09C490.08 249.09 487.2 242.24 494.87 237.33C494.87 237.33 491.74 195.51 532.2 197.87Z" fill="#7A5FA0"/>
<path d="M524 198L524.43 273.78H537.19L532.38 197.68C532.38 197.68 527.28 196.61 524 198Z" fill="#B5A2B8"/>
<path d="M514.79 342.58C514.79 342.58 494.32 342.65 492.79 318.31C491.97 305.31 493.13 297.11 494.38 292.31C494.488 291.884 494.466 291.436 494.319 291.023C494.172 290.609 493.906 290.248 493.554 289.986C493.201 289.724 492.779 289.572 492.341 289.549C491.902 289.527 491.467 289.635 491.09 289.86L484.17 293.96C484.17 293.96 480.91 271.73 474.17 273.65C467.43 275.57 459.99 305.65 475.9 322.89C475.9 322.89 468.83 317.15 466.43 318.29C464.03 319.43 465.93 352.59 507.7 353.55L514.79 342.58Z" fill="#BC705C"/>
<path d="M614.52 321.16C614.52 321.16 615.67 331.16 618.99 333.93C622.31 336.7 624.74 342.49 620.99 344.02C620.99 344.02 635.29 376.6 599.66 388.09V392.15H492.79C492.79 392.15 486.08 355.9 503.52 345.36C520.96 334.82 546.52 334.48 550.59 326.13C554.66 317.78 568.67 313.56 568.67 313.56C568.67 313.56 601.94 325.69 614.52 321.16Z" fill="#F2DBD1"/>
<path d="M619 333.93C615.68 331.12 614.53 321.16 614.53 321.16C610.59 322.58 604.62 322.36 598.28 321.4C596.2 327.23 594.9 333.21 598.28 335.45C605.04 342.21 611.8 340.86 618.56 350.32C620.43 352.58 622 353.05 623.37 352.43C622.901 349.539 622.106 346.711 621 344C624.74 342.49 622.31 336.74 619 333.93Z" fill="#BC705C"/>
<path d="M615 309.15L617 323.52C617 323.52 592.67 331.77 567.37 318.93L574.46 307.81L615 309.15Z" fill="#1D3345"/>
<path d="M579.87 260C579.87 260 596.06 251.29 608.04 258.09C620.02 264.89 624.6 277.36 639.27 281.94C656.13 287.21 644.27 312.6 627.49 313.46L613.88 313.65C613.88 313.65 615.51 318.78 613.6 318.92C611.69 319.06 606.84 315.04 606.84 315.04C606.84 315.04 607.9 318.11 605.02 318.49C602.14 318.87 600.02 313.49 600.02 313.49C600.02 313.49 598.68 317.75 594.37 318.04C590.06 318.33 587.37 311.33 587.37 311.33C587.37 311.33 585.64 316.51 579.03 316.51C572.42 316.51 579.87 260 579.87 260Z" fill="#F2DBD1"/>
<path d="M579.87 260C579.87 260 591.08 266.23 588.02 279.07C584.96 291.91 582.67 299.07 582.84 307.43C583.01 315.79 565.22 331.76 557.17 307.43C556.779 308.015 556.228 308.476 555.583 308.758C554.938 309.04 554.225 309.131 553.53 309.02C551.1 308.64 549.38 304.55 551.68 301.1C553.98 297.65 555.44 292.67 556.4 276.96C557.36 261.25 577.84 258.57 579.87 260Z" fill="#BC705C"/>
<path d="M541.44 327.5C541.44 327.5 542.88 322.81 547.8 323.33C552.72 323.85 556.55 320.14 558.64 321.43C560.37 322.5 558.07 325.04 555.71 326.1C553.99 326.88 551.58 326.77 551.89 327.17C553.078 328.449 554.542 329.441 556.17 330.07C558.09 330.55 567.85 332.19 568.31 332.21C571.72 332.34 571.37 334.02 571.37 334.02C571.29 336.58 564.75 335.78 562.92 335.58C560.17 335.28 555.65 334.45 555.65 334.45L555.5 334.84C555.5 334.84 568.57 341.89 569.25 342.27C569.622 342.414 569.923 342.697 570.089 343.059C570.255 343.422 570.274 343.834 570.14 344.21C569.88 344.74 569.14 345.31 567.48 344.84C565.01 344.15 556.48 341.24 553.41 339.38C553.41 339.38 560.41 344.08 562.56 346.65C563.26 347.5 564.43 348.85 563.56 349.75C562.69 350.65 560.5 349.22 560.17 349.01C556.876 346.866 553.756 344.466 550.84 341.83L550.36 342.06C550.36 342.06 555.84 347.5 556.54 349.58C556.61 349.78 556.98 350.77 556.18 351.25C554.94 352.01 554.3 350.72 554.18 350.46C553.46 349.18 545.86 342.78 545.06 342.24C543.19 340.98 539.92 338.34 539.06 334.84C538.661 333.52 538.674 332.109 539.1 330.797C539.525 329.485 540.342 328.335 541.44 327.5Z" fill="#E8AF8E"/>
<path d="M579.17 123.37C579.17 123.37 561.57 131.44 543.04 122.85C543.04 122.85 539.6 154.73 527.52 153.72C527.52 153.72 523.66 150.02 524.02 137.72C524.38 125.42 542.9 108.06 558.02 110.25C573.14 112.44 579.17 123.37 579.17 123.37Z" fill="#222221"/>
<path d="M643.54 293.6C642.932 294.238 642.165 294.702 641.317 294.943C640.469 295.184 639.573 295.193 638.72 294.97C635.28 294.11 629.82 292.41 631.13 290.48C633.01 287.7 642.39 284.87 644.89 288.08C646.3 289.91 645 292.07 643.54 293.6Z" fill="#222221"/>
<path d="M597 192.44C597.485 192.95 598.099 193.32 598.776 193.512C599.453 193.703 600.169 193.71 600.85 193.53C603.59 192.85 607.94 191.53 606.85 189.95C605.35 187.74 597.85 185.48 595.85 188.04C594.81 189.5 595.88 191.22 597 192.44Z" fill="#222221"/>
<path d="M596.72 289.57C596.588 289.719 596.408 289.818 596.212 289.851C596.015 289.883 595.813 289.847 595.64 289.749C595.467 289.651 595.333 289.496 595.26 289.31C595.187 289.125 595.18 288.92 595.24 288.73C596.14 286.17 598.08 283.37 602.24 283.64C606.4 283.91 608.33 286.98 609.24 289.64C609.295 289.833 609.283 290.038 609.206 290.223C609.128 290.408 608.99 290.56 608.814 290.656C608.638 290.752 608.435 290.784 608.238 290.749C608.04 290.713 607.861 290.611 607.73 290.46C605.26 287.72 601.14 284.83 596.72 289.57Z" fill="#222221"/>
<path d="M615 184.31C614.59 184.91 613.86 184.36 614.06 183.59C614.63 181.4 615.85 179 618.46 179.23C621.07 179.46 622.31 182.1 622.88 184.39C623.07 185.17 622.33 185.71 621.93 185.1C620.43 182.72 617.83 180.25 615 184.31Z" fill="#222221"/>
<path d="M604 182C604.32 182.47 604.89 182 604.73 181.43C604.29 179.71 603.33 177.83 601.27 178.01C599.21 178.19 598.27 180.26 597.81 182.06C597.66 182.67 598.24 183.06 598.55 182.61C599.75 180.71 601.8 178.77 604 182Z" fill="#222221"/>
<path d="M677.28 128.34C677.28 128.736 677.397 129.122 677.617 129.451C677.837 129.78 678.149 130.036 678.515 130.188C678.88 130.339 679.282 130.379 679.67 130.302C680.058 130.224 680.415 130.034 680.694 129.754C680.974 129.475 681.164 129.118 681.242 128.73C681.319 128.342 681.279 127.94 681.128 127.575C680.976 127.209 680.72 126.897 680.391 126.677C680.062 126.457 679.676 126.34 679.28 126.34C678.75 126.34 678.241 126.551 677.866 126.926C677.491 127.301 677.28 127.81 677.28 128.34Z" fill="white"/>
</g>
<defs>
<clipPath id="clip0">
<rect width="713.06" height="392.22" fill="white"/>
</clipPath>
</defs>
</svg>
