<svg width="342" height="368" viewBox="0 0 342 368" fill="none" xmlns="http://www.w3.org/2000/svg">
<path d="M171 351.756C259.997 351.756 332.144 306.935 332.144 251.646C332.144 196.356 259.997 151.535 171 151.535C82.0029 151.535 9.85645 196.356 9.85645 251.646C9.85645 306.935 82.0029 351.756 171 351.756Z" fill="#F0F0F0"/>
<path d="M137.655 327.505C168.344 327.505 193.223 312.051 193.223 292.987C193.223 273.923 168.344 258.468 137.655 258.468C106.966 258.468 82.0869 273.923 82.0869 292.987C82.0869 312.051 106.966 327.505 137.655 327.505Z" fill="#E0E0E0"/>
<path d="M295.68 249.798L289.161 245.75C289.161 245.75 287.567 230.736 288.628 219.107C290.119 202.768 299.927 183.102 311.624 187.724C323.32 192.346 306.261 208.98 302.465 222.839C298.669 236.698 295.68 249.798 295.68 249.798Z" fill="#ED5243"/>
<path opacity="0.15" d="M295.68 249.798L289.161 245.75C289.161 245.75 287.567 230.736 288.628 219.107C290.119 202.768 299.927 183.102 311.624 187.724C323.32 192.346 306.261 208.98 302.465 222.839C298.669 236.698 295.68 249.798 295.68 249.798Z" fill="black"/>
<path d="M292.253 248.098C292.357 248.093 292.455 248.043 292.525 247.96C292.595 247.878 292.633 247.769 292.629 247.657C291.487 211.35 308.286 193.082 308.45 192.906C308.524 192.826 308.566 192.717 308.566 192.604C308.566 192.491 308.524 192.382 308.45 192.302C308.414 192.263 308.371 192.231 308.323 192.21C308.276 192.189 308.225 192.178 308.173 192.178C308.121 192.178 308.07 192.189 308.023 192.21C307.975 192.231 307.932 192.263 307.896 192.302C307.718 192.479 290.68 211.011 291.836 247.686C291.837 247.743 291.85 247.799 291.872 247.85C291.894 247.902 291.925 247.948 291.964 247.986C292.003 248.025 292.048 248.054 292.098 248.074C292.147 248.093 292.2 248.101 292.253 248.098Z" fill="white"/>
<path d="M299.777 252.323L295.139 249.445C295.139 249.445 294.346 239.141 299.045 226.629C303.149 215.736 313.272 206.691 318.375 208.59C323.478 210.489 323.348 214.382 320.858 218.467C318.368 222.552 303.245 232.274 299.777 252.323Z" fill="#ED5243"/>
<path d="M297.328 251.234C297.433 251.232 297.533 251.186 297.607 251.106C297.681 251.027 297.723 250.919 297.725 250.807C297.629 227.844 317.664 212.329 317.869 212.174C317.911 212.143 317.948 212.102 317.976 212.055C318.003 212.008 318.022 211.955 318.03 211.9C318.039 211.845 318.036 211.789 318.024 211.735C318.011 211.681 317.989 211.63 317.958 211.585C317.897 211.494 317.806 211.433 317.704 211.414C317.601 211.394 317.496 211.419 317.41 211.482C317.205 211.637 296.843 227.417 296.931 250.807C296.931 250.92 296.973 251.029 297.048 251.109C297.122 251.189 297.223 251.234 297.328 251.234Z" fill="white"/>
<path d="M54.488 240.782L60.5072 236.411C60.5072 236.411 63.1542 219.483 60.6918 204.549C57.2308 183.603 43.7765 176.64 38.9885 178.848C34.2005 181.056 33.1745 187.29 42.1144 199.243C47.4154 206.271 54.3033 221.278 54.488 240.782Z" fill="#ED5243"/>
<g opacity="0.15">
<path opacity="0.15" d="M54.488 240.782L60.5072 236.411C60.5072 236.411 63.1542 219.483 60.6918 204.549C57.2308 183.603 43.7765 176.64 38.9885 178.848C34.2005 181.056 33.1745 187.29 42.1144 199.243C47.4154 206.271 54.3033 221.278 54.488 240.782Z" fill="black"/>
</g>
<path d="M56.5535 232.392H56.492C56.4305 232.388 56.3705 232.37 56.316 232.339C56.2614 232.308 56.2135 232.265 56.1754 232.213C56.1373 232.161 56.1099 232.101 56.0949 232.037C56.0799 231.972 56.0777 231.905 56.0884 231.84C58.2635 212.123 50.5275 190.72 42.1074 182.204C42.0264 182.116 41.981 181.997 41.981 181.873C41.981 181.749 42.0264 181.63 42.1074 181.542C42.1476 181.498 42.1955 181.463 42.2483 181.439C42.3012 181.415 42.3579 181.403 42.4152 181.403C42.4726 181.403 42.5293 181.415 42.5822 181.439C42.635 181.463 42.6829 181.498 42.723 181.542C51.3004 190.212 59.1801 211.968 56.9776 231.972C56.9647 232.085 56.9149 232.189 56.8372 232.266C56.7596 232.343 56.659 232.388 56.5535 232.392Z" fill="white"/>
<path d="M38.7284 252.22C37.7708 252.838 34.98 250.608 34.2071 250.071C32.8825 249.14 31.8034 247.857 31.0744 246.347C30.2565 244.633 29.953 242.689 30.2057 240.782C30.3458 239.787 30.5492 238.804 30.8145 237.838C31.0539 236.874 31.2933 235.91 31.4985 234.939C31.8018 233.994 31.9183 232.991 31.8405 231.995C31.5737 230.029 29.9253 228.683 28.4205 227.527C26.7652 226.239 25.0005 224.539 25.0005 222.169C25.0849 220.307 25.7472 218.529 26.8815 217.12C27.9075 215.648 29.1387 214.367 30.0621 212.829C30.7842 211.763 31.1527 210.467 31.1086 209.149C30.9897 208.337 30.7198 207.558 30.3152 206.86C29.508 205.329 28.4615 203.916 27.8938 202.29C27.3261 200.663 27.3671 198.573 28.5778 197.358C29.5422 196.365 31.0128 196.203 32.3466 196.269C33.6035 196.404 34.8176 196.833 35.9034 197.528C39.4397 199.552 41.5191 203.968 45.2606 205.506C46.7038 206.095 48.277 206.198 49.775 206.595C51.2729 206.993 52.8188 207.78 53.537 209.245C54.9528 212.152 52.4836 215.817 53.4959 218.901C54.3988 221.639 56.9159 222.64 58.3386 225.091C58.9161 226.179 59.1557 227.438 59.0226 228.683C58.9424 230.784 58.5042 232.852 57.7299 234.784C56.8393 236.787 55.8342 238.729 54.7203 240.598C54.7203 240.598 38.872 252.124 38.7284 252.22Z" fill="#ED5243"/>
<path d="M47.976 246.118C47.9185 246.117 47.8617 246.104 47.809 246.08C47.7562 246.055 47.7084 246.02 47.6684 245.975C47.6284 245.931 47.5969 245.878 47.5757 245.821C47.5546 245.763 47.5441 245.702 47.545 245.64C47.9281 227.004 39.4054 206.632 33.3726 200.744C33.2868 200.661 33.2351 200.544 33.2287 200.42C33.2223 200.296 33.2617 200.175 33.3384 200.082C33.3785 200.038 33.4264 200.003 33.4792 199.979C33.5321 199.955 33.5888 199.942 33.6462 199.942C33.7035 199.942 33.7602 199.955 33.8131 199.979C33.8659 200.003 33.9138 200.038 33.954 200.082C40.11 206.043 48.8036 226.769 48.4137 245.662C48.4128 245.723 48.4008 245.783 48.3783 245.839C48.3558 245.895 48.3233 245.945 48.2827 245.988C48.242 246.03 48.194 246.064 48.1414 246.086C48.0888 246.108 48.0326 246.119 47.976 246.118Z" fill="white"/>
<path d="M44.7815 223.413C44.7411 223.424 44.6988 223.424 44.6584 223.413C39.0632 221.676 32.1275 221.499 32.0591 221.492C32.0019 221.491 31.9455 221.478 31.8931 221.453C31.8407 221.428 31.7933 221.393 31.7539 221.348C31.7144 221.304 31.6836 221.251 31.6631 221.194C31.6427 221.136 31.6332 221.075 31.635 221.013C31.6339 220.951 31.6448 220.89 31.6671 220.832C31.6893 220.775 31.7224 220.723 31.7642 220.68C31.806 220.637 31.8556 220.604 31.9099 220.583C31.9642 220.562 32.022 220.553 32.0796 220.557C32.148 220.557 39.1932 220.741 44.8978 222.508C45.008 222.543 45.1007 222.624 45.1557 222.733C45.2108 222.842 45.2238 222.97 45.1919 223.089C45.1652 223.183 45.1108 223.266 45.0368 223.324C44.9628 223.383 44.8732 223.414 44.7815 223.413Z" fill="white"/>
<path d="M205.994 227.969L203.401 226.357C202.969 226.055 202.61 225.648 202.352 225.168C202.094 224.689 201.945 224.15 201.917 223.597V107.662C201.945 107.11 202.094 106.572 202.35 106.093C202.607 105.613 202.965 105.206 203.394 104.902L275.454 60.1386C275.913 59.8883 276.42 59.7579 276.935 59.7579C277.449 59.7579 277.957 59.8883 278.416 60.1386L281.008 61.7504C281.44 62.0522 281.799 62.4594 282.057 62.9391C282.315 63.4187 282.464 63.9571 282.492 64.5104V180.445C282.464 180.998 282.316 181.535 282.059 182.014C281.802 182.494 281.445 182.902 281.015 183.205L208.955 227.976C208.496 228.227 207.989 228.357 207.474 228.356C206.959 228.354 206.452 228.222 205.994 227.969Z" fill="#455A64"/>
<path d="M282.492 64.2528C282.389 63.4285 281.767 63.1267 281.021 63.5904L208.955 108.361C208.519 108.655 208.159 109.063 207.909 109.546L202.348 106.094C202.596 105.608 202.957 105.197 203.394 104.902L275.454 60.1386C275.913 59.8883 276.42 59.7579 276.934 59.7579C277.449 59.7579 277.956 59.8883 278.415 60.1386L281.008 61.7504C281.408 62.0278 281.748 62.395 282.004 62.8269C282.26 63.2588 282.427 63.7452 282.492 64.2528Z" fill="#455A64"/>
<path d="M208.702 228.101C208.264 228.292 207.794 228.38 207.322 228.358C206.85 228.336 206.388 228.206 205.966 227.976L203.367 226.357C202.937 226.053 202.58 225.646 202.323 225.166C202.066 224.687 201.918 224.149 201.89 223.597V107.662C201.907 107.109 202.056 106.569 202.321 106.094L207.882 109.546C207.611 110.022 207.46 110.564 207.444 111.121V227.056C207.471 227.969 208.005 228.388 208.702 228.101Z" fill="#263238"/>
<path d="M207.471 111.136V227.056C207.471 228.072 208.155 228.484 208.955 227.976L281.014 183.205C281.444 182.902 281.802 182.494 282.059 182.014C282.315 181.535 282.464 180.998 282.492 180.445V64.5104C282.492 63.4947 281.808 63.0825 281.014 63.5904L208.955 108.361C208.521 108.664 208.161 109.074 207.903 109.556C207.644 110.039 207.497 110.58 207.471 111.136Z" fill="#37474F"/>
<path d="M190.644 155.296C189.714 154.7 185.398 152.058 185.172 151.918C184.997 151.805 184.846 151.651 184.733 151.467C184.62 151.284 184.547 151.075 184.518 150.857C184.49 150.638 184.508 150.416 184.57 150.206C184.632 149.996 184.738 149.804 184.878 149.644L201.917 129.978L207.471 133.407L190.439 153.088C190.305 153.241 190.204 153.424 190.141 153.623C190.078 153.822 190.056 154.033 190.075 154.242C190.095 154.451 190.155 154.654 190.254 154.836C190.352 155.017 190.485 155.174 190.644 155.296Z" fill="#455A64"/>
<path d="M207.471 133.429L190.439 153.088C190.25 153.305 190.127 153.579 190.085 153.874C190.044 154.168 190.086 154.469 190.207 154.737C190.328 155.005 190.521 155.227 190.762 155.374C191.002 155.521 191.279 155.586 191.554 155.561L207.471 154.148V133.429Z" fill="#37474F"/>
<path d="M244.982 98.0352C253.381 92.8169 260.187 97.0489 260.187 107.485C260.187 117.922 253.381 130.603 244.982 135.821C236.582 141.04 229.776 136.808 229.776 126.379C229.776 115.949 236.582 103.253 244.982 98.0352Z" fill="#ED5243"/>
<path d="M244.872 106.249C247.608 104.556 249.804 105.925 249.804 109.311C249.711 111.151 249.215 112.942 248.359 114.538C247.502 116.134 246.307 117.49 244.872 118.496C242.136 120.189 239.934 118.82 239.934 115.434C240.028 113.593 240.524 111.802 241.382 110.206C242.24 108.61 243.436 107.254 244.872 106.249Z" fill="white"/>
<path d="M254.599 124.296C254.599 118.739 250.967 116.479 246.493 119.261L243.696 120.998C239.222 123.78 235.59 130.566 235.59 136.108V137.632C236.435 137.922 237.317 138.069 238.203 138.066C240.603 137.978 242.94 137.217 244.982 135.858C248.87 133.281 252.159 129.782 254.599 125.628V124.296Z" fill="white"/>
<path d="M235.351 187.481L254.612 175.514C255.433 175.006 256.097 175.418 256.097 176.434V183.109C256.069 183.663 255.92 184.201 255.662 184.681C255.404 185.16 255.044 185.568 254.612 185.869L235.351 197.837C234.53 198.345 233.867 197.932 233.867 196.917V190.241C233.895 189.688 234.044 189.15 234.302 188.67C234.559 188.19 234.919 187.783 235.351 187.481Z" fill="#ED5243"/>
<path d="M225.918 172.57L264.024 148.885C265.002 148.275 265.802 148.768 265.802 149.989V152.47C265.769 153.133 265.59 153.779 265.281 154.355C264.972 154.93 264.541 155.419 264.024 155.782L225.898 179.466C224.919 180.077 224.126 179.584 224.126 178.362V175.904C224.157 175.235 224.336 174.584 224.648 174.004C224.959 173.424 225.395 172.933 225.918 172.57Z" fill="#FAFAFA"/>
<path d="M230.378 155.428C230.898 155.105 231.301 155.053 231.589 155.281C231.876 155.509 232.019 156.017 232.019 156.797C232.034 157.509 231.886 158.215 231.589 158.851C231.32 159.426 230.898 159.902 230.378 160.22L229.352 160.86V163.237C229.35 163.319 229.331 163.4 229.297 163.473C229.273 163.54 229.23 163.596 229.174 163.635L228.654 163.959C228.636 163.973 228.615 163.981 228.593 163.981C228.57 163.981 228.549 163.973 228.531 163.959C228.494 163.909 228.477 163.845 228.483 163.782V156.9C228.483 156.819 228.499 156.739 228.531 156.665C228.557 156.599 228.6 156.543 228.654 156.503L230.378 155.428ZM229.352 159.528L230.344 158.91C230.583 158.764 230.785 158.557 230.932 158.306C231.087 158.011 231.163 157.674 231.151 157.335C231.151 156.937 231.076 156.709 230.932 156.643C230.83 156.616 230.725 156.615 230.623 156.639C230.521 156.664 230.425 156.713 230.344 156.783L229.352 157.401V159.528Z" fill="#FAFAFA"/>
<path d="M234.886 152.624C234.954 152.58 235.009 152.58 235.043 152.624C235.087 152.69 235.117 152.766 235.132 152.845L236.712 158.601C236.712 158.601 236.712 158.645 236.712 158.667C236.711 158.749 236.692 158.83 236.657 158.902C236.633 158.969 236.59 159.026 236.534 159.064L236.069 159.351C235.987 159.403 235.925 159.41 235.891 159.351C235.858 159.314 235.834 159.269 235.823 159.219L235.542 158.211L233.49 159.476L233.217 160.831C233.197 160.904 233.172 160.975 233.141 161.044C233.108 161.134 233.044 161.207 232.964 161.25L232.499 161.537C232.481 161.553 232.459 161.561 232.437 161.561C232.414 161.561 232.393 161.553 232.375 161.537C232.34 161.49 232.322 161.429 232.328 161.368C232.324 161.341 232.324 161.314 232.328 161.287L233.901 153.574C233.92 153.46 233.949 153.349 233.99 153.243C234.023 153.165 234.078 153.101 234.147 153.059L234.886 152.624ZM235.241 157.084L234.557 154.486L233.873 157.96L235.241 157.084Z" fill="#FAFAFA"/>
<path d="M239.106 149.894C239.335 149.738 239.596 149.645 239.865 149.621C240.056 149.603 240.247 149.649 240.413 149.754C240.563 149.859 240.679 150.01 240.748 150.188C240.822 150.369 240.864 150.564 240.871 150.762C240.875 150.844 240.859 150.926 240.823 150.998C240.799 151.064 240.756 151.121 240.7 151.16L240.248 151.439C240.173 151.484 240.118 151.491 240.084 151.439C240.042 151.409 240.007 151.369 239.982 151.322C239.954 151.255 239.915 151.196 239.865 151.146C239.816 151.097 239.758 151.059 239.694 151.035C239.486 151.002 239.274 151.061 239.106 151.196C238.995 151.273 238.89 151.36 238.791 151.454C238.69 151.555 238.6 151.668 238.525 151.793C238.452 151.912 238.392 152.041 238.347 152.175C238.306 152.303 238.286 152.438 238.285 152.573C238.277 152.697 238.298 152.821 238.347 152.933C238.368 152.973 238.398 153.006 238.433 153.031C238.469 153.055 238.51 153.07 238.552 153.073C238.679 153.097 238.808 153.097 238.935 153.073L239.53 152.933C239.752 152.863 239.983 152.833 240.214 152.845C240.379 152.845 240.54 152.901 240.672 153.007C240.798 153.12 240.888 153.272 240.932 153.441C240.999 153.68 241.029 153.928 241.021 154.177C241.021 154.506 240.977 154.833 240.891 155.149C240.808 155.473 240.686 155.785 240.529 156.076C240.363 156.375 240.166 156.651 239.941 156.9C239.711 157.157 239.448 157.378 239.161 157.556C238.95 157.694 238.719 157.791 238.477 157.843C238.28 157.883 238.077 157.865 237.889 157.791C237.718 157.706 237.576 157.564 237.485 157.386C237.373 157.159 237.312 156.907 237.307 156.65C237.306 156.566 237.323 156.484 237.355 156.407C237.385 156.345 237.43 156.291 237.485 156.253L237.936 155.973C238.005 155.929 238.06 155.914 238.101 155.936C238.142 155.958 238.169 155.995 238.196 156.061C238.225 156.137 238.261 156.209 238.306 156.275C238.348 156.339 238.408 156.388 238.477 156.415C238.567 156.437 238.66 156.437 238.75 156.415C238.896 156.378 239.034 156.316 239.161 156.231C239.293 156.149 239.419 156.056 239.537 155.951C239.767 155.755 239.95 155.503 240.071 155.215C240.125 155.068 240.153 154.91 240.153 154.751C240.159 154.694 240.154 154.635 240.139 154.58C240.124 154.524 240.098 154.472 240.064 154.428C240.027 154.392 239.983 154.366 239.936 154.351C239.889 154.336 239.839 154.332 239.79 154.339C239.635 154.346 239.481 154.373 239.332 154.42C239.154 154.464 238.949 154.516 238.709 154.56C238.526 154.609 238.336 154.624 238.148 154.604C238 154.594 237.86 154.529 237.752 154.42C237.633 154.295 237.55 154.137 237.512 153.964C237.457 153.708 237.432 153.446 237.437 153.184C237.437 152.86 237.48 152.537 237.567 152.227C237.649 151.907 237.768 151.601 237.923 151.314C238.071 151.03 238.25 150.765 238.456 150.527C238.644 150.284 238.863 150.071 239.106 149.894Z" fill="#FAFAFA"/>
<path d="M243.6 147.112C243.827 146.951 244.088 146.855 244.359 146.832C244.55 146.815 244.741 146.861 244.906 146.964C245.052 147.072 245.166 147.223 245.234 147.399C245.309 147.58 245.351 147.775 245.358 147.973C245.366 148.055 245.349 148.137 245.31 148.208C245.286 148.275 245.242 148.332 245.187 148.37L244.735 148.65C244.667 148.694 244.612 148.709 244.571 148.65C244.527 148.62 244.494 148.577 244.475 148.525C244.413 148.396 244.308 148.296 244.181 148.245C244.079 148.229 243.975 148.235 243.875 148.263C243.775 148.291 243.682 148.34 243.6 148.407C243.485 148.482 243.378 148.568 243.278 148.665C243.179 148.765 243.091 148.879 243.018 149.003C242.943 149.121 242.883 149.25 242.84 149.386C242.798 149.514 242.775 149.648 242.772 149.783C242.764 149.907 242.785 150.031 242.834 150.144C242.855 150.184 242.884 150.217 242.92 150.241C242.956 150.266 242.997 150.28 243.039 150.284C243.166 150.308 243.295 150.308 243.422 150.284L244.017 150.144C244.239 150.077 244.47 150.048 244.701 150.056C244.866 150.054 245.027 150.111 245.159 150.218C245.284 150.333 245.377 150.483 245.426 150.652C245.486 150.892 245.514 151.14 245.508 151.388C245.508 151.717 245.464 152.044 245.378 152.359C245.295 152.684 245.173 152.996 245.016 153.287C244.851 153.588 244.653 153.867 244.427 154.118C244.196 154.369 243.937 154.586 243.654 154.766C243.444 154.904 243.212 155.001 242.97 155.053C242.776 155.093 242.575 155.075 242.389 155.002C242.215 154.919 242.07 154.777 241.979 154.597C241.866 154.37 241.807 154.118 241.808 153.861C241.8 153.779 241.816 153.696 241.856 153.625C241.88 153.559 241.923 153.502 241.979 153.463L242.43 153.184C242.498 153.14 242.56 153.125 242.594 153.147C242.618 153.159 242.639 153.176 242.656 153.198C242.672 153.219 242.684 153.245 242.69 153.272C242.721 153.346 242.758 153.418 242.799 153.485C242.844 153.55 242.906 153.599 242.977 153.625C243.067 153.648 243.161 153.648 243.251 153.625C243.396 153.588 243.535 153.526 243.661 153.441C243.791 153.358 243.914 153.265 244.031 153.162C244.151 153.061 244.257 152.942 244.345 152.808C244.434 152.681 244.507 152.543 244.564 152.396C244.619 152.249 244.647 152.091 244.646 151.932C244.653 151.875 244.648 151.816 244.633 151.761C244.618 151.705 244.592 151.653 244.557 151.609C244.52 151.574 244.477 151.548 244.429 151.532C244.382 151.517 244.333 151.513 244.284 151.52C244.131 151.53 243.98 151.558 243.832 151.601C243.654 151.645 243.442 151.697 243.21 151.741C243.024 151.79 242.832 151.805 242.642 151.785C242.494 151.777 242.353 151.712 242.245 151.601C242.129 151.476 242.049 151.318 242.013 151.145C241.952 150.893 241.924 150.633 241.931 150.372C241.933 150.046 241.977 149.722 242.061 149.408C242.145 149.09 242.265 148.783 242.416 148.495C242.564 148.209 242.746 147.944 242.957 147.708C243.141 147.474 243.358 147.273 243.6 147.112Z" fill="#FAFAFA"/>
<path d="M248.586 148.032L248.032 151.557C248.015 151.663 247.988 151.767 247.95 151.866C247.923 151.946 247.873 152.013 247.806 152.058L247.286 152.381C247.218 152.426 247.17 152.426 247.136 152.381C247.09 152.321 247.063 152.246 247.061 152.168L246.24 145.949C246.24 145.949 246.24 145.89 246.24 145.868C246.242 145.786 246.26 145.706 246.294 145.632C246.32 145.567 246.363 145.511 246.418 145.47L246.89 145.176C246.929 145.159 246.973 145.159 247.013 145.176C247.054 145.176 247.081 145.235 247.095 145.353L247.635 149.54L248.107 146.398C248.119 146.319 248.14 146.243 248.169 146.17C248.196 146.077 248.254 145.998 248.333 145.949L248.859 145.618C248.935 145.573 248.989 145.581 249.024 145.618C249.053 145.664 249.074 145.717 249.085 145.772L249.564 148.326L250.104 143.468C250.111 143.373 250.136 143.28 250.18 143.196C250.212 143.141 250.253 143.094 250.303 143.056L250.775 142.762C250.792 142.748 250.814 142.74 250.836 142.74C250.858 142.74 250.88 142.748 250.898 142.762C250.917 142.786 250.932 142.814 250.941 142.844C250.951 142.875 250.955 142.907 250.953 142.939C250.955 142.968 250.955 142.998 250.953 143.027L250.132 150.262C250.118 150.368 250.093 150.471 250.056 150.571C250.025 150.649 249.973 150.716 249.906 150.762L249.379 151.086C249.318 151.123 249.27 151.123 249.236 151.086C249.201 151.018 249.173 150.947 249.154 150.873L248.586 148.032Z" fill="#FAFAFA"/>
<path d="M251.787 144.911C251.802 144.503 251.848 144.097 251.924 143.697C252.002 143.306 252.122 142.925 252.28 142.563C252.43 142.211 252.624 141.882 252.854 141.584C253.088 141.289 253.368 141.04 253.682 140.848C253.923 140.672 254.205 140.573 254.496 140.561C254.713 140.564 254.921 140.656 255.077 140.819C255.243 141.019 255.362 141.259 255.426 141.518C255.514 141.856 255.563 142.205 255.57 142.556C255.57 142.688 255.57 142.836 255.57 142.997C255.57 143.159 255.57 143.329 255.57 143.505C255.57 143.682 255.57 143.851 255.57 144.013C255.57 144.175 255.57 144.33 255.57 144.469C255.555 144.875 255.509 145.279 255.433 145.676C255.354 146.066 255.237 146.446 255.084 146.81C254.929 147.161 254.733 147.49 254.503 147.789C254.269 148.081 253.992 148.33 253.682 148.525C253.435 148.699 253.149 148.799 252.854 148.812C252.748 148.814 252.642 148.793 252.543 148.75C252.444 148.707 252.355 148.643 252.28 148.562C252.101 148.356 251.978 148.101 251.924 147.826C251.843 147.486 251.797 147.138 251.787 146.788C251.787 146.655 251.787 146.508 251.787 146.346C251.787 146.184 251.787 146.015 251.787 145.838C251.787 145.662 251.787 145.5 251.787 145.331C251.787 145.161 251.78 145.044 251.787 144.911ZM254.701 143.152C254.716 142.972 254.697 142.79 254.646 142.618C254.594 142.446 254.51 142.287 254.4 142.151C254.222 141.982 253.976 141.989 253.682 142.151C253.363 142.353 253.109 142.656 252.957 143.02C252.763 143.449 252.66 143.919 252.656 144.396C252.656 144.668 252.656 144.97 252.656 145.301C252.656 145.632 252.656 145.927 252.656 146.192C252.641 146.372 252.66 146.553 252.711 146.725C252.763 146.897 252.847 147.056 252.957 147.193C253.135 147.355 253.381 147.34 253.682 147.156C253.996 146.953 254.246 146.653 254.4 146.295C254.594 145.868 254.697 145.401 254.701 144.926C254.701 144.646 254.701 144.344 254.701 144.013C254.701 143.682 254.708 143.417 254.701 143.152Z" fill="#FAFAFA"/>
<path d="M258.552 137.912C259.092 137.581 259.496 137.529 259.776 137.772C259.943 137.969 260.066 138.203 260.138 138.458C260.21 138.712 260.229 138.981 260.194 139.244C260.199 139.744 260.128 140.241 259.982 140.716C259.843 141.158 259.627 141.568 259.346 141.923L260.235 144.006C260.238 144.04 260.238 144.075 260.235 144.109C260.235 144.175 260.221 144.241 260.194 144.3C260.175 144.354 260.141 144.4 260.098 144.433L259.551 144.771C259.462 144.823 259.4 144.83 259.359 144.771C259.323 144.733 259.293 144.688 259.27 144.639L258.429 142.674L257.574 143.204V145.691C257.575 145.773 257.558 145.853 257.526 145.927C257.498 145.991 257.456 146.046 257.403 146.089L256.883 146.412C256.866 146.428 256.844 146.437 256.822 146.437C256.799 146.437 256.777 146.428 256.76 146.412C256.74 146.39 256.725 146.363 256.716 146.334C256.707 146.305 256.703 146.274 256.705 146.243V139.362C256.707 139.28 256.726 139.199 256.76 139.126C256.784 139.059 256.827 139.003 256.883 138.964L258.552 137.912ZM257.588 141.871L258.552 141.312C258.788 141.17 258.989 140.971 259.14 140.731C259.299 140.447 259.375 140.119 259.359 139.788C259.359 139.391 259.284 139.17 259.14 139.126C258.932 139.096 258.721 139.154 258.552 139.288L257.622 139.862L257.588 141.871Z" fill="#FAFAFA"/>
<path d="M263.135 135.078C263.383 134.904 263.667 134.798 263.962 134.769C264.177 134.76 264.385 134.842 264.544 134.997C264.725 135.202 264.85 135.457 264.906 135.733C264.998 136.098 265.049 136.474 265.057 136.852C265.057 137.367 265.057 137.897 265.057 138.434C265.043 138.872 264.993 139.308 264.906 139.737C264.828 140.135 264.709 140.523 264.551 140.892C264.398 141.232 264.205 141.549 263.976 141.835C263.748 142.127 263.475 142.376 263.169 142.571L261.548 143.52C261.531 143.536 261.509 143.544 261.486 143.544C261.464 143.544 261.442 143.536 261.425 143.52C261.405 143.498 261.39 143.471 261.38 143.442C261.371 143.413 261.367 143.382 261.37 143.351V136.469C261.372 136.387 261.391 136.307 261.425 136.234C261.449 136.167 261.492 136.11 261.548 136.072L263.135 135.078ZM264.188 137.367C264.185 137.168 264.158 136.97 264.106 136.778C264.074 136.633 264.006 136.501 263.908 136.396C263.865 136.349 263.814 136.313 263.757 136.289C263.701 136.265 263.64 136.254 263.579 136.256C263.408 136.268 263.243 136.329 263.101 136.432L262.239 136.962V141.761L263.135 141.209C263.308 141.1 263.463 140.961 263.593 140.797C263.721 140.635 263.829 140.457 263.915 140.267C264 140.064 264.064 139.852 264.106 139.634C264.154 139.407 264.181 139.175 264.188 138.942C264.209 138.405 264.209 137.882 264.188 137.367Z" fill="#FAFAFA"/>
<path d="M169.208 28.255C170.389 28.5377 171.527 28.9986 172.587 29.624C173.603 30.2115 174.513 30.9891 175.275 31.9203C176.005 32.8161 176.546 33.8704 176.862 35.0115C177.185 36.233 177.209 37.5236 176.931 38.7578C176.747 39.7363 176.387 40.6665 175.87 41.4957C175.399 42.2047 174.837 42.839 174.202 43.3798C173.577 43.9013 172.911 44.3619 172.211 44.7562L170.241 45.8822C169.648 46.2153 169.084 46.607 168.559 47.0525C168.083 47.4452 167.718 47.9728 167.505 48.576C167.401 48.8516 167.228 49.091 167.006 49.2678C166.901 49.3558 166.778 49.4167 166.648 49.4461C166.517 49.4754 166.383 49.4724 166.253 49.4371L163.353 48.7453C163.214 48.7138 163.081 48.6526 162.964 48.5654C162.846 48.4782 162.746 48.3667 162.669 48.2374C162.587 48.1172 162.533 47.978 162.51 47.8309C162.488 47.6839 162.498 47.5332 162.539 47.391C162.773 46.4246 163.185 45.5185 163.75 44.7267C164.266 44.0263 164.864 43.4005 165.528 42.8646C166.176 42.3545 166.862 41.904 167.58 41.5178C168.264 41.1424 168.948 40.7818 169.543 40.4211C170.097 40.101 170.618 39.7186 171.096 39.2803C171.516 38.902 171.807 38.3842 171.924 37.8083C172.033 37.3083 172.027 36.7873 171.908 36.29C171.789 35.7927 171.56 35.3338 171.24 34.9526C170.44 34.013 169.371 33.3885 168.203 33.1789C166.041 32.6637 164.217 33.4463 162.731 35.5267C162.587 35.7538 162.407 35.9508 162.197 36.1082C161.961 36.2341 161.689 36.2552 161.438 36.167L158.353 35.431C158.133 35.3853 157.939 35.2477 157.813 35.0483C157.746 34.9418 157.7 34.8209 157.68 34.6939C157.66 34.5669 157.666 34.4368 157.697 34.3123C157.959 33.2896 158.447 32.3503 159.119 31.5744C159.878 30.6746 160.779 29.927 161.78 29.3664C162.875 28.7499 164.055 28.3274 165.275 28.1152C166.582 27.8864 167.918 27.9339 169.208 28.255ZM165.932 51.9395C166.203 52.0081 166.439 52.1881 166.588 52.4412C166.738 52.6943 166.79 53.0003 166.732 53.2938L165.994 56.9002C165.969 57.0512 165.914 57.1948 165.834 57.3216C165.754 57.4484 165.65 57.5556 165.528 57.6362C165.414 57.7211 165.284 57.7794 165.148 57.8073C165.011 57.8352 164.87 57.832 164.735 57.7981L161.424 56.9811C161.284 56.9556 161.15 56.8976 161.032 56.8113C160.914 56.7249 160.814 56.6121 160.74 56.4806C160.664 56.3563 160.611 56.2165 160.587 56.0697C160.562 55.9229 160.565 55.7722 160.597 55.6269L161.342 52.0205C161.406 51.7281 161.573 51.474 161.808 51.3119C162.043 51.1497 162.327 51.0924 162.601 51.152L165.932 51.9395Z" fill="#ED5243"/>
<path d="M172.861 62.7808C173.684 62.6386 174.522 62.6213 175.35 62.7293C176.142 62.8305 176.91 63.0795 177.621 63.4653C178.299 63.8434 178.895 64.3699 179.372 65.0109C179.801 65.6382 180.103 66.3553 180.259 67.1159C180.414 67.8765 180.42 68.6638 180.275 69.4269C180.145 70.0136 179.935 70.5765 179.653 71.0976C179.381 71.6045 179.065 72.0825 178.709 72.5254C178.36 72.967 178.025 73.3866 177.717 73.7914C177.416 74.1685 177.148 74.575 176.917 75.0058C176.7 75.3833 176.591 75.8208 176.602 76.2643C176.596 76.4716 176.542 76.674 176.445 76.8531C176.395 76.9356 176.33 77.0059 176.254 77.0592C176.177 77.1125 176.091 77.1476 176 77.1622L173.948 77.5155C173.852 77.5342 173.754 77.5322 173.659 77.5094C173.564 77.4867 173.474 77.4437 173.394 77.383C173.313 77.3284 173.246 77.2538 173.197 77.1655C173.148 77.0772 173.12 76.9777 173.114 76.8752C173.028 76.1903 173.074 75.4937 173.251 74.8291C173.411 74.2408 173.641 73.6769 173.935 73.151C174.222 72.6464 174.552 72.1709 174.92 71.7306C175.282 71.289 175.604 70.8768 175.918 70.4794C176.199 70.1244 176.442 69.7368 176.643 69.3238C176.821 68.9683 176.886 68.5599 176.828 68.161C176.776 67.8098 176.647 67.4773 176.451 67.1915C176.254 66.9058 175.996 66.6753 175.699 66.5197C174.964 66.1375 174.132 66.0287 173.333 66.2106C172.609 66.3244 171.936 66.6762 171.406 67.2178C170.876 67.7593 170.514 68.4641 170.371 69.2355C170.331 69.4211 170.261 69.5978 170.166 69.7581C170.044 69.8978 169.878 69.9842 169.701 70.001L167.539 70.3763C167.387 70.4076 167.23 70.3732 167.101 70.2806C167.036 70.2319 166.98 70.1687 166.939 70.095C166.898 70.0214 166.871 69.9392 166.862 69.8538C166.798 69.1234 166.904 68.3873 167.17 67.712C167.44 66.9262 167.839 66.1984 168.346 65.5629C168.903 64.867 169.558 64.2707 170.289 63.7965C171.077 63.2822 171.95 62.9372 172.861 62.7808ZM176.39 78.8624C176.484 78.8463 176.581 78.8504 176.673 78.8744C176.766 78.8984 176.853 78.9418 176.931 79.0022C177.011 79.0593 177.08 79.134 177.132 79.2215C177.183 79.309 177.217 79.4074 177.231 79.5101L177.615 82.0345C177.644 82.2393 177.598 82.4484 177.485 82.6165C177.372 82.7846 177.203 82.8981 177.013 82.9325L174.721 83.3373C174.531 83.3689 174.337 83.3187 174.181 83.1974C174.102 83.1397 174.034 83.0646 173.984 82.9771C173.933 82.8896 173.9 82.7917 173.887 82.6896L173.504 80.1651C173.486 80.0638 173.489 79.9597 173.511 79.8595C173.534 79.7594 173.575 79.6654 173.634 79.5837C173.687 79.4983 173.757 79.426 173.838 79.3715C173.92 79.317 174.011 79.2814 174.106 79.2672L176.39 78.8624Z" fill="#ED5243"/>
<g opacity="0.2">
<path opacity="0.2" d="M172.861 62.7808C173.684 62.6386 174.522 62.6213 175.35 62.7293C176.142 62.8305 176.91 63.0795 177.621 63.4653C178.299 63.8434 178.895 64.3699 179.372 65.0109C179.801 65.6382 180.103 66.3553 180.259 67.1159C180.414 67.8765 180.42 68.6638 180.275 69.4269C180.145 70.0136 179.935 70.5765 179.653 71.0976C179.381 71.6045 179.065 72.0825 178.709 72.5254C178.36 72.967 178.025 73.3866 177.717 73.7914C177.416 74.1685 177.148 74.575 176.917 75.0058C176.7 75.3833 176.591 75.8208 176.602 76.2643C176.596 76.4716 176.542 76.674 176.445 76.8531C176.395 76.9356 176.33 77.0059 176.254 77.0592C176.177 77.1125 176.091 77.1476 176 77.1622L173.948 77.5155C173.852 77.5342 173.754 77.5322 173.659 77.5094C173.564 77.4867 173.474 77.4437 173.394 77.383C173.313 77.3284 173.246 77.2538 173.197 77.1655C173.148 77.0772 173.12 76.9777 173.114 76.8752C173.028 76.1903 173.074 75.4937 173.251 74.8291C173.411 74.2408 173.641 73.6769 173.935 73.151C174.222 72.6464 174.552 72.1709 174.92 71.7306C175.282 71.289 175.604 70.8768 175.918 70.4794C176.199 70.1244 176.442 69.7368 176.643 69.3238C176.821 68.9683 176.886 68.5599 176.828 68.161C176.776 67.8098 176.647 67.4773 176.451 67.1915C176.254 66.9058 175.996 66.6753 175.699 66.5197C174.964 66.1375 174.132 66.0287 173.333 66.2106C172.609 66.3244 171.936 66.6762 171.406 67.2178C170.876 67.7593 170.514 68.4641 170.371 69.2355C170.331 69.4211 170.261 69.5978 170.166 69.7581C170.044 69.8978 169.878 69.9842 169.701 70.001L167.539 70.3763C167.387 70.4076 167.23 70.3732 167.101 70.2806C167.036 70.2319 166.98 70.1687 166.939 70.095C166.898 70.0214 166.871 69.9392 166.862 69.8538C166.798 69.1234 166.904 68.3873 167.17 67.712C167.44 66.9262 167.839 66.1984 168.346 65.5629C168.903 64.867 169.558 64.2707 170.289 63.7965C171.077 63.2822 171.95 62.9372 172.861 62.7808ZM176.39 78.8624C176.484 78.8463 176.581 78.8504 176.673 78.8744C176.766 78.8984 176.853 78.9418 176.931 79.0022C177.011 79.0593 177.08 79.134 177.132 79.2215C177.183 79.309 177.217 79.4074 177.231 79.5101L177.615 82.0345C177.644 82.2393 177.598 82.4484 177.485 82.6165C177.372 82.7846 177.203 82.8981 177.013 82.9325L174.721 83.3373C174.531 83.3689 174.337 83.3187 174.181 83.1974C174.102 83.1397 174.034 83.0646 173.984 82.9771C173.933 82.8896 173.9 82.7917 173.887 82.6896L173.504 80.1651C173.486 80.0638 173.489 79.9597 173.511 79.8595C173.534 79.7594 173.575 79.6654 173.634 79.5837C173.687 79.4983 173.757 79.426 173.838 79.3715C173.92 79.317 174.011 79.2814 174.106 79.2672L176.39 78.8624Z" fill="black"/>
</g>
<path d="M192.204 66.7479C192.298 66.8176 192.377 66.9071 192.437 67.0109C192.497 67.1147 192.536 67.2305 192.553 67.3514C192.575 67.4711 192.573 67.5944 192.549 67.7135C192.524 67.8326 192.477 67.9448 192.41 68.0432L190.782 70.5088C190.717 70.6092 190.634 70.6942 190.537 70.7587C190.441 70.8233 190.333 70.866 190.221 70.8842C190.11 70.9076 189.995 70.906 189.884 70.8794C189.774 70.8527 189.669 70.8018 189.578 70.7296L187.334 69.0147C187.241 68.9459 187.162 68.8565 187.103 68.7525C187.044 68.6484 187.006 68.5321 186.992 68.4112C186.971 68.2915 186.972 68.1682 186.997 68.0491C187.022 67.93 187.069 67.8178 187.136 67.7194L188.784 65.2538C188.918 65.0539 189.119 64.9187 189.344 64.8773C189.57 64.836 189.801 64.8919 189.988 65.033L192.204 66.7479ZM201.671 50.048C202.489 50.6649 203.217 51.409 203.832 52.256C204.432 53.0439 204.896 53.9414 205.2 54.9056C205.484 55.8297 205.58 56.8086 205.481 57.776C205.365 58.8076 205.002 59.7891 204.427 60.6243C204.001 61.2997 203.452 61.8754 202.813 62.3171C202.251 62.6962 201.641 62.9838 201.001 63.1709C200.377 63.3462 199.741 63.4644 199.099 63.5242L197.28 63.7008C196.734 63.7477 196.194 63.8487 195.665 64.0026C195.178 64.1216 194.732 64.3871 194.379 64.768C194.22 64.9421 194.019 65.0645 193.798 65.1213C193.693 65.1537 193.582 65.1586 193.475 65.1355C193.368 65.1125 193.268 65.0622 193.182 64.9888L191.199 63.4727C191.009 63.327 190.879 63.1081 190.836 62.8618C190.811 62.7424 190.812 62.6182 190.839 62.4993C190.866 62.3804 190.919 62.2701 190.994 62.1773C191.457 61.5303 192.036 60.9898 192.697 60.5875C193.292 60.238 193.926 59.9733 194.585 59.8C195.22 59.6341 195.868 59.5282 196.52 59.4835C197.163 59.4394 197.765 59.3879 198.326 59.329C198.839 59.2802 199.346 59.1716 199.838 59.0051C200.268 58.8511 200.638 58.5483 200.891 58.144C201.12 57.8026 201.268 57.4069 201.324 56.9904C201.38 56.574 201.342 56.1491 201.213 55.752C200.889 54.7711 200.27 53.9344 199.455 53.3747C197.977 52.2413 196.365 52.2045 194.619 53.2643C194.443 53.3847 194.248 53.4695 194.044 53.5146C193.938 53.5225 193.831 53.5078 193.73 53.4711C193.629 53.4345 193.536 53.3767 193.456 53.3011L191.349 51.6893C191.273 51.6348 191.208 51.5644 191.157 51.4822C191.107 51.4 191.072 51.3078 191.055 51.2109C191.039 51.1107 191.042 51.008 191.064 50.9092C191.087 50.8104 191.128 50.7177 191.185 50.6368C191.682 49.9515 192.328 49.4081 193.066 49.0544C193.905 48.6457 194.803 48.3967 195.72 48.3184C196.73 48.2276 197.746 48.3146 198.73 48.576C199.791 48.8513 200.791 49.3517 201.671 50.048Z" fill="#ED5243"/>
<g opacity="0.6">
<path opacity="0.6" d="M192.204 66.7479C192.298 66.8176 192.377 66.9071 192.437 67.0109C192.497 67.1147 192.536 67.2305 192.553 67.3514C192.575 67.4711 192.573 67.5944 192.549 67.7135C192.524 67.8326 192.477 67.9448 192.41 68.0432L190.782 70.5088C190.717 70.6092 190.634 70.6942 190.537 70.7587C190.441 70.8233 190.333 70.866 190.221 70.8842C190.11 70.9076 189.995 70.906 189.884 70.8794C189.774 70.8527 189.669 70.8018 189.578 70.7296L187.334 69.0147C187.241 68.9459 187.162 68.8565 187.103 68.7525C187.044 68.6484 187.006 68.5321 186.992 68.4112C186.971 68.2915 186.972 68.1682 186.997 68.0491C187.022 67.93 187.069 67.8178 187.136 67.7194L188.784 65.2538C188.918 65.0539 189.119 64.9187 189.344 64.8773C189.57 64.836 189.801 64.8919 189.988 65.033L192.204 66.7479ZM201.671 50.048C202.489 50.6649 203.217 51.409 203.832 52.256C204.432 53.0439 204.896 53.9414 205.2 54.9056C205.484 55.8297 205.58 56.8086 205.481 57.776C205.365 58.8076 205.002 59.7891 204.427 60.6243C204.001 61.2997 203.452 61.8754 202.813 62.3171C202.251 62.6962 201.641 62.9838 201.001 63.1709C200.377 63.3462 199.741 63.4644 199.099 63.5242L197.28 63.7008C196.734 63.7477 196.194 63.8487 195.665 64.0026C195.178 64.1216 194.732 64.3871 194.379 64.768C194.22 64.9421 194.019 65.0645 193.798 65.1213C193.693 65.1537 193.582 65.1586 193.475 65.1355C193.368 65.1125 193.268 65.0622 193.182 64.9888L191.199 63.4727C191.009 63.327 190.879 63.1081 190.836 62.8618C190.811 62.7424 190.812 62.6182 190.839 62.4993C190.866 62.3804 190.919 62.2701 190.994 62.1773C191.457 61.5303 192.036 60.9898 192.697 60.5875C193.292 60.238 193.926 59.9733 194.585 59.8C195.22 59.6341 195.868 59.5282 196.52 59.4835C197.163 59.4394 197.765 59.3879 198.326 59.329C198.839 59.2802 199.346 59.1716 199.838 59.0051C200.268 58.8511 200.638 58.5483 200.891 58.144C201.12 57.8026 201.268 57.4069 201.324 56.9904C201.38 56.574 201.342 56.1491 201.213 55.752C200.889 54.7711 200.27 53.9344 199.455 53.3747C197.977 52.2413 196.365 52.2045 194.619 53.2643C194.443 53.3847 194.248 53.4695 194.044 53.5146C193.938 53.5225 193.831 53.5078 193.73 53.4711C193.629 53.4345 193.536 53.3767 193.456 53.3011L191.349 51.6893C191.273 51.6348 191.208 51.5644 191.157 51.4822C191.107 51.4 191.072 51.3078 191.055 51.2109C191.039 51.1107 191.042 51.008 191.064 50.9092C191.087 50.8104 191.128 50.7177 191.185 50.6368C191.682 49.9515 192.328 49.4081 193.066 49.0544C193.905 48.6457 194.803 48.3967 195.72 48.3184C196.73 48.2276 197.746 48.3146 198.73 48.576C199.791 48.8513 200.791 49.3517 201.671 50.048Z" fill="white"/>
</g>
<path d="M141.267 131.899H116.964V68.5437C116.964 63.041 118.996 57.7637 122.612 53.8727C126.228 49.9818 131.132 47.7958 136.246 47.7958H138.49C143.604 47.7958 148.508 49.9818 152.124 53.8727C155.74 57.7637 157.772 63.041 157.772 68.5437V114.176C157.763 118.879 156.02 123.387 152.926 126.71C149.831 130.033 145.638 131.899 141.267 131.899Z" fill="#263238"/>
<path d="M114.598 284.42C114.168 287.045 113.939 289.703 113.914 292.369C113.825 297.197 113.004 298.912 112.895 302.871C112.765 307.398 113.496 309.091 115.2 311.637C116.903 314.184 121.356 316.487 123.284 312.189C125.213 307.891 124.933 305.072 124.324 300.634C123.702 296.041 123.64 293.502 123.257 290.006C122.942 286.922 122.573 284.574 122.573 284.574L114.598 284.42Z" fill="#263238"/>
<path d="M127.334 252.352L112.56 252.065C112.778 262.678 114.345 274.462 114.612 284.449C114.666 286.326 114.571 299.015 115.227 302.849C116.219 308.649 122.608 307.861 122.95 304.395C123.292 300.928 122.539 286.113 122.56 284.582C122.498 278.193 125.296 267.411 126.739 255.944C126.8 255.392 127.266 252.904 127.334 252.352Z" fill="#FFA8A7"/>
<path d="M146.315 276.162C146.315 276.162 145.733 275.823 145.631 276.493C145.487 277.288 145.268 278.929 144.947 280.239C144.523 282.057 144.167 285.053 144.42 286.54C144.673 288.026 147.888 289.925 149.974 290.617C152.545 291.471 154.89 292.972 156.814 294.996C158.866 297.086 163.333 299.059 166.39 299.037C169.981 299.037 172.485 297.749 173.668 295.681C174.851 293.613 172.587 293.362 168.483 290.529L165.303 288.321C158.798 283.75 156.411 281.307 154.584 276.736L146.315 276.162Z" fill="#263238"/>
<path d="M154.639 273.328C154.53 270.046 156.636 242.144 156.636 242.144L142.607 249.026C145.61 268.324 146.253 272.879 146.301 276.037C146.239 276.301 146.214 276.574 146.226 276.846C146.226 280.593 150.172 282.617 153.237 285.119C155.842 287.315 158.618 289.265 161.534 290.948C163.764 292.148 168.292 292.258 168.852 290.72C165.118 287.651 159.687 283.058 156.718 279.555C155.268 277.906 154.748 276.618 154.639 273.328Z" fill="#FFA8A7"/>
<path d="M118.613 148.79C113.223 161.515 113.223 171.363 114.119 187.606C114.913 202.51 116.233 215.648 116.233 215.648C116.027 218.29 112.614 223.45 112.17 235.137C111.759 246.06 112.854 259.948 112.854 259.948C112.854 259.948 120.521 264.518 126.192 259.904C126.192 259.904 131.664 231.796 133.264 218.121C134.632 206.19 137.095 190.948 137.095 190.948L142.273 218.04C141.155 221.884 140.345 225.824 139.851 229.816C139.126 237.86 143.312 253.655 143.312 253.655C143.312 253.655 151.233 256.194 156.069 251.579C156.069 251.579 157.875 225.9 158.552 216.215C159.455 203.239 157.553 168.117 156.069 149.518L118.613 148.79Z" fill="#455A64"/>
<path d="M137.108 190.926L139.236 170.509C139.236 170.509 148.771 169.14 153.093 164.768C151.856 166.851 150.208 168.616 148.266 169.936C146.323 171.256 144.135 172.1 141.855 172.408L138.777 191.404L142.273 218.04L137.108 190.926Z" fill="#263238"/>
<path d="M175.72 143.77C176.114 140.045 176.287 136.296 176.24 132.546C176.028 129.308 175.487 128.778 171.281 123.044C165.604 115.294 160.754 108.324 155.624 101.399C151.958 96.4528 148.1 95.6947 144.352 95.9155C141.725 96.0701 146.855 109.664 149.434 117.708L164.16 134.769C164.617 135.442 164.826 136.273 164.749 137.102L163.859 151.616L168.271 157.975C168.271 157.975 174.954 151.778 175.72 143.77Z" fill="#FFA8A7"/>
<path d="M130.152 96.3571C127.3 96.5705 122.115 97.0931 122.115 97.0931C119.126 98.8889 118.367 100.368 117.813 104.637C117.573 106.462 118.955 111.313 120.138 118.209L122.382 130.993L122.135 137.338C120.973 141.209 118.339 146.015 116.014 153.103C127.436 159.962 137.012 160.22 145.699 158.991C152.32 158.071 155.829 156.348 156.999 154.641C156.753 147.642 156.315 143.314 156.178 135.998C156.13 132.929 156.301 129.823 156.418 126.29C160.857 122.36 160.911 115.824 158.47 111.57C152.84 101.759 147.361 95.5843 143.736 95.9008L130.152 96.3571Z" fill="#ED5243"/>
<path opacity="0.6" d="M130.152 96.3571C127.3 96.5705 122.115 97.0931 122.115 97.0931C119.126 98.8889 118.367 100.368 117.813 104.637C117.573 106.462 118.955 111.313 120.138 118.209L122.382 130.993L122.135 137.338C120.973 141.209 118.339 146.015 116.014 153.103C127.436 159.962 137.012 160.22 145.699 158.991C152.32 158.071 155.829 156.348 156.999 154.641C156.753 147.642 156.315 143.314 156.178 135.998C156.13 132.929 156.301 129.823 156.418 126.29C160.857 122.36 160.911 115.824 158.47 111.57C152.84 101.759 147.361 95.5843 143.736 95.9008L130.152 96.3571Z" fill="white"/>
<path opacity="0.1" d="M147.574 126.386C147.574 126.386 142.361 130.743 136.404 128.469C134.731 127.902 133.222 126.879 132.024 125.501C130.826 124.123 129.978 122.435 129.564 120.601C129.564 120.601 128.934 127.924 136.438 130.419C143.709 132.826 147.574 126.386 147.574 126.386Z" fill="black"/>
<path d="M154.646 76.257C154.42 86.8848 151.226 89.505 149.612 90.241C147.998 90.977 144.906 90.5354 141.896 89.9981V96.416C141.896 96.416 145.371 100.332 145.111 103.253C144.851 106.175 139.639 106.507 135.754 103.644C133.61 102.059 131.671 100.176 129.988 98.0426C129.665 97.631 129.488 97.1094 129.489 96.5706V81.5562C129.489 81.5562 127.84 83.433 124.926 81.2838C124.298 80.8521 123.759 80.2843 123.346 79.6166C122.932 78.9488 122.652 78.1958 122.523 77.4053C122.394 76.6148 122.42 75.8041 122.598 75.0248C122.776 74.2455 123.103 73.5147 123.558 72.8787C124.831 71.2669 128.059 71.1565 129.605 73.6147C130.48 75.4474 130.597 77.2947 131.575 76.5587C134.174 74.5421 132.779 69.9347 135.918 67.7267C136.948 67.1481 138.019 66.656 139.119 66.2547C144.721 64.1718 149.578 62.4202 150.747 58.2986C152.95 59.6528 154.92 63.7229 154.646 76.257Z" fill="#FFA8A7"/>
<path d="M143.599 85.7513C144.317 85.7513 144.899 85.1253 144.899 84.3529C144.899 83.5806 144.317 82.9545 143.599 82.9545C142.882 82.9545 142.3 83.5806 142.3 84.3529C142.3 85.1253 142.882 85.7513 143.599 85.7513Z" fill="#B16668"/>
<path d="M142.737 74.6451C142.737 74.933 142.658 75.2145 142.511 75.4547C142.363 75.6949 142.154 75.8833 141.908 75.9966C141.662 76.1098 141.39 76.143 141.127 76.0919C140.863 76.0408 140.62 75.9077 140.426 75.7092C140.232 75.5106 140.097 75.2553 140.037 74.9747C139.976 74.6942 139.994 74.4008 140.087 74.1309C140.18 73.861 140.345 73.6264 140.561 73.4562C140.776 73.2859 141.034 73.1875 141.301 73.1731C141.486 73.1631 141.672 73.1938 141.846 73.2633C142.02 73.3328 142.179 73.4396 142.313 73.5773C142.447 73.715 142.554 73.8807 142.627 74.0643C142.7 74.2478 142.738 74.4454 142.737 74.6451Z" fill="#263238"/>
<path d="M153.1 74.7923C153.114 74.9724 153.095 75.1537 153.043 75.3256C152.991 75.4975 152.908 75.6566 152.798 75.7936C152.689 75.9306 152.555 76.0428 152.405 76.1236C152.255 76.2044 152.091 76.2523 151.924 76.2643C151.754 76.2811 151.584 76.259 151.424 76.1995C151.263 76.14 151.116 76.0444 150.993 75.9191C150.869 75.7938 150.772 75.6417 150.707 75.4728C150.642 75.3039 150.612 75.1221 150.617 74.9395C150.599 74.7581 150.616 74.5747 150.667 74.4006C150.718 74.2265 150.801 74.0654 150.911 73.927C151.022 73.7887 151.157 73.6761 151.309 73.5961C151.462 73.5161 151.628 73.4705 151.797 73.462C151.966 73.4534 152.135 73.4822 152.294 73.5465C152.453 73.6108 152.597 73.7093 152.719 73.8359C152.841 73.9625 152.938 74.1146 153.004 74.2829C153.069 74.4511 153.102 74.632 153.1 74.8144V74.7923Z" fill="#263238"/>
<path d="M140.98 78.4281C139.8 78.4281 138.668 77.9244 137.833 77.0274C136.999 76.1304 136.529 74.9136 136.527 73.6442C136.527 70.391 139.646 70.391 140.98 70.391C142.314 70.391 145.426 70.391 145.426 73.6442C145.424 74.9123 144.955 76.128 144.122 77.0248C143.288 77.9216 142.158 78.4262 140.98 78.4281ZM140.98 71.1418C138.244 71.1418 137.231 71.8778 137.231 73.6442C137.231 74.7177 137.628 75.7474 138.333 76.5065C139.039 77.2657 139.996 77.6921 140.993 77.6921C141.991 77.6921 142.948 77.2657 143.654 76.5065C144.359 75.7474 144.755 74.7177 144.755 73.6442C144.728 71.841 143.675 71.1418 140.98 71.1418Z" fill="#455A64"/>
<path d="M152.272 78.4281C151.092 78.4281 149.961 77.9244 149.126 77.0274C148.291 76.1304 147.821 74.9136 147.819 73.6442C147.819 70.391 150.938 70.391 152.272 70.391C153.606 70.391 156.718 70.391 156.718 73.6442C156.716 74.9123 156.247 76.128 155.414 77.0248C154.581 77.9216 153.451 78.4262 152.272 78.4281ZM152.272 71.1418C149.577 71.1418 148.524 71.8778 148.524 73.6442C148.524 74.7177 148.92 75.7474 149.626 76.5065C150.331 77.2657 151.288 77.6921 152.286 77.6921C153.284 77.6921 154.24 77.2657 154.946 76.5065C155.651 75.7474 156.048 74.7177 156.048 73.6442C156.02 71.841 154.967 71.1418 152.272 71.1418Z" fill="#455A64"/>
<path d="M146.117 72.0985L146.336 81.0409L150.706 79.5837L146.117 72.0985Z" fill="#F28F8F"/>
<path d="M141.889 90.0201C138.715 89.5712 132.183 87.5545 131.164 84.7724C131.574 86.1785 132.374 87.4162 133.455 88.32C135.405 90.1232 141.889 92.1472 141.889 92.1472V90.0201Z" fill="#F28F8F"/>
<path d="M142.046 67.7562L139.146 69.6624C138.918 69.234 138.851 68.7273 138.961 68.2476C139.07 67.7679 139.347 67.352 139.734 67.0864C139.926 66.9615 140.139 66.8796 140.36 66.8457C140.582 66.8118 140.807 66.8266 141.024 66.8892C141.24 66.9518 141.442 67.0609 141.617 67.2099C141.793 67.3589 141.939 67.5447 142.046 67.7562Z" fill="#263238"/>
<path d="M153.846 69.8758L150.617 68.6614C150.68 68.4312 150.785 68.2172 150.927 68.0324C151.07 67.8477 151.245 67.6963 151.444 67.5874C151.643 67.4784 151.86 67.4144 152.082 67.3991C152.305 67.3838 152.528 67.4177 152.738 67.4985C153.171 67.666 153.527 68.0062 153.733 68.4487C153.94 68.8913 153.98 69.4023 153.846 69.8758Z" fill="#263238"/>
<path d="M145.076 74.0269C145.03 74.0269 144.984 74.0169 144.941 73.9976C144.899 73.9783 144.86 73.95 144.827 73.9144C144.795 73.8787 144.769 73.8365 144.752 73.7901C144.735 73.7437 144.727 73.6941 144.728 73.6442C144.728 73.0333 145.849 72.6358 146.862 72.6358C147.874 72.6358 148.524 73.0333 148.524 73.6442C148.503 73.7241 148.458 73.7945 148.396 73.8446C148.334 73.8947 148.259 73.9218 148.182 73.9218C148.105 73.9218 148.029 73.8947 147.968 73.8446C147.906 73.7945 147.861 73.7241 147.84 73.6442C147.84 73.5706 147.491 73.3866 146.882 73.3866C146.392 73.3753 145.904 73.4653 145.446 73.6515C145.446 73.7027 145.436 73.7534 145.417 73.8005C145.399 73.8475 145.371 73.8899 145.336 73.9251C145.302 73.9602 145.261 73.9874 145.216 74.0049C145.172 74.0224 145.124 74.0299 145.076 74.0269Z" fill="#455A64"/>
<path d="M136.889 73.703H136.848L129.03 72.967C128.665 72.5774 128.23 72.2719 127.751 72.0691L136.93 72.9818C137.022 72.9946 137.106 73.0457 137.163 73.1241C137.221 73.2025 137.248 73.302 137.238 73.4013C137.222 73.4876 137.178 73.5651 137.115 73.6203C137.051 73.6755 136.971 73.7047 136.889 73.703Z" fill="#455A64"/>
<path d="M104.789 82.4761C107.347 78.7961 109.091 76.0214 111.424 72.9081C112.751 71.1197 113.599 69.839 114.844 68.0064C115.719 66.7405 116.212 65.6733 117.211 65.2832C118.289 64.8075 119.262 64.0899 120.063 63.1782C120.555 62.5921 121.012 61.9726 121.431 61.3235C122.897 59.2002 124.638 57.314 126.602 55.7226C128.654 54.0592 130.945 52.7785 133.059 51.1961C134.317 50.2467 135.665 48.6717 134.133 47.1997C133.663 46.7738 133.1 46.4827 132.498 46.3533C128.77 45.4848 125.528 46.8611 121.882 47.8621C120.299 48.2874 118.75 48.8511 117.252 49.5475C116.515 49.8611 115.823 50.2875 115.2 50.8134C114.327 51.7597 113.612 52.8601 113.086 54.0666C111.492 57.1283 108.072 59.8662 105.678 62.2877C102.881 65.1213 100.377 67.7193 97.183 70.84C94.3102 73.6589 91.499 76.2496 88.8656 79.3261C86.6836 81.8653 87.4976 83.8525 87.7849 84.5443C89.5633 88.4745 91.5537 89.8877 93.9409 92.3238C98.0449 96.5411 112.238 108.678 116.937 112.689C117.947 113.542 118.739 114.656 119.242 115.927L120.145 118.172C125.507 119.232 129.085 110.569 124.646 100.14C123.91 98.4537 122.788 96.9971 121.383 95.9081C115.774 91.5142 104.789 82.4761 104.789 82.4761Z" fill="#FFA8A7"/>
<path d="M104.789 82.4762C103.082 84.7355 100.808 86.4192 98.2363 87.3264C98.2363 87.3264 101.656 88.2685 106.342 83.7421L104.789 82.4762Z" fill="#F28F8F"/>
<path d="M174.325 136.094L173.449 135.284C173.318 135.191 173.169 135.133 173.013 135.114C172.858 135.095 172.7 135.115 172.553 135.174L163.052 137.956C162.574 138.128 162.135 138.408 161.767 138.779C161.399 139.15 161.109 139.602 160.918 140.105L154.078 161.324C153.996 161.497 153.964 161.692 153.986 161.885C154.008 162.078 154.083 162.259 154.202 162.406L155.104 163.245C155.236 163.342 155.387 163.404 155.546 163.424C155.704 163.445 155.865 163.424 156.014 163.363L165.529 160.58C166.007 160.409 166.446 160.128 166.814 159.757C167.182 159.386 167.472 158.934 167.663 158.431C169.031 154.258 173.135 141.386 174.503 137.212C174.667 136.69 174.585 136.292 174.325 136.094Z" fill="#455A64"/>
<path d="M154.974 162.141L161.814 140.922C162.004 140.42 162.294 139.968 162.662 139.598C163.031 139.228 163.469 138.949 163.948 138.78L173.442 135.998C174.325 135.74 174.81 136.285 174.496 137.212C173.128 141.386 169.024 154.258 167.656 158.431C167.465 158.934 167.175 159.386 166.807 159.757C166.438 160.128 166 160.409 165.521 160.58L156.028 163.392C155.152 163.613 154.68 163.068 154.974 162.141Z" fill="#ED5243"/>
<path d="M162.915 139.369C162.422 139.771 162.039 140.311 161.807 140.929L154.967 162.141C154.889 162.309 154.856 162.498 154.873 162.686C154.89 162.873 154.956 163.052 155.063 163.201L154.215 162.42C154.093 162.276 154.016 162.095 153.993 161.901C153.969 161.708 154.002 161.512 154.085 161.339L160.925 140.12C161.141 139.543 161.492 139.036 161.944 138.648L162.915 139.369Z" fill="#37474F"/>
<path d="M171.718 145.765C171.034 147.921 168.661 149.364 164.735 150.365C160.809 151.366 158.64 155.848 159.263 157.21C159.885 158.571 166.233 159.844 168.77 159.454C171.308 159.064 173.853 155.119 174.625 153.898C175.398 152.676 176.288 144.153 175.474 142.983C174.66 141.812 172.943 141.996 172.943 141.996L171.718 145.765Z" fill="#F28F8F"/>
</svg>
